<svg xmlns="http://www.w3.org/2000/svg" viewBox="0 0 3500 2500"><defs><style>.cls-1{isolation:isolate;}.cls-2,.cls-31{fill:#fff;}.cls-3{fill:#c2d8f2;}.cls-4{fill:#9bd;}.cls-5{fill:#576c89;}.cls-6{fill:#b75742;}.cls-7{fill:#f48c7f;}.cls-8{fill:#f3f3f3;}.cls-9{fill:#171c51;}.cls-10{fill:#fdc560;}.cls-11{fill:#d5d5d5;}.cls-12{fill:#f4f4f4;}.cls-13{fill:#466eb5;}.cls-14{fill:#355389;}.cls-15{fill:#f7a391;}.cls-16{fill:#f47458;}.cls-17{fill:#fae0b2;}.cls-18{fill:#13375b;}.cls-19{mix-blend-mode:multiply;opacity:0.4;}.cls-20{fill:#345489;}.cls-21{fill:#f48561;}.cls-22{fill:#86b1f2;}.cls-23{fill:#5e76b8;}.cls-24{fill:#f0ed85;}.cls-25{fill:#a2be4e;}.cls-26{fill:#7a8e3b;}.cls-27{fill:#40451c;}.cls-28{fill:#50bfa5;}.cls-29{fill:#fe875e;}.cls-30{fill:#96d9c9;}.cls-31{mix-blend-mode:soft-light;}.cls-32{fill:#efeeee;}.cls-33{fill:#184655;}.cls-34{fill:#f05c5a;}</style></defs><g class="cls-1"><g id="Layer_2" data-name="Layer 2"><g id="Background"><rect class="cls-2" width="3500" height="2500"/><path class="cls-3" d="M708.74,2267.25S699.21,1896,774.1,1675.38s-296.73-553.2-32.49-774.31c115.24-96.43,630.5-663.47,1191.45-467.9,425.89,148.48,230.52,353.26,314.85,573.51s207.24,463.5,251.69,512-41.4-186.94-41.59-291.72,317.21-7.23,423,152.46-32.54,664.13-88,763.67-190.54,124.2-190.54,124.2Z"/><path class="cls-4" d="M3095.06,2278l-8.27-9.24c2.4-2.15,3.78-6.49,3.59-11.33s-2-9.43-4.67-11.44c-19.42-14.8-64.37-2.44-97.2,6.58-28.78,7.92-46.15,12.69-53,4-5.11-6.53-.05-15.55,1.61-18.52,11.19-20,49.72-30.23,94.32-42.11,59.48-15.84,126.89-33.79,125.26-76.21-.37-9.51-3.35-16.52-9.11-21.44-16-13.69-51.26-9.45-77-6.35-23.05,2.77-37,4.45-41.35-4.41-3.71-7.46,3.19-16.13,11.19-24.38,18.6-19.18,37.73-56.88,48.74-96.05,12-42.74,12.66-79,1.77-99.46-8.35-15.69-23.06-21.42-45-17.5-51.76,9.26-61.05,68.92-69.26,121.55-3.49,22.45-6.8,43.65-13.26,58.9-7.9,18.64-20.38,26.94-37.1,24.65-37-5-44.51-39.89-50.58-67.9-3.68-17-7.16-33.06-15.92-37.56-4.9-2.52-12.32-1.67-22,2.53-29.73,12.85-21.73,65.19-14,115.81,3.93,25.66,8,52.2,6.92,73.52-1.29,25.85-10.07,41.53-26.85,47.92-35.68,13.59-49.87-14.71-60.23-35.38-6.08-12.13-11.82-23.59-19.62-25-6.25-1.12-15.17,3.76-26.49,14.46-30.18,28.49-17.07,86.23,3.33,127l-11.09,5.54c-5.3-10.58-18-38.53-21.52-69.26-3.62-31.57,3.37-55.9,20.76-72.33,14.74-13.92,26.55-19.53,37.16-17.65,13.94,2.46,21.37,17.28,28.56,31.62,12.15,24.24,21.22,38.31,44.73,29.35,27-10.29,19.43-59.95,12.08-108-8.45-55.26-17.18-112.41,21.33-129.07,13.46-5.82,24.13-6.53,32.61-2.17,14,7.18,18,26,22.37,46,5.79,26.74,11.78,54.38,40.13,58.25,23.32,3.18,29-25.74,36.44-73.18,8.4-53.92,18.86-121,79.32-131.84,34.26-6.13,50.5,9.6,58.1,23.87,12.37,23.26,12.08,62.86-.79,108.64-11.7,41.64-31.54,80.47-51.76,101.33-5,5.1-7.1,8.14-8,9.8,5.21.77,18.06-.78,27.79-1.95,29.55-3.56,66.32-8,86.49,9.23,8.43,7.19,13,17.41,13.46,30.4,2,52.32-70.49,71.63-134.46,88.66-38.38,10.22-78.06,20.79-86.69,36.19a21.29,21.29,0,0,0-2.09,4.7c5.89,1,25.08-4.25,39.35-8.17,37.29-10.26,83.69-23,108-4.49,5.63,4.29,9.19,12.07,9.54,20.81C3103.1,2265.51,3100.22,2273.38,3095.06,2278Z"/><path class="cls-4" d="M2887,2277l-10.2-7.06c51.95-75.05,121.48-196,157.7-345.85l12.05,2.91C3009.84,2078.71,2939.5,2201.06,2887,2277Z"/><rect class="cls-4" x="2946.6" y="2141.87" width="144.67" height="12.4" transform="translate(-402.6 726.36) rotate(-12.87)"/><rect class="cls-4" x="2887.63" y="2077.97" width="12.4" height="155.12" transform="matrix(0.98, -0.2, 0.2, 0.98, -374.89, 627.13)"/><rect class="cls-4" x="2755.98" y="2227.21" width="12.4" height="50.48" transform="translate(-786.99 1926.03) rotate(-33.94)"/><path class="cls-4" d="M432.29,2285.85c-60.75,0-112.25-22.81-137.76-61-15-22.51-18.55-47.79-9.61-69.33,7.13-17.21,42.88-10.23,100.61,2.58,20.5,4.55,41.7,9.26,58.16,11.36,23.6,3,27.17-.79,27.5-1.23s.49-2.51-2.19-7.3c-11.12-19.84-58.86-32.55-109.4-46-79.45-21.16-169.5-45.15-167-109.35.6-15.79,6.08-28.2,16.28-36.9,24.72-21.09,72.28-15.36,107-11.18,13.66,1.64,32.08,3.86,37.18,2-.55-1.61-2.72-5.75-11.14-14.44-25.14-25.92-49.8-74.23-64.38-126.08-16-56.89-16.39-106-1.1-134.74,9.26-17.4,29.09-36.57,71-29.07,33.46,6,57.48,26.39,73.44,62.39,13.48,30.41,19.34,68,24.52,101.24,9.39,60.28,16.7,97,47.32,92.83,36.55-5,44.16-40.1,51.52-74.06,5.32-24.58,10.35-47.8,27.16-56.44,10.18-5.23,23.09-4.32,39.47,2.76,47.07,20.36,36.23,91.24,25.75,159.79-4.8,31.41-9.77,63.9-8.51,89.15,1.32,26.58,9.15,41.71,24.62,47.6,33.52,12.77,50-9.19,66-30.42,10.47-13.92,20.37-27.08,34.53-27.08h.65c12.38.35,24.6,10.54,39.6,33,14.81,22.21,20.62,48.22,17.27,77.32-2.63,22.85-10.9,47.61-24.6,73.59a379.53,379.53,0,0,1-54.6,77.06l-9-8.56c.3-.32,30.44-32.15,52.72-74.51,29.23-55.57,31.88-102,7.86-138-12-18-22-27.31-29.63-27.53h-.27c-8,0-15.72,10.26-24.65,22.13-12.84,17.08-29.47,39.19-57.17,39.19A65,65,0,0,1,648.3,2092c-20.35-7.75-31-26.91-32.59-58.57-1.32-26.5,3.75-59.62,8.64-91.65,9.77-63.89,19.88-130-18.41-146.53-12.77-5.52-22.21-6.53-28.88-3.11-11.6,6-16,26.4-20.72,48-7.48,34.56-16.8,77.57-62,83.73-20.41,2.78-35.05-7-44.76-29.9-8-18.91-12.13-45.33-16.49-73.31-10.34-66.35-22.06-141.56-87.88-153.33-27.77-5-47.24,2.66-57.89,22.68-29.42,55.29,12.7,194,63.43,246.37,9.61,9.92,17.93,20.26,13.73,28.73-5,10.09-22,8-50.16,4.66-32.44-3.91-76.88-9.26-97.46,8.3-7.56,6.45-11.47,15.59-11.94,28-2.09,54.29,82.87,76.92,157.83,96.89,55.45,14.76,103.35,27.52,117,51.92,4.78,8.53,5.23,15.52,1.33,20.76-10,13.4-43.84,6.68-98.3-5.41-21.47-4.77-43.68-9.7-60.56-11.67-23.76-2.76-25.89,1.68-25.91,1.73-7.32,17.65-4.23,38.68,8.47,57.7,23.21,34.75,70.85,55.49,127.45,55.49Z"/><path class="cls-4" d="M607.59,2283.76c-.47-.53-47.57-54-103-144.22a1395.12,1395.12,0,0,1-86.4-163.9c-31-69.77-55.29-140.76-72.26-211l12.05-2.91c38,157.33,106.37,288.61,157,371,54.92,89.4,101.44,142.22,101.91,142.75Z"/><rect class="cls-4" x="372.67" y="1951.08" width="12.4" height="180.97" transform="translate(-1695.81 1956.36) rotate(-77.13)"/><rect class="cls-4" x="438.34" y="2044.71" width="194.04" height="12.4" transform="translate(-1581.35 2162.1) rotate(-78.38)"/><rect class="cls-4" x="592.07" y="2206.59" width="161.18" height="12.4" transform="translate(-1538.65 1535.28) rotate(-56.06)"/><rect class="cls-4" x="472.11" y="2175.36" width="12.4" height="160.54" transform="translate(-1817.08 2036.93) rotate(-72.59)"/><path class="cls-4" d="M1969.74,550.31a51.14,51.14,0,1,1,51.14-51.14A51.2,51.2,0,0,1,1969.74,550.31Zm0-89.88a38.74,38.74,0,1,0,38.74,38.74A38.79,38.79,0,0,0,1969.74,460.43Z"/><path class="cls-4" d="M502.1,1420.19a51.14,51.14,0,1,1,51.14-51.14A51.2,51.2,0,0,1,502.1,1420.19Zm0-89.88a38.74,38.74,0,1,0,38.74,38.74A38.79,38.79,0,0,0,502.1,1330.31Z"/><path class="cls-4" d="M2929.67,1565.69a51.14,51.14,0,1,1,51.14-51.14A51.2,51.2,0,0,1,2929.67,1565.69Zm0-89.88a38.74,38.74,0,1,0,38.74,38.74A38.79,38.79,0,0,0,2929.67,1475.81Z"/><path class="cls-5" d="M281.95,2251.08H3207.47a62.62,62.62,0,0,1,62.62,62.62v.51a0,0,0,0,1,0,0H219.32a0,0,0,0,1,0,0v-.51A62.62,62.62,0,0,1,281.95,2251.08Z"/><path class="cls-4" d="M2332.62,891.9a15.49,15.49,0,0,1-2.79-.26l-50.27-9.58a15,15,0,0,1-11.74-11.15l-4.54-18.63,92.63,17.64-11.07,15.66A15,15,0,0,1,2332.62,891.9Zm-50.74-22,50.27,9.58a2.6,2.6,0,0,0,2.51-1l-54.77-10.43a2.57,2.57,0,0,0,2,1.81Z"/><path class="cls-4" d="M2348.79,880.57a34.46,34.46,0,0,1-6.46-.61l-70.11-13.35A34.4,34.4,0,0,1,2248.83,850l-16.4-28.49a34.46,34.46,0,0,1-4-23.6l14.6-76.69,179.85,34.24-14.6,76.69a34.41,34.41,0,0,1-12.38,20.49l-25.71,20.47A34.41,34.41,0,0,1,2348.79,880.57Zm-95.87-144.88-12.29,64.51a22,22,0,0,0,2.55,15.1l16.39,28.48a22,22,0,0,0,15,10.65l70.11,13.35a22,22,0,0,0,17.83-4.4l25.72-20.47a22,22,0,0,0,7.92-13.11l12.28-64.51Z"/><path class="cls-4" d="M2414.87,766.14a21.68,21.68,0,0,1-3.57-.3A605,605,0,0,1,2249.41,735a21.93,21.93,0,0,1-17.18-23.3l0-.37c5.22-48.51-5.17-67.14-20.9-95.33-7.73-13.86-16.5-29.58-25.4-51.81l-.49-1.22c-.46-1.18-.92-2.36-1.36-3.55l-.37-1c-.41-1.09-.8-2.18-1.19-3.28l-.48-1.4q-.6-1.74-1.17-3.51l-.26-.78c-.44-1.4-.87-2.8-1.29-4.21l-.38-1.33c-.32-1.08-.62-2.16-.91-3.25l-.34-1.25c-.38-1.43-.74-2.86-1.09-4.29l-.23-1c-.28-1.18-.55-2.34-.8-3.51l-.3-1.38c-.28-1.3-.54-2.6-.79-3.91l-.12-.58q-.42-2.21-.78-4.44l-.21-1.3q-.28-1.75-.54-3.51l-.16-1.16c-.21-1.51-.4-3-.57-4.51l-.11-1c-.13-1.22-.26-2.46-.37-3.69l-.12-1.35q-.2-2.13-.33-4.26l0-.35c-.1-1.55-.18-3.09-.24-4.64l0-1.28c0-1.23-.07-2.47-.1-3.7l0-1.12c0-1.53,0-3.08,0-4.63v-1c0-1.27.05-2.54.1-3.82l0-1.31c.06-1.53.13-3.05.23-4.58V473c.09-1.59.21-3.16.35-4.75l.11-1.29c.12-1.26.25-2.54.39-3.81l.11-1.06c.18-1.58.38-3.15.59-4.73l.15-1c.18-1.28.38-2.57.58-3.85l.22-1.31c.26-1.59.54-3.19.84-4.78s.69-3.47,1.07-5.22c.07-.34.15-.68.23-1l.17-.76c.25-1.13.51-2.26.78-3.38l.33-1.3.31-1.22c.22-.86.43-1.73.67-2.59.13-.48.26-1,.4-1.44l.34-1.22c.23-.8.45-1.59.68-2.38.15-.51.31-1,.47-1.52l.3-1c.25-.83.51-1.66.77-2.48.18-.57.37-1.13.56-1.69l.28-.82c.27-.81.54-1.62.82-2.42.22-.62.44-1.23.67-1.85l.13-.37c.34-.92.65-1.78,1-2.63.25-.66.5-1.31.76-2l.1-.26,1-2.58.92-2.21c.36-.84.71-1.69,1.08-2.53s.64-1.45,1-2.18.75-1.66,1.13-2.49l1-2.15c.4-.82.79-1.64,1.19-2.45s.71-1.42,1.07-2.12.83-1.61,1.24-2.41l1.12-2.1,1.3-2.36,1.17-2.08c.44-.76.89-1.54,1.35-2.31s.81-1.36,1.22-2,.93-1.52,1.4-2.28.83-1.34,1.26-2l1.45-2.24c.44-.65.87-1.31,1.31-2s1-1.46,1.51-2.2l.23-.33c.37-.53.73-1.07,1.11-1.59l1.53-2.13.19-.26c.41-.56.81-1.12,1.22-1.67s1-1.25,1.43-1.88l.58-.76c.34-.45.68-.89,1-1.33l1.44-1.82.62-.77,1.06-1.31c.51-.62,1-1.23,1.54-1.84l.65-.77,1-1.21,1.53-1.73.8-.9c.32-.37.64-.73,1-1.09.54-.6,1.09-1.19,1.63-1.78l.87-.94c.29-.31.58-.63.88-.94.68-.72,1.37-1.42,2.06-2.13l.69-.7.71-.73q1.74-1.76,3.53-3.47c.17-.17.36-.34.55-.51l.32-.3c.91-.87,1.82-1.73,2.75-2.58l.92-.83.9-.8c.62-.56,1.24-1.12,1.87-1.67l1.07-.91,1-.86c.57-.48,1.13-1,1.7-1.44.41-.34.82-.68,1.24-1l.9-.73,1.71-1.39,1.37-1.06.76-.59c.59-.46,1.18-.92,1.78-1.37l1.4-1,.72-.54,1.86-1.36,1.49-1.06.56-.39c.66-.47,1.33-.93,2-1.39l1.67-1.13.29-.19,2.15-1.43,1.92-1.23,2.26-1.42,2-1.24,2.2-1.32,2.07-1.19,2.23-1.26,2.11-1.15,2.25-1.2,2.13-1.11,2.28-1.14,2.17-1.06c.76-.37,1.53-.73,2.31-1.09l2.18-1,2.35-1,2.2-1,2.37-1,2.23-.91,2.3-.89.35-.13,2-.76,2.24-.81.49-.17c.65-.23,1.3-.47,2-.69l2.21-.74.82-.27,1.7-.56,2.1-.64.94-.28,1.74-.53,2.06-.58,1.12-.31,1.64-.45,2-.5,1.3-.33,1.58-.4,2.13-.48,1.27-.29,1.5-.34,2.44-.5,1.28-.25c.4-.08.8-.17,1.2-.24,1.63-.31,3.27-.6,4.91-.87l1.3-.2,1.31-.2c.79-.13,1.59-.25,2.39-.36l1.57-.21,1.35-.17,2.1-.26,1.68-.18,1.28-.13,2.09-.21,1.8-.15L2365,276l2.07-.16,1.87-.1,1.1-.06,2.13-.11,2-.07.88,0,2.23-.06,2.19,0h2.95l2.26,0h.29c.87,0,1.74,0,2.61.06l2.58.1,2.6.13,2.59.17,2.61.19,2.59.23c.87.09,1.75.17,2.62.27l2.6.29.51.06.83.09.71.1.42.06c1.11.15,2.23.3,3.34.47l2.35.35c1.08.17,2.15.36,3.23.55l.41.07,2,.35.84.15,1.68.34,1.47.3,1.48.3c1.46.31,2.92.65,4.37,1l1,.22a210.05,210.05,0,0,1,159.48,229.4l-.13,1c-.18,1.4-.37,2.82-.58,4.24-.09.62-.18,1.25-.28,1.88-.18,1.17-.37,2.32-.57,3.46-.13.79-.27,1.58-.42,2.36l-.09.52c-.05.28-.09.57-.15.85s-.14.73-.22,1.09l-.14.67c-.16.82-.32,1.64-.5,2.45-.22,1.08-.46,2.15-.71,3.22l-.1.44c-.13.61-.27,1.22-.42,1.82-.28,1.2-.59,2.39-.89,3.58l-.14.56c-.07.3-.15.61-.23.92l-.47,1.71c-.37,1.33-.74,2.67-1.13,4l-.18.6c-.43,1.44-.88,2.88-1.34,4.31l-.38,1.16c-.46,1.41-.93,2.81-1.42,4.21l-.32.88c-.45,1.25-.9,2.47-1.36,3.69l-.35.94q-.79,2.06-1.62,4.08l-.46,1.12c-.57,1.36-1.14,2.71-1.73,4l-.24.54c-.54,1.24-1.11,2.48-1.69,3.71l-.51,1.08c-.61,1.3-1.24,2.59-1.88,3.88l-.51,1c-.57,1.13-1.15,2.26-1.75,3.39l-.41.78c-.67,1.26-1.36,2.51-2.06,3.76l-.63,1.1c-.7,1.24-1.42,2.48-2.15,3.71l-.46.75c-.65,1.08-1.3,2.13-2,3.18l-.62,1c-.75,1.19-1.51,2.36-2.28,3.52l-.66,1c-.76,1.12-1.48,2.17-2.21,3.22l-.5.72c-.78,1.1-1.57,2.19-2.37,3.28l-.78,1.05c-.82,1.11-1.66,2.21-2.5,3.3l-.73.93c-.71.91-1.44,1.82-2.18,2.73l-.7.87c-.88,1.07-1.76,2.12-2.65,3.16l-.9,1c-.88,1-1.77,2-2.68,3l-.82.9c-.45.5-.9,1-1.36,1.48l-1.55,1.67c-16.52,17.57-30.66,29-43.14,39.15-25.18,20.42-41.81,33.91-54.7,80.67A22,22,0,0,1,2414.87,766.14Zm-170.24-53.79,0,.33a9.45,9.45,0,0,0,7.59,10.24l.42.08.4.14a592.44,592.44,0,0,0,159.32,30.34l.42,0,.42.08a9.44,9.44,0,0,0,10.82-6.74c13.95-50.58,32.79-65.86,58.85-87,12.17-9.87,26-21.06,41.94-38l1.48-1.58,1.26-1.39.79-.86c.85-.94,1.69-1.9,2.52-2.86l.84-1c.84-1,1.67-2,2.49-3l.66-.82c.7-.86,1.38-1.72,2.06-2.58l.68-.87c.8-1,1.58-2.06,2.36-3.1l.73-1c.75-1,1.5-2,2.23-3.08l.47-.67c.69-1,1.36-2,2-3l.66-1c.73-1.1,1.45-2.2,2.16-3.31l.58-.94c.62-1,1.23-2,1.84-3l.43-.71c.69-1.16,1.36-2.32,2-3.49l.58-1c.66-1.18,1.31-2.36,1.95-3.56l.39-.73c.55-1.05,1.1-2.11,1.64-3.18l.48-.94c.6-1.21,1.19-2.42,1.77-3.65l.48-1q.81-1.74,1.59-3.51l.22-.49c.56-1.26,1.09-2.53,1.62-3.81l.44-1c.52-1.27,1-2.55,1.52-3.84l.34-.89c.43-1.14.85-2.3,1.27-3.45l.3-.86c.46-1.3.91-2.62,1.34-3.94l.35-1.09c.44-1.35.86-2.71,1.27-4.07l.16-.55c.37-1.26.73-2.51,1.07-3.77l.44-1.6c.06-.25.12-.47.17-.7l.18-.71q.43-1.66.84-3.36c.14-.56.26-1.12.39-1.68l.1-.45c.23-1,.46-2,.67-3,.17-.77.32-1.54.47-2.31l.16-.78.18-.88c0-.21.08-.42.11-.63l.12-.65c.13-.75.27-1.49.39-2.23.19-1.08.36-2.16.53-3.24.1-.61.19-1.2.27-1.79.2-1.34.38-2.67.54-4l.12-.95a197.64,197.64,0,0,0-150.07-215.87l-.91-.21c-1.36-.32-2.73-.64-4.11-.93l-1.32-.27-1.56-.32-1.48-.3-.8-.14-1.82-.32-.42-.08-3-.51c-.74-.12-1.48-.22-2.22-.33-1-.16-2.09-.31-3.14-.44l-1.06-.15-.63-.07-.64-.08-2.44-.27-2.47-.25-2.44-.22-2.46-.18-2.43-.16-2.46-.12-2.41-.1-2.46-.05h-.29l-2.11,0h-2.8l-2,0-2.07.05-.9,0c-.62,0-1.24,0-1.85.06l-2,.1-1.13.06-1.7.1-1.9.14-1.26.1-1.62.13-1.91.19-1.34.14-1.5.16-1.92.24-1.42.18c-.46.06-.92.11-1.38.18-.74.1-1.47.22-2.2.33l-1.4.21-1.1.17c-1.55.26-3.09.53-4.62.82l-1,.2-1.37.28-2.26.46-1.31.29-1.34.31-1.95.44-1.4.35-1.36.35-1.81.46-1.48.4-1.16.33-1.9.53-1.59.48-1,.29-1.95.6-1.55.5-.83.28c-.69.23-1.38.45-2.07.69l-1.81.64-.5.17-2.1.76-1.87.71-.35.13-2.15.84-2.11.85c-.74.31-1.48.61-2.22.93s-1.39.59-2.08.9-1.47.64-2.2,1l-2.06.94-2.17,1-2,1c-.72.35-1.43.71-2.15,1.08l-2,1-2.12,1.13-2,1.08-2.1,1.19L2281,315l-2.07,1.24-1.91,1.16c-.69.43-1.38.86-2.06,1.3l-1.88,1.2-2,1.35-.29.19c-.52.35-1,.69-1.55,1.05l-1.88,1.3-.56.4-1.37,1c-.59.42-1.16.85-1.74,1.27l-.73.55-1.28.95c-.56.42-1.1.84-1.65,1.27l-.79.61-1.25,1-1.57,1.27-.94.77c-.37.29-.74.59-1.1.9l-1.57,1.33-1,.89-.94.8-1.73,1.55-1,.85-.79.71c-.87.8-1.73,1.61-2.59,2.42l-.81.76c-1.13,1.09-2.23,2.17-3.33,3.27l-.58.6-.75.77c-.64.66-1.29,1.32-1.93,2l-.75.81-.92,1c-.5.54-1,1.08-1.51,1.63-.28.32-.57.64-.85,1l-.83.94c-.48.53-1,1.06-1.42,1.61-.31.35-.61.71-.91,1.07l-.68.81c-.48.57-1,1.13-1.43,1.71l-1,1.18-.63.79c-.45.56-.91,1.12-1.35,1.69l-.93,1.22-.59.77c-.45.58-.9,1.16-1.33,1.75l-1.13,1.54-.16.22c-.53.72-1,1.39-1.49,2.06l-1,1.47-.23.34c-.47.68-.95,1.37-1.41,2.07s-.83,1.23-1.23,1.85-.92,1.4-1.37,2.11l-1.18,1.88c-.45.71-.89,1.43-1.32,2.15s-.77,1.28-1.15,1.92-.85,1.44-1.26,2.17-.74,1.31-1.11,2l-1.22,2.22-1,2c-.4.75-.78,1.5-1.17,2.25l-1,2c-.38.76-.75,1.53-1.11,2.3s-.65,1.35-1,2-.71,1.55-1.06,2.33l-.91,2c-.35.8-.68,1.59-1,2.39s-.58,1.38-.86,2.07-.64,1.62-1,2.43l-.11.27-.7,1.81c-.3.8-.6,1.61-.89,2.42l-.16.45c-.21.57-.42,1.13-.62,1.71-.26.74-.51,1.49-.76,2.24l-.29.85-.51,1.54c-.25.77-.48,1.54-.72,2.31l-.31,1-.42,1.37-.63,2.2-.35,1.27-.36,1.28c-.21.79-.42,1.59-.62,2.39l-.33,1.3c-.09.37-.19.74-.28,1.11-.25,1.05-.49,2.11-.73,3.18l-.2.85-.18.83c-.36,1.63-.69,3.27-1,4.92-.28,1.5-.54,3-.79,4.5l-.21,1.24c-.19,1.2-.37,2.42-.55,3.63l-.13,1c-.21,1.49-.39,3-.56,4.46l-.11,1c-.13,1.2-.25,2.4-.36,3.59l-.11,1.22c-.12,1.49-.24,3-.33,4.46v.14c-.09,1.44-.16,2.87-.22,4.31l0,1.24c0,1.19-.07,2.39-.09,3.59V484c0,1.45,0,2.9,0,4.36l0,1.05c0,1.16.05,2.31.09,3.47l.05,1.21c.06,1.45.13,2.9.22,4.35l0,.34c.09,1.34.2,2.68.31,4L2184,504c.11,1.17.23,2.33.36,3.49l.1.91c.16,1.42.34,2.83.53,4.24l.16,1.09c.16,1.11.32,2.21.5,3.3l.2,1.24c.23,1.39.47,2.78.74,4.17l.11.56c.23,1.21.48,2.44.74,3.66l.28,1.29q.36,1.65.75,3.3l.22.94c.33,1.35.67,2.69,1,4l.33,1.19c.27,1,.56,2,.85,3.05l.36,1.25c.4,1.33.8,2.65,1.22,4l.24.73c.35,1.11.72,2.21,1.1,3.31.15.44.3.88.46,1.32.36,1,.73,2.05,1.1,3.07l.36,1c.41,1.11.84,2.23,1.28,3.33l.47,1.17c8.61,21.51,17.17,36.85,24.72,50.39C2238.44,639.1,2250.19,660.16,2244.63,712.35Z"/><path class="cls-4" d="M2364.85,756.27l-12.18-2.33c.1-.49,9.55-49.62,23.29-101,8.09-30.27,16.08-55.41,23.74-74.73.38-1,.77-1.93,1.15-2.87-15.09-1.14-32.36-4.68-51.64-10.6q-8.1-2.47-15.06-5.1a192.81,192.81,0,0,1-1.2,28c-14.52,132-20,158-20.19,159l-12.12-2.62c.05-.24,5.61-27.11,20-157.78a166.17,166.17,0,0,0,.74-31.88c-31.81-14.51-41.28-30.64-38.49-42.31,2-8.18,10.07-13,19.29-11.35C2312.24,502.5,2321.28,511,2327,524a85.19,85.19,0,0,1,6,21.84c5.81,2.39,12.42,4.76,19.91,7.06,21.57,6.62,39.21,9.7,53.26,10.33,7.74-16.61,15.18-27.12,22.58-31.94,12.47-8.11,22.8-5.39,28.3-.14,6.57,6.27,7.52,16.39,2.37,25.19-3.31,5.65-12.18,15.57-34.36,18.55a100.56,100.56,0,0,1-10.88.83C2406.8,593,2398,618.44,2388,656.12,2374.33,707,2365,755.78,2364.85,756.27Zm79.29-217.66c-2.5,0-5.52,1-8.69,3.11C2432,544,2426.81,549.54,2420,563c15.72-1.38,25-6.61,28.67-12.93,2.52-4.31,1.7-8.1-.23-10A6.05,6.05,0,0,0,2444.14,538.61Zm-145.52-25.77c-1.67,0-3.29.55-3.68,2.15-1,4.27,4.61,14,24.09,24.39-4.16-17.14-12.21-25.23-19-26.42A9.49,9.49,0,0,0,2298.62,512.84Z"/><rect class="cls-4" x="2320.14" y="687.16" width="12.4" height="172.01" transform="translate(875.42 2749.14) rotate(-72.1)"/><rect class="cls-4" x="2316.85" y="704.43" width="12.4" height="172" transform="translate(856.72 2757.97) rotate(-72.1)"/><rect class="cls-4" x="2313.57" y="721.69" width="12.4" height="172.01" transform="translate(838.01 2766.79) rotate(-72.1)"/><rect class="cls-4" x="2306.43" y="741.76" width="12.4" height="163.91" transform="matrix(0.31, -0.95, 0.95, 0.31, 817.82, 2771.1)"/><rect class="cls-4" x="2642.5" y="503.8" width="12.4" height="65.79" transform="translate(1626.03 3038.25) rotate(-79.22)"/><rect class="cls-4" x="2605.43" y="389.85" width="65.79" height="12.4" transform="translate(16.68 890.58) rotate(-19.22)"/><rect class="cls-4" x="2526.13" y="273.24" width="65.79" height="12.4" transform="translate(675.85 2034.53) rotate(-49.22)"/><rect class="cls-4" x="2399.14" y="211.9" width="65.79" height="12.4" transform="matrix(0.19, -0.98, 0.98, 0.19, 1762.91, 2566.42)"/><rect class="cls-4" x="2285.19" y="195.58" width="12.4" height="65.79" transform="translate(52.5 767.01) rotate(-19.22)"/><rect class="cls-4" x="2168.58" y="274.89" width="12.4" height="65.79" transform="translate(521.23 1753.52) rotate(-49.22)"/><rect class="cls-4" x="2107.24" y="401.88" width="12.4" height="65.79" transform="translate(1291.02 2429.58) rotate(-79.22)"/><path class="cls-4" d="M1008.42,997.56c-2.45,0-4.89,0-7.35-.15l-6.2-.24,1.83-45.66a143.19,143.19,0,0,1-24.78-4.27l-13.59,43.62L952.41,989a190.28,190.28,0,0,1-82.75-52.3l-4.21-4.56,33.58-31a142.48,142.48,0,0,1-14.49-20.55l-40.47,21.24-2.88-5.49a190.17,190.17,0,0,1-21.52-95.49l.24-6.2,45.66,1.83a142.67,142.67,0,0,1,4.27-24.79l-43.63-13.58,1.84-5.93a190.57,190.57,0,0,1,52.31-82.75l4.55-4.21,31,33.58a142.8,142.8,0,0,1,20.55-14.49l-21.24-40.46,5.5-2.88a190,190,0,0,1,95.49-21.53l6.2.25-1.83,45.66a142.73,142.73,0,0,1,24.78,4.27L1058.94,626l5.92,1.85a190.14,190.14,0,0,1,82.76,52.3l4.2,4.55-33.57,31a142,142,0,0,1,14.49,20.55L1173.2,715l2.88,5.5A190,190,0,0,1,1197.6,816l-.24,6.2-45.66-1.82a142.56,142.56,0,0,1-4.27,24.78l43.64,13.59-1.85,5.92a190.28,190.28,0,0,1-52.3,82.75l-4.56,4.21-31-33.58a142,142,0,0,1-20.55,14.49L1102.06,973l-5.5,2.88A190,190,0,0,1,1008.42,997.56Zm-.66-12.4a177.35,177.35,0,0,0,77.5-17.48l-21.14-40.24,5.5-2.88a129.82,129.82,0,0,0,28-19.73l4.56-4.21L1133,934a178,178,0,0,0,42.45-67.15L1132,853.35l1.85-5.92a129.81,129.81,0,0,0,5.82-33.73l.24-6.2,45.42,1.81a177.67,177.67,0,0,0-17.47-77.49L1127.63,753l-2.88-5.5a130,130,0,0,0-19.72-28l-4.2-4.55,33.39-30.83a178,178,0,0,0-67.16-42.45L1053.55,685l-5.92-1.84a130.64,130.64,0,0,0-33.73-5.81l-6.2-.24,1.82-45.42A178.11,178.11,0,0,0,932,649.2l21.13,40.25-5.5,2.88a129.78,129.78,0,0,0-28,19.72l-4.55,4.21-30.84-33.4A178.11,178.11,0,0,0,841.85,750l43.4,13.51-1.85,5.93a130.08,130.08,0,0,0-5.82,33.72l-.24,6.21-45.41-1.82a177.64,177.64,0,0,0,17.47,77.49l40.24-21.13,2.88,5.5a130.73,130.73,0,0,0,19.73,28l4.21,4.55-33.4,30.83a178,178,0,0,0,67.16,42.45l13.51-43.4,5.93,1.85a129.78,129.78,0,0,0,33.72,5.81l6.2.25Zm.82-111.72c-.85,0-1.69,0-2.54-.05a64.69,64.69,0,0,1-32.13-10,65.31,65.31,0,0,1-13-10.85,64.52,64.52,0,0,1-9.78-13.87,65,65,0,0,1-7.4-32.82,63.8,63.8,0,0,1,2.88-16.73,65,65,0,0,1,127,21.93,64.15,64.15,0,0,1-2.89,16.74,65.06,65.06,0,0,1-62.12,45.66Zm.11-117.6a52.7,52.7,0,0,0-24.51,6A51.49,51.49,0,0,0,973,769.78a52.52,52.52,0,0,0-16.89,36.54,52.67,52.67,0,0,0,6,26.58,52.2,52.2,0,0,0,7.9,11.21,53,53,0,0,0,23,14.56,52.15,52.15,0,0,0,13.53,2.33,52.79,52.79,0,0,0,26.57-6,51.77,51.77,0,0,0,11.21-7.91h0a52.84,52.84,0,0,0,14.54-23,52,52,0,0,0,2.34-13.52,52.66,52.66,0,0,0-36.93-52.35,52,52,0,0,0-13.52-2.33C1010.06,755.85,1009.38,755.84,1008.69,755.84Z"/><path class="cls-4" d="M1011.39,589.89l-6.19-.15a141.38,141.38,0,0,1-69.75-20.54l-5.3-3.23,17.52-28.69a106.51,106.51,0,0,1-12.13-9.8l-24.36,23.19-4.27-4.5a141.28,141.28,0,0,1-34.79-63.83l-1.46-6,32.67-7.9a107.67,107.67,0,0,1-1.66-15.51l-33.61-.83.15-6.2a141.39,141.39,0,0,1,20.54-69.74l3.22-5.3,28.71,17.52a105.55,105.55,0,0,1,9.79-12.13l-23.18-24.35,4.5-4.28a141.08,141.08,0,0,1,63.83-34.79l6-1.46,7.9,32.68a106.14,106.14,0,0,1,15.51-1.67l.82-33.6,6.2.15a141.24,141.24,0,0,1,69.75,20.53l5.29,3.23-17.51,28.7a106.63,106.63,0,0,1,12.13,9.79L1106.09,348l4.27,4.5a141,141,0,0,1,34.79,63.82l1.47,6-32.68,7.91a106.13,106.13,0,0,1,1.66,15.51l33.62.82-.16,6.2a141.51,141.51,0,0,1-20.53,69.75l-3.23,5.29-28.7-17.52a106.82,106.82,0,0,1-9.8,12.14L1110,546.76l-4.49,4.28a141.29,141.29,0,0,1-63.83,34.8l-6,1.46-7.9-32.68a106.42,106.42,0,0,1-15.51,1.66Zm-64.11-28.17a129,129,0,0,0,52,15.31l.82-33.28,6.2.16a94,94,0,0,0,24.54-2.63l6-1.46,7.83,32.36a128.86,128.86,0,0,0,47.61-26l-23-24.11,4.51-4.28a93.7,93.7,0,0,0,15.5-19.2l3.23-5.3L1121,510.68a129,129,0,0,0,15.31-52l-33.28-.82.16-6.2a93.83,93.83,0,0,0-2.63-24.54l-1.47-6,32.36-7.83a128.71,128.71,0,0,0-26-47.61l-24.11,23-4.28-4.5a93.48,93.48,0,0,0-19.2-15.51l-5.29-3.23L1070,336.92a129.24,129.24,0,0,0-52-15.32l-.82,33.28-6.2-.16a93.42,93.42,0,0,0-24.54,2.64l-6,1.46-7.83-32.36a128.64,128.64,0,0,0-47.61,26l22.95,24.11-4.5,4.27A93.81,93.81,0,0,0,927.88,400l-3.23,5.3L896.24,388a129.22,129.22,0,0,0-15.32,52l33.28.81-.15,6.21a93.83,93.83,0,0,0,2.62,24.54l1.47,6-32.36,7.83a128.92,128.92,0,0,0,26,47.61l24.12-22.95,4.27,4.5a94.17,94.17,0,0,0,19.21,15.5l5.3,3.23Zm61.37-63-1.22,0a49.3,49.3,0,0,1-42.12-25.72,49.62,49.62,0,0,1-4.65-12,48.93,48.93,0,0,1-1.37-12.82,49.54,49.54,0,0,1,7.22-24.51A49.37,49.37,0,0,1,1009.85,400a49.39,49.39,0,0,1,46.76,37.75,49.24,49.24,0,0,1-.63,25.54,49.38,49.38,0,0,1-47.33,35.42Zm0-86.33a37.15,37.15,0,0,0-25.49,10.2,36.33,36.33,0,0,0-6,7.5,37.12,37.12,0,0,0-5.41,18.36,36.31,36.31,0,0,0,1,9.58,37.23,37.23,0,0,0,9.16,16.81,36.52,36.52,0,0,0,7.5,6.06,36.89,36.89,0,0,0,28,4.38,36.73,36.73,0,0,0,9-3.48,37.34,37.34,0,0,0,7.81-5.68,36.25,36.25,0,0,0,6-7.5h0a37,37,0,0,0,3.91-8.83,37.42,37.42,0,0,0,1.5-9.52,36.44,36.44,0,0,0-1-9.59,37.27,37.27,0,0,0-3.48-9,37.08,37.08,0,0,0-31.54-19.27Z"/><path class="cls-4" d="M1430.08,878q-5.41,0-10.83-.21l-6.2-.24,2.72-67.95a209.68,209.68,0,0,1-42.11-7.25l-20.22,64.91-5.92-1.85a280.52,280.52,0,0,1-122-77.1l-4.21-4.56,50-46.12a210,210,0,0,1-24.63-34.92l-60.21,31.61-2.88-5.5A280.27,280.27,0,0,1,1151.82,588l.24-6.2,67.94,2.72a208.87,208.87,0,0,1,7.26-42.12l-64.93-20.22,1.85-5.92a280.71,280.71,0,0,1,77.11-122l4.55-4.21,46.12,50a209.62,209.62,0,0,1,34.93-24.64l-31.6-60.19,5.49-2.88a280.07,280.07,0,0,1,140.78-31.74l6.2.24L1445,388.79a210.51,210.51,0,0,1,42.12,7.25l20.2-64.91,5.93,1.85a280.47,280.47,0,0,1,122,77.11l4.21,4.55-50,46.11a209.8,209.8,0,0,1,24.63,34.93l60.2-31.61,2.88,5.5A280,280,0,0,1,1709,610.34l-.24,6.2-67.93-2.72a209.59,209.59,0,0,1-7.27,42.12l64.93,20.22-1.85,5.92a280.81,280.81,0,0,1-77.1,122l-4.56,4.21-46.12-50A209,209,0,0,1,1533.91,783l31.61,60.18L1560,846A280.19,280.19,0,0,1,1430.08,878Zm-4.14-12.43a268.07,268.07,0,0,0,122.8-27.7l-31.54-60.05,5.5-2.88A197.11,197.11,0,0,0,1565,745.08l4.55-4.22,46,49.85a268.49,268.49,0,0,0,67.27-106.42l-64.78-20.17,1.85-5.92a196.8,196.8,0,0,0,8.81-51.06l.24-6.2,67.77,2.71a267.65,267.65,0,0,0-27.68-122.8L1609,512.39l-2.88-5.5a197.21,197.21,0,0,0-29.84-42.34l-4.21-4.56,49.83-46a268.26,268.26,0,0,0-106.43-67.26l-20.15,64.75-5.92-1.84a197.49,197.49,0,0,0-51.06-8.79l-6.2-.24,2.71-67.78a267.69,267.69,0,0,0-122.8,27.68l31.53,60.06-5.5,2.88a196.49,196.49,0,0,0-42.33,29.86l-4.56,4.21-46-49.85a268.49,268.49,0,0,0-67.27,106.42l64.78,20.17-1.85,5.92a196.88,196.88,0,0,0-8.81,51.06l-.24,6.2L1164,594.73a267.94,267.94,0,0,0,27.68,122.8L1251.78,686l2.88,5.49a197.42,197.42,0,0,0,29.86,42.34l4.21,4.55-49.85,46a268.26,268.26,0,0,0,106.43,67.26l20.17-64.76,5.92,1.85a197.12,197.12,0,0,0,51,8.8l6.2.24ZM1430.32,693c-1.22,0-2.45,0-3.67-.07a93.42,93.42,0,0,1-24.15-4.16,94.39,94.39,0,0,1-41.06-25.95,93.86,93.86,0,0,1-22.56-43,94.39,94.39,0,0,1-2.24-24.39,92.52,92.52,0,0,1,4.17-24.15,94.15,94.15,0,0,1,26-41.06,93.52,93.52,0,0,1,43-22.56A93.85,93.85,0,0,1,1524.16,603a94.07,94.07,0,0,1-30.11,65.2h0a93,93,0,0,1-20,14.12A94.22,94.22,0,0,1,1430.32,693Zm.17-175.27a82,82,0,0,0-38,9.34,81.16,81.16,0,0,0-31,28.6,81.54,81.54,0,0,0-8.93,19.29,80.52,80.52,0,0,0-3.61,20.94,81.7,81.7,0,0,0,9.27,41.13,80.64,80.64,0,0,0,12.25,17.37A81.88,81.88,0,0,0,1406.2,677a80.79,80.79,0,0,0,20.94,3.61,81.7,81.7,0,0,0,41.13-9.28A80.59,80.59,0,0,0,1485.63,659h0a81.54,81.54,0,0,0,16.87-97.72A80.52,80.52,0,0,0,1490.25,544a81.28,81.28,0,0,0-56.58-26.13C1432.61,517.77,1431.55,517.75,1430.49,517.75Z"/><path class="cls-4" d="M1557.46,1815.35l-100.11-28.51a17.17,17.17,0,0,1-11.8-21.2l.47-1.68a17.33,17.33,0,0,1,10.41-11.34,27.59,27.59,0,1,0-22.84-50.16,27.59,27.59,0,0,0-9.51,40.94,17.32,17.32,0,0,1,2.88,15.13l-.48,1.68a17.17,17.17,0,0,1-21.2,11.8l-103.13-29.38,29.38-103.13a4.8,4.8,0,0,0-.42-3.62,4.74,4.74,0,0,0-2.85-2.26l-1.68-.48a5,5,0,0,0-4.36.93,39.77,39.77,0,0,1-34.76,6.32,40.19,40.19,0,0,1-24.58-20.11,39.66,39.66,0,0,1-2.15-31.73,40,40,0,0,1,74.86-1.39,5,5,0,0,0,3.21,3.07l1.68.47a4.74,4.74,0,0,0,5.87-3.27l28.52-100.11L1475,1515.84a17.15,17.15,0,0,1,11.8,21.2l-.48,1.67a17.29,17.29,0,0,1-10.41,11.34,27.6,27.6,0,0,0,.94,51.65,27.6,27.6,0,0,0,31.42-42.43,17.32,17.32,0,0,1-2.88-15.13l.48-1.67a17.15,17.15,0,0,1,21.19-11.8L1630.18,1560l-29.38,103.14a4.76,4.76,0,0,0,3.27,5.87l1.68.48a5,5,0,0,0,4.36-.92,40,40,0,0,1,61.49,45.52,40,40,0,0,1-74.86,1.39,5,5,0,0,0-3.21-3.07l-1.68-.48a4.76,4.76,0,0,0-5.88,3.27ZM1446.19,1687a40,40,0,0,1,14.83,77.2,5,5,0,0,0-3.07,3.21l-.48,1.68a4.76,4.76,0,0,0,3.27,5.87l88.19,25.12,25.12-88.19a17.15,17.15,0,0,1,21.2-11.8l1.68.48a17.34,17.34,0,0,1,11.33,10.41,27.6,27.6,0,0,0,51.65-.93,27.6,27.6,0,0,0-42.43-31.42,17.35,17.35,0,0,1-15.13,2.88l-1.68-.48a17.16,17.16,0,0,1-11.79-21.2l26-91.21-91.21-26a4.76,4.76,0,0,0-5.88,3.27l-.48,1.68a5.06,5.06,0,0,0,.93,4.36,40,40,0,0,1-45.52,61.49,40,40,0,0,1-1.39-74.86,5,5,0,0,0,3.07-3.21l.48-1.68a4.76,4.76,0,0,0-3.27-5.88l-88.19-25.12-25.12,88.19a17.17,17.17,0,0,1-21.2,11.8l-1.68-.48a17.32,17.32,0,0,1-11.33-10.41,27.6,27.6,0,0,0-51.65.93,27.6,27.6,0,0,0,42.42,31.43,17.33,17.33,0,0,1,15.13-2.88l1.68.48a17.15,17.15,0,0,1,11.8,21.19l-26,91.21,91.21,26a4.77,4.77,0,0,0,5.88-3.27l.47-1.68a5,5,0,0,0-.92-4.35,39.75,39.75,0,0,1-6.32-34.76,40.16,40.16,0,0,1,20.11-24.58A39.74,39.74,0,0,1,1446.19,1687Z"/><path class="cls-4" d="M1925.82,1375.29a40,40,0,0,1-30.44-66.07,5,5,0,0,0,1.23-4.26l-.36-1.71a4.76,4.76,0,0,0-5.62-3.69l-101.91,21.22-21.22-101.91a17.16,17.16,0,0,1,13.3-20.29l1.71-.36a17.3,17.3,0,0,1,14.87,4,27.59,27.59,0,0,0,45.31-24.8,27.59,27.59,0,0,0-52.16-8.14,17.32,17.32,0,0,1-12.06,9.58l-1.71.35a17.16,17.16,0,0,1-20.29-13.29l-21.86-105,105-21.86a4.76,4.76,0,0,0,3.69-5.62l-.36-1.71a5,5,0,0,0-2.84-3.44,39.73,39.73,0,0,1-21.73-27.85,40.14,40.14,0,0,1,6.4-31.1,39.69,39.69,0,0,1,27.1-16.64,40,40,0,0,1,36,65.66,5,5,0,0,0-1.22,4.27l.35,1.71a4.74,4.74,0,0,0,5.63,3.68l101.91-21.21,21.22,101.9a17.18,17.18,0,0,1-13.3,20.3l-1.71.35a17.27,17.27,0,0,1-14.87-4A27.6,27.6,0,1,0,1952,1168.9a27.61,27.61,0,0,0,40.68-10.59,17.31,17.31,0,0,1,12.06-9.57l1.71-.36a17.18,17.18,0,0,1,20.29,13.3l21.86,105-105,21.86a4.75,4.75,0,0,0-3.68,5.62l.35,1.71a5,5,0,0,0,2.85,3.43,39.75,39.75,0,0,1,21.73,27.85,40.17,40.17,0,0,1-6.4,31.11,39.71,39.71,0,0,1-27.1,16.64A38.68,38.68,0,0,1,1925.82,1375.29Zm-34.19-88.23a17.16,17.16,0,0,1,16.76,13.66l.36,1.71a17.3,17.3,0,0,1-4,14.87,27.59,27.59,0,0,0,24.8,45.31,27.59,27.59,0,0,0,8.14-52.16,17.37,17.37,0,0,1-9.58-12.07l-.35-1.7a17.17,17.17,0,0,1,13.3-20.29l92.84-19.34-19.33-92.84a4.76,4.76,0,0,0-5.62-3.69l-1.71.36a5,5,0,0,0-3.43,2.84,39.75,39.75,0,0,1-27.85,21.73,40.17,40.17,0,0,1-31.11-6.4,39.69,39.69,0,0,1-16.64-27.1,40,40,0,0,1,65.66-36,5,5,0,0,0,4.27,1.22l1.71-.35a4.76,4.76,0,0,0,3.69-5.63l-18.7-89.77-89.76,18.69a17.16,17.16,0,0,1-20.3-13.29l-.35-1.71a17.33,17.33,0,0,1,4-14.88,27.59,27.59,0,1,0-43.52-33.83,27.6,27.6,0,0,0,10.58,40.69,17.31,17.31,0,0,1,9.57,12.06l.36,1.71a17.17,17.17,0,0,1-13.3,20.29l-92.85,19.33,19.34,92.85a4.75,4.75,0,0,0,5.62,3.68l1.71-.35a5,5,0,0,0,3.43-2.84,39.74,39.74,0,0,1,27.85-21.74,40.17,40.17,0,0,1,31.11,6.4,39.71,39.71,0,0,1,16.64,27.11,40,40,0,0,1-65.67,36,5,5,0,0,0-4.26-1.23l-1.72.36a4.76,4.76,0,0,0-3.68,5.62l18.69,89.77,89.77-18.69A17.7,17.7,0,0,1,1891.63,1287.06Z"/><path class="cls-4" d="M1963.34,2088.18l-59.26-89.38a4.76,4.76,0,0,0-6.58-1.34l-1.46,1a5,5,0,0,0-2.13,3.91,39.75,39.75,0,0,1-17.8,30.52,40.15,40.15,0,0,1-31.26,5.59,39.65,39.65,0,0,1-25.51-19,40,40,0,0,1,47.63-57.78,5,5,0,0,0,4.41-.44l1.46-1a4.76,4.76,0,0,0,1.33-6.59l-57.51-86.76,86.76-57.52a17.17,17.17,0,0,1,23.78,4.82l1,1.46A17.32,17.32,0,0,1,1930,1831a27.59,27.59,0,0,0,39.84,32.87,27.59,27.59,0,0,0-11.8-51.45,17.38,17.38,0,0,1-13.37-7.65l-1-1.46a17.17,17.17,0,0,1,4.82-23.77l89.38-59.26,59.25,89.38a4.74,4.74,0,0,0,6.59,1.34l1.46-1a5,5,0,0,0,2.13-3.92,40,40,0,0,1,74.57-17.12,40,40,0,0,1-47.63,57.78,5,5,0,0,0-4.41.45l-1.46,1a4.77,4.77,0,0,0-1.34,6.59l57.52,86.76L2097.84,1999a17.18,17.18,0,0,1-23.78-4.82l-1-1.46a17.27,17.27,0,0,1-1.85-15.27,27.59,27.59,0,0,0-39.84-32.88,27.6,27.6,0,0,0,11.8,51.46,17.3,17.3,0,0,1,13.36,7.65l1,1.46a17.16,17.16,0,0,1-4.82,23.77Zm-63.25-103.9a17.14,17.14,0,0,1,14.33,7.67l52.4,79,79-52.41a4.75,4.75,0,0,0,1.33-6.59l-1-1.45a5,5,0,0,0-3.91-2.13,39.75,39.75,0,0,1-30.52-17.8,40.15,40.15,0,0,1-5.59-31.26,39.62,39.62,0,0,1,19-25.51,40,40,0,0,1,57.78,47.63,5,5,0,0,0,.44,4.41l1,1.46a4.76,4.76,0,0,0,6.59,1.33l76.42-50.66-50.66-76.43a17.16,17.16,0,0,1,4.82-23.77l1.45-1a17.32,17.32,0,0,1,15.28-1.84,27.6,27.6,0,0,0,32.88-39.85,27.6,27.6,0,0,0-51.46,11.8,17.33,17.33,0,0,1-7.65,13.37l-1.45,1a17.15,17.15,0,0,1-23.78-4.81l-52.4-79-79,52.4a4.76,4.76,0,0,0-1.33,6.59l1,1.45a5,5,0,0,0,3.91,2.14,39.74,39.74,0,0,1,30.52,17.79,40.18,40.18,0,0,1,5.59,31.27,39.67,39.67,0,0,1-19,25.51,40,40,0,0,1-57.78-47.63,5,5,0,0,0-.44-4.42l-1-1.46a4.75,4.75,0,0,0-6.59-1.33l-76.42,50.66,50.66,76.43a17.18,17.18,0,0,1-4.82,23.78l-1.46,1a17.3,17.3,0,0,1-15.27,1.85,27.59,27.59,0,0,0-32.88,39.84,27.6,27.6,0,0,0,51.46-11.8,17.32,17.32,0,0,1,7.65-13.37l1.46-1A17,17,0,0,1,1900.09,1984.28Z"/></g><g id="Object"><circle class="cls-6" cx="734.58" cy="939.79" r="298.65"/><polygon class="cls-6" points="679.28 641.14 734.58 641.14 794.5 658.66 686.19 681.7 679.28 641.14"/><polygon class="cls-6" points="679.28 1238.44 734.58 1238.44 801.41 1222.08 732.28 1188.09 679.28 1238.44"/><circle class="cls-7" cx="679.28" cy="939.79" r="298.65"/><circle class="cls-8" cx="679.28" cy="939.79" r="223.99"/><circle class="cls-7" cx="679.28" cy="939.79" r="149.32" transform="translate(-465.58 755.58) rotate(-45)"/><circle class="cls-8" cx="679.28" cy="939.79" r="74.66"/><circle class="cls-7" cx="679.28" cy="939.79" r="36.87"/><path class="cls-9" d="M682.35,952.64a11.82,11.82,0,0,1-8,1.38l-404-72.64A11.88,11.88,0,0,1,274.51,858l404,72.65a11.88,11.88,0,0,1,3.8,22Z"/><polygon class="cls-10" points="431.97 889.24 381.6 818.46 241.85 794.92 293.04 866.85 431.97 889.24"/><polygon class="cls-10" points="429.85 906.09 359.08 956.45 219.32 932.91 291.26 881.72 429.85 906.09"/><path class="cls-11" d="M1900.93,2197.59l-17,36.37a42.49,42.49,0,0,1-38.65,24.41h-.11l-62.59-.65V2202l89.91.93A74.27,74.27,0,0,0,1900.93,2197.59Z"/><path class="cls-12" d="M2007.6,1872.62l-1.92,190.68a74.77,74.77,0,0,1-18.63,48.64l-57.51,65.5a75.09,75.09,0,0,1-57,25.46l-89.91-.93V1870.34Z"/><path class="cls-11" d="M2023.19,1980.86a16.81,16.81,0,0,1-16.76,14.54,14.16,14.16,0,0,1-2.15-.17l-221.69-30v-33.87l226.18,30.6A16.79,16.79,0,0,1,2023.19,1980.86Z"/><path class="cls-11" d="M2022.72,2027.45a16.84,16.84,0,0,1-16.75,14.6,14.29,14.29,0,0,1-2.16-.17l-221.22-30V1978l225.71,30.6A16.76,16.76,0,0,1,2022.72,2027.45Z"/><path class="cls-11" d="M2022.26,2074.1a16.85,16.85,0,0,1-16.76,14.54c-.7,0-1.46-.06-2.16-.12l-220.75-29.89v-33.92l225.25,30.48A16.86,16.86,0,0,1,2022.26,2074.1Z"/><path class="cls-11" d="M2000.48,2117.83a16.81,16.81,0,0,1-16.76,14.6,13.68,13.68,0,0,1-2.16-.18l-199-26.91v-33.92L1986.06,2099A16.77,16.77,0,0,1,2000.48,2117.83Z"/><path class="cls-11" d="M1782.59,2202v55.75l-73.22-.76a42.51,42.51,0,0,1-38.3-25.16l-16.23-36.66a74.87,74.87,0,0,0,28.32,5.83Z"/><path class="cls-12" d="M1782.59,1870.34V2202l-99.43-1a74.57,74.57,0,0,1-56.52-26.62l-56.16-66.68a74.84,74.84,0,0,1-17.64-49l2-190.68Z"/><path class="cls-11" d="M1782.59,1931.35v33.87L1552,1934a16.79,16.79,0,1,1,4.55-33.28Z"/><path class="cls-11" d="M1782.59,1978v33.92l-231-31.23a16.82,16.82,0,0,1,4.55-33.34Z"/><path class="cls-11" d="M1782.59,2024.71v33.92l-231.5-31.35a16.79,16.79,0,0,1,4.5-33.28Z"/><path class="cls-11" d="M1782.59,2071.42v33.92l-232-31.41a16.79,16.79,0,1,1,4.5-33.28Z"/><path class="cls-13" d="M907.82,1739.91h-36a49.79,49.79,0,0,1-40,48.82,48.73,48.73,0,0,1-9.73,1l-1.51,0-12.27,404.45-.25,8.32h98.22l1-8.3,35.09-294.9,19-159.3Z"/><path class="cls-14" d="M961.26,1739.91h36c0,23.08,14.56,42.5,40.37,48.13a75.08,75.08,0,0,0,16,1.65l53.32,404.4,1.11,8.32H1007.94l-1.8-8.32-63.85-294.88Z"/><path class="cls-15" d="M938.56,2241.77s-13.26,6.45-8.82,20.21H959a17.64,17.64,0,0,0-8.54-13.11C945.77,2246.13,941.94,2243.84,938.56,2241.77Z"/><path class="cls-15" d="M808,2222.82v20.61c26.77-.34,23.84-24.09,23.84-24.09-10.72-.69-17.12-1.6-18.25-1.78a.88.88,0,0,1-.19,0h-.12A5.28,5.28,0,0,0,808,2222.82Z"/><path class="cls-16" d="M907.1,2222c-2.17-1.37-4.52-2.86-7.09-4.47,0,0-2.55.35-7.1.82-7.55.75-20.6,1.74-36.35,1.74-1.33,0-2.64,0-3.9,0-8.09-.06-15.09-.35-20.83-.71,0,0,2.93,23.75-23.84,24.09V2262H929.74c-4.44-13.76,8.82-20.21,8.82-20.21-7.11-4.31-12.38-7.65-19.55-12.2C915.61,2227.4,911.78,2225,907.1,2222Z"/><path class="cls-6" d="M808,2262v.67a6.68,6.68,0,0,0,6.67,6.69H953.83a5.2,5.2,0,0,0,3.72-1.55,5.27,5.27,0,0,0,1.54-3.72A18.18,18.18,0,0,0,959,2262H808Z"/><path class="cls-17" d="M813.39,2202.41v15.12l.19,0c2.06.23,20.67,2.24,39.08,2.49,1.26,0,2.57,0,3.9,0,15.75,0,28.8-1,36.35-1.74,4.37-.47,6.82-.82,6.82-.82v-15.12H813.39Z"/><path class="cls-15" d="M895.14,2235.06a.74.74,0,0,1-.55-.23.78.78,0,0,1,0-1.12l12-12.26a.8.8,0,1,1,1.14,1.11l-11.95,12.26A.82.82,0,0,1,895.14,2235.06Z"/><path class="cls-15" d="M901.12,2239.13a.75.75,0,0,1-.56-.23.78.78,0,0,1,0-1.12l12-12.27a.8.8,0,0,1,1.14,1.12l-12,12.26A.81.81,0,0,1,901.12,2239.13Z"/><path class="cls-15" d="M907.1,2242.57a.82.82,0,0,1-.56-.23.8.8,0,0,1,0-1.13l11.91-12.2a.8.8,0,0,1,1.11-.15.82.82,0,0,1,.15,1.13l-.05.06-12,12.28A.82.82,0,0,1,907.1,2242.57Z"/><path class="cls-15" d="M1140.59,2241.77s-13.26,6.45-8.82,20.21H1161a17.64,17.64,0,0,0-8.54-13.11C1147.8,2246.13,1144,2243.84,1140.59,2241.77Z"/><path class="cls-15" d="M1010,2222.82v20.61c26.77-.34,23.84-24.09,23.84-24.09-10.72-.69-17.12-1.6-18.25-1.78a.88.88,0,0,1-.19,0h-.12A5.28,5.28,0,0,0,1010,2222.82Z"/><path class="cls-16" d="M1109.13,2222c-2.17-1.37-4.51-2.86-7.08-4.47,0,0-2.56.35-7.11.82-7.55.75-20.6,1.74-36.35,1.74-1.33,0-2.64,0-3.9,0-8.09-.06-15.09-.35-20.83-.71,0,0,2.93,23.75-23.84,24.09V2262h121.75c-4.44-13.76,8.82-20.21,8.82-20.21-7.11-4.31-12.38-7.65-19.55-12.2C1117.64,2227.4,1113.81,2225,1109.13,2222Z"/><path class="cls-6" d="M1010,2262v.67a6.69,6.69,0,0,0,6.67,6.69h139.17a5.2,5.2,0,0,0,3.72-1.55,5.27,5.27,0,0,0,1.54-3.72,18.18,18.18,0,0,0-.13-2.09H1010Z"/><path class="cls-17" d="M1015.42,2202.41v15.12l.19,0c2.06.23,20.67,2.24,39.08,2.49,1.26,0,2.57,0,3.9,0,15.75,0,28.8-1,36.35-1.74,4.37-.47,6.82-.82,6.82-.82v-15.12h-86.34Z"/><path class="cls-15" d="M1097.17,2235.06a.74.74,0,0,1-.55-.23.79.79,0,0,1,0-1.12l12-12.26a.79.79,0,0,1,1.13,0,.8.8,0,0,1,0,1.13l-12,12.26A.82.82,0,0,1,1097.17,2235.06Z"/><path class="cls-15" d="M1103.15,2239.13a.76.76,0,0,1-.56-.23.78.78,0,0,1,0-1.12l12-12.27a.8.8,0,0,1,1.14,1.12l-12,12.26A.81.81,0,0,1,1103.15,2239.13Z"/><path class="cls-15" d="M1109.13,2242.57a.78.78,0,0,1-.55-.23.79.79,0,0,1,0-1.13l11.91-12.2a.8.8,0,0,1,1.11-.15.82.82,0,0,1,.15,1.13l0,.06-12,12.28A.82.82,0,0,1,1109.13,2242.57Z"/><polygon class="cls-18" points="961.26 1739.91 955.13 1958.53 942.29 1899.21 961.26 1739.91"/><path class="cls-18" d="M822,1739.91l-1.51,49.73,1.51,0a48.73,48.73,0,0,0,9.73-1,49.79,49.79,0,0,0,40-48.82Z"/><path class="cls-18" d="M1047.06,1739.91H997.28c0,23.08,14.56,42.5,40.37,48.13a75.08,75.08,0,0,0,16,1.65Z"/><path class="cls-9" d="M820.51,1790.44a66,66,0,0,0,11.39-.93,50.65,50.65,0,0,0,40.7-49.6.8.8,0,1,0-1.6,0,49,49,0,0,1-39.41,48,64.49,64.49,0,0,1-11.08.9.8.8,0,0,0,0,1.6Z"/><path class="cls-9" d="M1038,1791.21h.11a.8.8,0,0,0,.68-.9l-.35-2.37a.79.79,0,0,0-.9-.68.81.81,0,0,0-.68.91l.35,2.37A.79.79,0,0,0,1038,1791.21Z"/><path class="cls-9" d="M1095.79,2195.45l-.68-4.71a.81.81,0,0,1,.68-.91.79.79,0,0,1,.9.68l.69,4.71a.79.79,0,0,1-.68.9h-.12A.8.8,0,0,1,1095.79,2195.45Zm-1.36-9.42-.68-4.71a.8.8,0,0,1,1.58-.23l.68,4.71a.8.8,0,0,1-.67.91h-.12A.8.8,0,0,1,1094.43,2186Zm-1.36-9.42-.68-4.71a.8.8,0,1,1,1.58-.22l.68,4.7a.8.8,0,0,1-.67.91h-.12A.8.8,0,0,1,1093.07,2176.61Zm-1.36-9.41-.68-4.71a.8.8,0,0,1,.67-.91.83.83,0,0,1,.91.68l.68,4.71a.79.79,0,0,1-.68.9h-.11A.8.8,0,0,1,1091.71,2167.2Zm-1.36-9.42-.69-4.71a.8.8,0,0,1,1.58-.23l.69,4.71a.81.81,0,0,1-.68.91h-.11A.78.78,0,0,1,1090.35,2157.78Zm-1.37-9.42-.68-4.71a.8.8,0,1,1,1.58-.22l.68,4.7a.8.8,0,0,1-.67.91h-.12A.8.8,0,0,1,1089,2148.36Zm-1.36-9.41-.68-4.71a.8.8,0,1,1,1.58-.23l.68,4.71a.8.8,0,0,1-.67.9h-.12A.8.8,0,0,1,1087.62,2139Zm-1.36-9.42-.68-4.71a.79.79,0,0,1,.67-.9.81.81,0,0,1,.91.67l.68,4.71a.81.81,0,0,1-.68.91h-.11A.8.8,0,0,1,1086.26,2129.53Zm-1.36-9.42-.69-4.71a.8.8,0,1,1,1.58-.22l.69,4.7a.8.8,0,0,1-.68.91h-.12A.79.79,0,0,1,1084.9,2120.11Zm-1.37-9.41-.68-4.71a.8.8,0,1,1,1.58-.23l.68,4.71a.79.79,0,0,1-.67.9h-.12A.8.8,0,0,1,1083.53,2110.7Zm-1.36-9.42-.68-4.71a.79.79,0,0,1,.67-.9.78.78,0,0,1,.91.67l.68,4.71a.79.79,0,0,1-.67.9H1083A.8.8,0,0,1,1082.17,2101.28Zm-1.36-9.42-.68-4.71a.8.8,0,1,1,1.58-.22l.68,4.7a.8.8,0,0,1-.68.91h-.11A.8.8,0,0,1,1080.81,2091.86Zm-1.36-9.41-.69-4.71a.81.81,0,0,1,.68-.91.78.78,0,0,1,.9.68l.68,4.71a.78.78,0,0,1-.67.9h-.12A.79.79,0,0,1,1079.45,2082.45Zm-1.37-9.42-.68-4.71a.79.79,0,0,1,.68-.9.78.78,0,0,1,.9.67l.68,4.71a.79.79,0,0,1-.67.9h-.12A.8.8,0,0,1,1078.08,2073Zm-1.36-9.42-.68-4.71a.8.8,0,0,1,.67-.9.79.79,0,0,1,.91.68l.68,4.7a.81.81,0,0,1-.68.91h-.11A.8.8,0,0,1,1076.72,2063.61Zm-1.36-9.41-.68-4.71a.8.8,0,1,1,1.58-.23l.68,4.71a.8.8,0,0,1-.68.9h-.11A.8.8,0,0,1,1075.36,2054.2Zm-1.36-9.42-.69-4.71a.79.79,0,0,1,.68-.9.77.77,0,0,1,.9.67l.69,4.71a.79.79,0,0,1-.68.9h-.12A.78.78,0,0,1,1074,2044.78Zm-1.37-9.42-.68-4.71a.8.8,0,0,1,1.58-.23l.68,4.71a.8.8,0,0,1-.67.91h-.12A.8.8,0,0,1,1072.63,2035.36Zm-1.36-9.41-.68-4.71a.81.81,0,0,1,.67-.91.8.8,0,0,1,.91.68l.68,4.71a.8.8,0,0,1-.68.9h-.11A.8.8,0,0,1,1071.27,2026Zm-1.36-9.42-.68-4.71a.8.8,0,0,1,1.58-.23l.68,4.71a.79.79,0,0,1-.68.9h-.11A.79.79,0,0,1,1069.91,2016.53Zm-1.37-9.42-.68-4.71a.8.8,0,0,1,.68-.9.78.78,0,0,1,.9.67l.68,4.71a.79.79,0,0,1-.67.91h-.12A.8.8,0,0,1,1068.54,2007.11Zm-1.36-9.41-.68-4.71a.81.81,0,0,1,.68-.91.8.8,0,0,1,.9.68l.68,4.71a.8.8,0,0,1-.67.9H1068A.8.8,0,0,1,1067.18,1997.7Zm-1.36-9.42-.68-4.71a.79.79,0,0,1,.67-.9.78.78,0,0,1,.91.67l.68,4.71a.79.79,0,0,1-.68.9h-.11A.8.8,0,0,1,1065.82,1988.28Zm-1.36-9.42-.68-4.71a.79.79,0,0,1,.67-.9.8.8,0,0,1,.91.67l.68,4.71a.81.81,0,0,1-.68.91h-.11A.8.8,0,0,1,1064.46,1978.86Zm-1.36-9.41-.69-4.71a.81.81,0,0,1,.68-.91.79.79,0,0,1,.9.68l.68,4.71a.78.78,0,0,1-.67.9h-.12A.79.79,0,0,1,1063.1,1969.45Zm-1.37-9.42-.68-4.71a.79.79,0,0,1,.68-.9.78.78,0,0,1,.9.67l.68,4.71a.79.79,0,0,1-.67.9h-.12A.8.8,0,0,1,1061.73,1960Zm-1.36-9.42-.68-4.71a.8.8,0,0,1,.67-.9.79.79,0,0,1,.91.67l.68,4.71a.81.81,0,0,1-.68.91h-.11A.8.8,0,0,1,1060.37,1950.61Zm-1.36-9.42-.68-4.7a.8.8,0,1,1,1.58-.23l.68,4.71a.8.8,0,0,1-.68.9h-.11A.8.8,0,0,1,1059,1941.19Zm-1.36-9.41-.69-4.71a.79.79,0,0,1,.68-.9.77.77,0,0,1,.9.67l.68,4.71a.78.78,0,0,1-.67.9h-.12A.78.78,0,0,1,1057.65,1931.78Zm-1.37-9.42-.68-4.71a.8.8,0,0,1,.68-.9.79.79,0,0,1,.9.67l.68,4.71a.81.81,0,0,1-.67.91h-.12A.8.8,0,0,1,1056.28,1922.36Zm-1.36-9.42-.68-4.7a.81.81,0,0,1,.67-.91.78.78,0,0,1,.91.68l.68,4.71a.8.8,0,0,1-.68.9h-.11A.8.8,0,0,1,1054.92,1912.94Zm-1.36-9.41-.68-4.71a.79.79,0,1,1,1.57-.23l.69,4.71a.79.79,0,0,1-.68.9h-.11A.79.79,0,0,1,1053.56,1903.53Zm-1.37-9.42-.68-4.71a.8.8,0,0,1,.68-.9.78.78,0,0,1,.9.67l.68,4.71a.8.8,0,0,1-.67.91H1053A.8.8,0,0,1,1052.19,1894.11Zm-1.36-9.42-.68-4.7a.8.8,0,1,1,1.58-.23l.68,4.71a.8.8,0,0,1-.67.9h-.12A.8.8,0,0,1,1050.83,1884.69Zm-1.36-9.41-.68-4.71a.79.79,0,0,1,.67-.9.78.78,0,0,1,.91.67l.68,4.71a.79.79,0,0,1-.68.9h-.11A.8.8,0,0,1,1049.47,1875.28Zm-1.36-9.42-.68-4.71a.78.78,0,0,1,.67-.9.8.8,0,0,1,.91.67l.68,4.71a.81.81,0,0,1-.68.91h-.11A.79.79,0,0,1,1048.11,1865.86Zm-1.37-9.42-.68-4.7a.81.81,0,0,1,.68-.91.79.79,0,0,1,.9.68l.68,4.7a.8.8,0,0,1-.67.91h-.12A.8.8,0,0,1,1046.74,1856.44Zm-1.36-9.41-.68-4.71a.81.81,0,0,1,.68-.91.79.79,0,0,1,.9.68l.68,4.71a.79.79,0,0,1-.67.9h-.12A.8.8,0,0,1,1045.38,1847Zm-1.36-9.42-.68-4.71a.8.8,0,0,1,1.58-.23l.68,4.71a.81.81,0,0,1-.68.91h-.11A.8.8,0,0,1,1044,1837.61Zm-1.36-9.42-.68-4.71a.79.79,0,0,1,.67-.9.81.81,0,0,1,.91.68l.68,4.7a.8.8,0,0,1-.68.91h-.11A.79.79,0,0,1,1042.66,1828.19Zm-1.37-9.41-.68-4.71a.81.81,0,0,1,.68-.91.79.79,0,0,1,.9.68l.68,4.71a.79.79,0,0,1-.67.9h-.12A.8.8,0,0,1,1041.29,1818.78Zm-1.36-9.42-.68-4.71a.8.8,0,0,1,.68-.9.79.79,0,0,1,.9.67l.68,4.71a.81.81,0,0,1-.67.91h-.12A.8.8,0,0,1,1039.93,1809.36Zm-1.36-9.42-.68-4.7a.8.8,0,1,1,1.58-.23l.68,4.71a.8.8,0,0,1-.68.9h-.11A.8.8,0,0,1,1038.57,1799.94Z"/><path class="cls-9" d="M1097.6,2203.21h.12a.79.79,0,0,0,.67-.9l-.34-2.37a.8.8,0,1,0-1.58.23l.34,2.37A.8.8,0,0,0,1097.6,2203.21Z"/><path class="cls-9" d="M1005.34,2194.09a.79.79,0,0,1,.8-.79h4.79a.79.79,0,0,1,.8.79.8.8,0,0,1-.8.8h-4.79A.8.8,0,0,1,1005.34,2194.09Zm9.58,0a.79.79,0,0,1,.8-.79h4.79a.79.79,0,0,1,.79.79.79.79,0,0,1-.79.8h-4.79A.8.8,0,0,1,1014.92,2194.09Zm9.58,0a.79.79,0,0,1,.8-.79h4.79a.79.79,0,0,1,.79.79.79.79,0,0,1-.79.8h-4.79A.8.8,0,0,1,1024.5,2194.09Zm9.58,0a.79.79,0,0,1,.8-.79h4.79a.79.79,0,0,1,.79.79.79.79,0,0,1-.79.8h-4.79A.8.8,0,0,1,1034.08,2194.09Zm9.58,0a.79.79,0,0,1,.79-.79h4.79a.79.79,0,0,1,.8.79.8.8,0,0,1-.8.8h-4.79A.79.79,0,0,1,1043.66,2194.09Zm9.58,0a.79.79,0,0,1,.79-.79h4.79a.79.79,0,0,1,.8.79.8.8,0,0,1-.8.8H1054A.79.79,0,0,1,1053.24,2194.09Zm9.58,0a.79.79,0,0,1,.79-.79h4.79a.79.79,0,0,1,.8.79.8.8,0,0,1-.8.8h-4.79A.79.79,0,0,1,1062.82,2194.09Zm9.57,0a.79.79,0,0,1,.8-.79H1078a.79.79,0,0,1,.8.79.8.8,0,0,1-.8.8h-4.79A.8.8,0,0,1,1072.39,2194.09Zm9.58,0a.79.79,0,0,1,.8-.79h4.79a.79.79,0,0,1,.8.79.8.8,0,0,1-.8.8h-4.79A.8.8,0,0,1,1082,2194.09Zm9.58,0a.79.79,0,0,1,.8-.79h4.79a.79.79,0,0,1,.8.79.8.8,0,0,1-.8.8h-4.79A.8.8,0,0,1,1091.55,2194.09Zm9.58,0a.79.79,0,0,1,.8-.79h4.79a.79.79,0,0,1,.8.79.8.8,0,0,1-.8.8h-4.79A.8.8,0,0,1,1101.13,2194.09Z"/><path class="cls-9" d="M819.92,2203.21a.79.79,0,0,1-.77-.82l.05-1.94a.85.85,0,0,1,.83-.78.8.8,0,0,1,.77.83l0,1.93a.8.8,0,0,1-.8.78Zm.2-6.73a.8.8,0,0,1-.78-.82l.14-4.79a.8.8,0,0,1,1.6.05l-.14,4.79a.8.8,0,0,1-.8.77Zm.27-9.57a.79.79,0,0,1-.77-.82l.13-4.79a.83.83,0,0,1,.82-.78.81.81,0,0,1,.78.82l-.14,4.79a.8.8,0,0,1-.8.78Zm.27-9.58a.79.79,0,0,1-.77-.82l.14-4.79a.8.8,0,0,1,1.59.05l-.13,4.79a.8.8,0,0,1-.8.77Zm.28-9.57a.81.81,0,0,1-.78-.83l.14-4.78a.8.8,0,0,1,1.6,0l-.14,4.79a.81.81,0,0,1-.8.78Zm.27-9.58a.79.79,0,0,1-.77-.82l.13-4.79a.81.81,0,0,1,.82-.77.8.8,0,0,1,.78.82l-.14,4.79a.8.8,0,0,1-.8.77Zm.27-9.57a.8.8,0,0,1-.77-.83l.13-4.78a.81.81,0,0,1,.83-.78.79.79,0,0,1,.77.82l-.14,4.79a.8.8,0,0,1-.79.78Zm.28-9.58a.8.8,0,0,1-.78-.82l.14-4.79a.8.8,0,1,1,1.59,0l-.13,4.78a.8.8,0,0,1-.8.78Zm.27-9.58a.8.8,0,0,1-.78-.82l.14-4.78a.79.79,0,0,1,.82-.78.8.8,0,0,1,.78.82l-.14,4.79a.8.8,0,0,1-.8.77Zm.27-9.57a.79.79,0,0,1-.77-.82l.13-4.79a.83.83,0,0,1,.82-.77.8.8,0,0,1,.78.82l-.14,4.78a.79.79,0,0,1-.79.78Zm.28-9.58a.8.8,0,0,1-.78-.82l.14-4.79a.8.8,0,1,1,1.59,0l-.13,4.79a.8.8,0,0,1-.8.77Zm.27-9.57a.8.8,0,0,1-.78-.82l.14-4.79a.78.78,0,0,1,.82-.78.81.81,0,0,1,.78.82l-.14,4.79a.8.8,0,0,1-.8.78Zm.27-9.58a.79.79,0,0,1-.77-.82l.13-4.79a.8.8,0,0,1,1.6.05l-.14,4.79a.79.79,0,0,1-.79.77Zm.28-9.57a.8.8,0,0,1-.78-.82l.14-4.79a.85.85,0,0,1,.82-.78.8.8,0,0,1,.77.82l-.13,4.79a.8.8,0,0,1-.8.78Zm.27-9.58a.8.8,0,0,1-.78-.82l.14-4.79a.8.8,0,0,1,1.6.05l-.14,4.79a.8.8,0,0,1-.8.77Zm.27-9.57a.79.79,0,0,1-.77-.82l.13-4.79a.8.8,0,0,1,1.6,0l-.14,4.79a.81.81,0,0,1-.8.78Zm.27-9.58a.79.79,0,0,1-.77-.82l.14-4.79a.8.8,0,0,1,1.59,0l-.13,4.79a.8.8,0,0,1-.8.77Zm.28-9.57a.81.81,0,0,1-.78-.82l.14-4.79a.8.8,0,1,1,1.59,0l-.13,4.79a.81.81,0,0,1-.8.78Zm.27-9.58a.8.8,0,0,1-.78-.82l.14-4.79a.82.82,0,0,1,.82-.77.8.8,0,0,1,.78.82l-.14,4.78a.8.8,0,0,1-.8.78Zm.27-9.57a.81.81,0,0,1-.77-.83l.13-4.78a.82.82,0,0,1,.83-.78.79.79,0,0,1,.77.82l-.14,4.79a.8.8,0,0,1-.79.78Zm.28-9.58a.8.8,0,0,1-.78-.82l.14-4.79a.8.8,0,0,1,.82-.77.79.79,0,0,1,.77.82l-.13,4.78a.8.8,0,0,1-.8.78Zm.27-9.58a.8.8,0,0,1-.78-.82l.14-4.78a.77.77,0,0,1,.82-.78.8.8,0,0,1,.78.82l-.14,4.79a.8.8,0,0,1-.8.77Zm.27-9.57a.79.79,0,0,1-.77-.82l.13-4.79a.8.8,0,1,1,1.6,0l-.14,4.78a.79.79,0,0,1-.79.78Zm.28-9.58a.8.8,0,0,1-.78-.82l.14-4.79a.8.8,0,0,1,.82-.77.79.79,0,0,1,.77.82l-.13,4.79a.8.8,0,0,1-.8.77Zm.27-9.57a.81.81,0,0,1-.78-.82l.14-4.79a.8.8,0,0,1,1.6,0l-.14,4.79a.8.8,0,0,1-.8.78Zm.27-9.58a.79.79,0,0,1-.77-.82l.13-4.79a.78.78,0,0,1,.82-.77.8.8,0,0,1,.78.82l-.14,4.79a.79.79,0,0,1-.8.77Zm.27-9.57a.8.8,0,0,1-.77-.82l.14-4.79a.82.82,0,0,1,.82-.78.79.79,0,0,1,.77.82l-.13,4.79a.81.81,0,0,1-.8.78Zm.28-9.58a.8.8,0,0,1-.78-.82l.14-4.79a.81.81,0,0,1,.82-.77.8.8,0,0,1,.78.82l-.14,4.79a.8.8,0,0,1-.8.77Zm.27-9.57a.79.79,0,0,1-.77-.82l.13-4.79a.8.8,0,1,1,1.6,0l-.14,4.79a.81.81,0,0,1-.8.78Zm.27-9.58a.79.79,0,0,1-.77-.82l.13-4.79a.82.82,0,0,1,.83-.77.79.79,0,0,1,.77.82l-.14,4.79a.79.79,0,0,1-.79.77Zm.28-9.57a.81.81,0,0,1-.78-.83l.14-4.78a.82.82,0,0,1,.82-.78.79.79,0,0,1,.77.82l-.13,4.79a.81.81,0,0,1-.8.78Zm.27-9.58a.8.8,0,0,1-.78-.82l.14-4.79a.79.79,0,0,1,.82-.77.8.8,0,0,1,.78.82l-.14,4.78a.8.8,0,0,1-.8.78Zm.27-9.58a.79.79,0,0,1-.77-.82l.13-4.78a.82.82,0,0,1,.82-.78.8.8,0,0,1,.78.82l-.14,4.79a.79.79,0,0,1-.79.77Zm.28-9.57a.8.8,0,0,1-.78-.82l.14-4.79a.8.8,0,1,1,1.59,0l-.13,4.78a.8.8,0,0,1-.8.78Zm.27-9.58a.8.8,0,0,1-.78-.82l.14-4.79a.8.8,0,0,1,1.6,0l-.14,4.79a.8.8,0,0,1-.8.77Zm.27-9.57a.79.79,0,0,1-.77-.82l.13-4.79a.83.83,0,0,1,.82-.78.81.81,0,0,1,.78.82l-.14,4.79a.79.79,0,0,1-.79.78Zm.28-9.58a.8.8,0,0,1-.78-.82l.14-4.79a.81.81,0,0,1,.82-.77.79.79,0,0,1,.77.82l-.13,4.79a.8.8,0,0,1-.8.77Zm.27-9.57a.81.81,0,0,1-.78-.82l.14-4.79a.8.8,0,1,1,1.6,0l-.14,4.79a.8.8,0,0,1-.8.78Zm.27-9.58a.79.79,0,0,1-.77-.82l.13-4.79a.81.81,0,0,1,.82-.77.8.8,0,0,1,.78.82l-.14,4.79a.79.79,0,0,1-.79.77Zm.27-9.57a.8.8,0,0,1-.77-.82l.14-4.79a.82.82,0,0,1,.82-.78.8.8,0,0,1,.77.82l-.13,4.79a.81.81,0,0,1-.8.78Zm.28-9.58a.8.8,0,0,1-.78-.82l.14-4.79a.8.8,0,0,1,1.59,0l-.13,4.79a.8.8,0,0,1-.8.77Zm.27-9.57a.81.81,0,0,1-.78-.83l.14-4.78a.8.8,0,0,1,1.6,0l-.14,4.79a.81.81,0,0,1-.8.78Zm.27-9.58a.79.79,0,0,1-.77-.82l.13-4.79a.8.8,0,0,1,1.6,0l-.14,4.78a.79.79,0,0,1-.79.78Zm.28-9.58a.8.8,0,0,1-.78-.82l.14-4.78a.82.82,0,0,1,.82-.78.79.79,0,0,1,.77.82l-.13,4.79a.8.8,0,0,1-.8.77Z"/><path class="cls-9" d="M807.45,2194.09a.79.79,0,0,1,.79-.79h3.07a.79.79,0,0,1,.8.79.8.8,0,0,1-.8.8h-3.07A.79.79,0,0,1,807.45,2194.09Zm7.85,0a.79.79,0,0,1,.8-.79h4.79a.79.79,0,0,1,.8.79.8.8,0,0,1-.8.8H816.1A.8.8,0,0,1,815.3,2194.09Zm9.58,0a.79.79,0,0,1,.8-.79h4.79a.79.79,0,0,1,.8.79.8.8,0,0,1-.8.8h-4.79A.8.8,0,0,1,824.88,2194.09Zm9.58,0a.79.79,0,0,1,.8-.79h4.79a.79.79,0,0,1,.8.79.8.8,0,0,1-.8.8h-4.79A.8.8,0,0,1,834.46,2194.09Zm9.58,0a.79.79,0,0,1,.8-.79h4.79a.79.79,0,0,1,.8.79.8.8,0,0,1-.8.8h-4.79A.8.8,0,0,1,844,2194.09Zm9.58,0a.79.79,0,0,1,.8-.79h4.79a.79.79,0,0,1,.79.79.79.79,0,0,1-.79.8h-4.79A.8.8,0,0,1,853.62,2194.09Zm9.58,0a.79.79,0,0,1,.8-.79h4.79a.79.79,0,0,1,.79.79.79.79,0,0,1-.79.8H864A.8.8,0,0,1,863.2,2194.09Zm9.58,0a.79.79,0,0,1,.8-.79h4.78a.79.79,0,0,1,.8.79.8.8,0,0,1-.8.8h-4.78A.8.8,0,0,1,872.78,2194.09Zm9.58,0a.79.79,0,0,1,.79-.79h4.79a.79.79,0,0,1,.8.79.8.8,0,0,1-.8.8h-4.79A.79.79,0,0,1,882.36,2194.09Zm9.58,0a.79.79,0,0,1,.79-.79h4.79a.79.79,0,0,1,.8.79.8.8,0,0,1-.8.8h-4.79A.79.79,0,0,1,891.94,2194.09Zm9.57,0a.79.79,0,0,1,.8-.79h4.79a.79.79,0,0,1,.8.79.8.8,0,0,1-.8.8h-4.79A.8.8,0,0,1,901.51,2194.09Z"/><polygon class="cls-19" points="822.01 1739.91 1050.16 1763.42 1047.06 1739.91 822.01 1739.91"/><path class="cls-20" d="M969.81,1467s34.3,1.45,71.72,22.63,58.38,129.76,58.38,129.76l-58.39,25.16Z"/><polygon class="cls-17" points="888.61 1416.58 895.48 1471.67 945.41 1464.02 945.78 1462.6 947.55 1455.72 949.42 1448.56 949.44 1448.48 956.18 1422.51 888.61 1416.58"/><path class="cls-17" d="M884.77,1396.37c1.13,31.43,20.87,60.47,52.29,59.34s55.73-1,61.5-63.43c2.89-31.3-27.52-56-58.94-54.84A56.93,56.93,0,0,0,884.77,1396.37Z"/><path class="cls-18" d="M922.24,1316.71s.7-45.26,68-42.13c62,2.88,65,144.08-46.48,91.52a41.66,41.66,0,0,0-30.95-2,35.9,35.9,0,0,0-4.07,1.59c-6,2.93-5.12,19.66-5.12,19.66s-8-6.3-10.28,4.63,7.91,12.6,7.91,12.6L894.55,1431s-10.68-17.36-18-47.6C869.49,1354.07,893.56,1307.75,922.24,1316.71Z"/><path class="cls-21" d="M944.1,1470.42l3.45-14.7s-36.23,3-49.23-19C898.32,1436.69,898.55,1466.61,944.1,1470.42Z"/><path class="cls-22" d="M817.32,1651.81l-4-70.79c-3.19-56.79-.18-116.21,91-116.15l.35-.06c6.06-1,10.51-1.4,12.62-1.58l1.35-.1c117.61,0,114.45,43.72,117.89,105.38l3.72,66.33,11.86,97.66a11.67,11.67,0,0,1-11.53,13.08l-215.74,1a11.67,11.67,0,0,1-11.71-12.25Z"/><path class="cls-23" d="M917.38,1463.23c-2.11.18-6.56.59-12.62,1.58A108.76,108.76,0,0,1,917.38,1463.23Z"/><path class="cls-21" d="M1050.31,1527.35h0c-4.18-.67-7.84,7.35-7.17,3.17l3.41-28.32a7.72,7.72,0,0,1,8.82-6.38h0a7.72,7.72,0,0,1,6.38,8.82l-2.62,16.33A7.72,7.72,0,0,1,1050.31,1527.35Z"/><path class="cls-24" d="M1480.38,1741.48c-27.76,59.89-123,48.42-136.39-15-5.08-21.9-39.56-27.8-48.47-5.48l-44.2,103c-334.6-132.86-164.74-120.79-198.1-357.28C845.44,947.15,1251.57,509.08,1734.37,698l-173.48,404.41a23.8,23.8,0,0,1-31.21,12.47c-8.4-2.79-15.23-9.25-17.29-18-13.39-63.27-108.68-74.9-136.39-15-34.17,62.65,41.76,133,101.15,97.13,19.37-11.51,47.46,9.47,37.45,31.32l-172.79,402.8a23.76,23.76,0,0,0,12.41,31.18c7.83,4.1,17.2,4.66,25,.11C1438.58,1608.3,1514.52,1679.05,1480.38,1741.48Z"/><rect class="cls-17" x="1042.85" y="1508.76" width="53.9" height="44.52" rx="16.52" transform="translate(-752.33 1120.74) rotate(-42.37)"/><path class="cls-17" d="M1060.38,1519.89h0a7.72,7.72,0,0,1,.5-10.87l12.22-11.14a7.71,7.71,0,0,1,10.87.5h0a7.72,7.72,0,0,1-.5,10.87l-12.22,11.14A7.71,7.71,0,0,1,1060.38,1519.89Z"/><path class="cls-17" d="M1074.55,1519.93h0a7.72,7.72,0,0,1,.5-10.87l12.22-11.14a7.71,7.71,0,0,1,10.87.5h0a7.72,7.72,0,0,1-.5,10.87l-12.22,11.14A7.71,7.71,0,0,1,1074.55,1519.93Z"/><path class="cls-17" d="M1078.11,1529.7h0a7.72,7.72,0,0,1,.5-10.87l12.22-11.14a7.71,7.71,0,0,1,10.87.5h0a7.71,7.71,0,0,1-.5,10.87L1089,1530.2A7.72,7.72,0,0,1,1078.11,1529.7Z"/><path class="cls-17" d="M1077.59,1543.15h0a7.74,7.74,0,0,1,.5-10.88l12.22-11.14a7.72,7.72,0,0,1,10.87.5h0a7.72,7.72,0,0,1-.5,10.88l-12.21,11.14A7.73,7.73,0,0,1,1077.59,1543.15Z"/><rect class="cls-21" x="1063.73" y="1508.04" width="25.05" height="1.6" transform="translate(-753.35 1213.12) rotate(-45.32)"/><rect class="cls-21" x="1078.66" y="1514.47" width="24.53" height="1.6" transform="translate(-753.57 1225.47) rotate(-45.32)"/><rect class="cls-21" x="1081.39" y="1527.45" width="21.08" height="1.6" transform="translate(-762.5 1230.03) rotate(-45.32)"/><path class="cls-20" d="M848.1,1495.17a44.78,44.78,0,0,0-7.74,65.15c7.18,8.47,13.61,15.84,16.6,18.77,2.15,2.18,4.47,4.3,6.71,6.44s4.53,4.24,6.93,6.32,4.7,4.19,7.15,6.23l7.51,6.1c1.22,1,2.54,2,3.89,3l4,3,4,2.94,4.32,2.89,4.33,2.84c.73.46,1.43.94,2.19,1.4l2.38,1.38,4.76,2.73,2.38,1.34,1.19.67,1.88,1c2.64,1.28,5.28,2.57,8,3.58s5.49,1.85,8.26,2.62c2.73.61,5.48,1.14,8.23,1.6s5.33.53,8,.68a90,90,0,0,0,27.82-3.63c2-.62,4.1-1.18,5.94-1.9l5.6-2.12c3.52-1.52,7-3.12,10.21-4.84a149.73,149.73,0,0,0,17.88-11,217.4,217.4,0,0,0,29.17-25.34c4.31-4.53,8.48-9.09,12.42-13.85,2-2.39,3.9-4.78,5.79-7.24l2.8-3.75,2.93-4-31.33-30.92c-.35.14-1,.54-1.49.84l-1.64,1-3.38,2c-2.24,1.37-4.52,2.72-6.8,4-4.58,2.63-9.1,5.26-13.7,7.64a219.24,219.24,0,0,1-26.91,12.4,102.5,102.5,0,0,1-12.46,3.87c-1,.19-2,.51-2.88.62s-1.84.3-2.74.48l-2.51.26c-.86.13-1.53,0-2.29.08-2.87,0-7.08-3.91-7.08-3.91l-2.31-1.92-1.16-.94c-.39-.34-.81-.75-1.21-1.11l-2.42-2.25-2.45-2.2-2.48-2.47c-1.67-1.69-3.31-3.19-5-5-3.4-3.44-18.54-21.26-32.7-38.06a44.77,44.77,0,0,0-60.6-7.33Z"/><path class="cls-17" d="M1153.88,1765.57h0a7.72,7.72,0,0,1,3.78,10.21l-6.92,15a7.72,7.72,0,0,1-10.21,3.77h0a7.72,7.72,0,0,1-3.77-10.22l6.91-15A7.71,7.71,0,0,1,1153.88,1765.57Z"/><path class="cls-17" d="M1144.14,1755h0a7.71,7.71,0,0,1,3.77,10.21l-8.9,19.34a7.71,7.71,0,0,1-10.21,3.77h0a7.72,7.72,0,0,1-3.78-10.21l8.91-19.34A7.72,7.72,0,0,1,1144.14,1755Z"/><path class="cls-17" d="M1131.66,1753.82h0a7.72,7.72,0,0,1,3.77,10.21l-6.92,15a7.72,7.72,0,0,1-10.21,3.77h0a7.72,7.72,0,0,1-3.77-10.21l6.92-15A7.71,7.71,0,0,1,1131.66,1753.82Z"/><path class="cls-17" d="M1119.73,1752.17h0a7.7,7.7,0,0,1,3.77,10.21l-3.06,6.65a7.7,7.7,0,0,1-10.21,3.78h0a7.7,7.7,0,0,1-3.77-10.22l3.06-6.65A7.7,7.7,0,0,1,1119.73,1752.17Z"/><rect class="cls-21" x="1129.21" y="1775.78" width="25.56" height="1.6" transform="translate(-961.5 1965.51) rotate(-62.4)"/><rect class="cls-21" x="1115.47" y="1768.66" width="27.54" height="1.6" transform="translate(-952.81 2036.36) rotate(-64.76)"/><rect class="cls-21" x="1109.14" y="1763.13" width="19.38" height="1.6" transform="translate(-958.47 1983.07) rotate(-63.64)"/><path class="cls-25" d="M2634.24,1735.51h36a49.78,49.78,0,0,0,40.06,48.82,48.55,48.55,0,0,0,9.72,1l1.52,0,12.26,404.46.25,8.32h-98.22l-1-8.31-35.09-294.9-19-159.3Z"/><path class="cls-26" d="M2580.8,1735.51h-36c0,23.09-14.56,42.5-40.38,48.14a75.1,75.1,0,0,1-16,1.64l-53.32,404.41L2434,2198h100.1l1.8-8.32,63.85-294.89Z"/><path class="cls-15" d="M2603.51,2237.37s13.25,6.45,8.81,20.21H2583.1a17.62,17.62,0,0,1,8.54-13.1C2596.29,2241.73,2600.12,2239.45,2603.51,2237.37Z"/><path class="cls-15" d="M2734.07,2218.42V2239c-26.77-.33-23.83-24.09-23.83-24.09,10.71-.69,17.11-1.6,18.25-1.77l.19,0h.11A5.27,5.27,0,0,1,2734.07,2218.42Z"/><path class="cls-16" d="M2635,2217.61c2.17-1.38,4.52-2.86,7.09-4.47,0,0,2.55.35,7.1.81,7.55.75,20.6,1.74,36.36,1.74,1.32,0,2.63,0,3.89,0,8.1-.07,15.09-.35,20.84-.72,0,0-2.94,23.76,23.83,24.09v18.55H2612.32c4.44-13.76-8.81-20.21-8.81-20.21,7.1-4.31,12.37-7.65,19.54-12.2C2626.45,2223,2630.28,2220.56,2635,2217.61Z"/><path class="cls-6" d="M2734.07,2257.58v.67a6.68,6.68,0,0,1-6.67,6.69H2588.23a5.26,5.26,0,0,1-5.25-5.27,18.18,18.18,0,0,1,.12-2.09h151Z"/><path class="cls-17" d="M2728.68,2198v15.12a.87.87,0,0,0-.19,0c-2.06.22-20.68,2.23-39.09,2.49-1.26,0-2.57,0-3.89,0-15.76,0-28.81-1-36.36-1.74-4.37-.46-6.81-.81-6.81-.81V2198h86.34Z"/><path class="cls-15" d="M2646.92,2230.67a.78.78,0,0,0,.55-.23.79.79,0,0,0,0-1.13l-12-12.26a.8.8,0,1,0-1.14,1.11l12,12.26A.79.79,0,0,0,2646.92,2230.67Z"/><path class="cls-15" d="M2641,2234.74a.78.78,0,0,0,.55-.23.79.79,0,0,0,0-1.13l-12-12.26a.8.8,0,0,0-1.13,0,.79.79,0,0,0,0,1.12l12,12.27A.82.82,0,0,0,2641,2234.74Z"/><path class="cls-15" d="M2635,2238.17a.82.82,0,0,0,.56-.23.8.8,0,0,0,0-1.13l-11.91-12.19a.78.78,0,0,0-1.11-.15.81.81,0,0,0-.15,1.12l0,.07,12,12.27A.78.78,0,0,0,2635,2238.17Z"/><path class="cls-15" d="M2401.48,2237.37s13.25,6.45,8.81,20.21h-29.22a17.62,17.62,0,0,1,8.54-13.1C2394.26,2241.73,2398.09,2239.45,2401.48,2237.37Z"/><path class="cls-15" d="M2532,2218.42V2239c-26.77-.33-23.83-24.09-23.83-24.09,10.71-.69,17.11-1.6,18.24-1.77l.2,0h.11A5.27,5.27,0,0,1,2532,2218.42Z"/><path class="cls-16" d="M2432.93,2217.61c2.17-1.38,4.52-2.86,7.09-4.47,0,0,2.55.35,7.1.81,7.55.75,20.6,1.74,36.36,1.74,1.32,0,2.63,0,3.89,0,8.1-.07,15.09-.35,20.84-.72,0,0-2.94,23.76,23.83,24.09v18.55H2410.29c4.44-13.76-8.81-20.21-8.81-20.21,7.1-4.31,12.37-7.65,19.54-12.2C2424.42,2223,2428.25,2220.56,2432.93,2217.61Z"/><path class="cls-6" d="M2532,2257.58v.67a6.68,6.68,0,0,1-6.67,6.69H2386.2a5.22,5.22,0,0,1-3.72-1.55,5.28,5.28,0,0,1-1.54-3.72,18.18,18.18,0,0,1,.13-2.09h151Z"/><path class="cls-17" d="M2526.65,2198v15.12a1,1,0,0,0-.2,0c-2.06.22-20.67,2.23-39.08,2.49-1.26,0-2.57,0-3.89,0-15.76,0-28.81-1-36.36-1.74-4.37-.46-6.82-.81-6.82-.81V2198h86.35Z"/><path class="cls-15" d="M2444.89,2230.67a.78.78,0,0,0,.55-.23.79.79,0,0,0,0-1.13l-12-12.26a.8.8,0,1,0-1.14,1.11l12,12.26A.79.79,0,0,0,2444.89,2230.67Z"/><path class="cls-15" d="M2438.92,2234.74a.78.78,0,0,0,.55-.23.79.79,0,0,0,0-1.13l-12-12.26a.8.8,0,0,0-1.13,0,.79.79,0,0,0,0,1.12l12,12.27A.82.82,0,0,0,2438.92,2234.74Z"/><path class="cls-15" d="M2432.93,2238.17a.82.82,0,0,0,.56-.23.8.8,0,0,0,0-1.13l-11.91-12.19a.78.78,0,0,0-1.11-.15.81.81,0,0,0-.15,1.12l.05.07,12,12.27A.78.78,0,0,0,2432.93,2238.17Z"/><polygon class="cls-27" points="2580.8 1735.51 2586.93 1954.13 2599.77 1894.81 2580.8 1735.51"/><path class="cls-27" d="M2720,1735.51l1.52,49.73-1.52,0a48.55,48.55,0,0,1-9.72-1,49.78,49.78,0,0,1-40.06-48.82Z"/><path class="cls-27" d="M2495,1735.51h49.78c0,23.09-14.56,42.5-40.38,48.14a75.1,75.1,0,0,1-16,1.64Z"/><path class="cls-9" d="M2721.56,1786a66.08,66.08,0,0,1-11.4-.92,50.67,50.67,0,0,1-40.7-49.61.8.8,0,1,1,1.6,0,49.05,49.05,0,0,0,39.41,48,64.53,64.53,0,0,0,11.09.89.8.8,0,0,1,0,1.6Z"/><path class="cls-9" d="M2504.07,1786.81H2504a.8.8,0,0,1-.67-.91l.34-2.37a.8.8,0,0,1,1.58.23l-.34,2.37A.8.8,0,0,1,2504.07,1786.81Z"/><path class="cls-9" d="M2445.48,2191.74h-.12a.8.8,0,0,1-.67-.91l.68-4.71a.8.8,0,0,1,1.58.23l-.68,4.71A.8.8,0,0,1,2445.48,2191.74Zm1.36-9.42h-.12a.8.8,0,0,1-.67-.9l.68-4.71a.81.81,0,0,1,.9-.68.8.8,0,0,1,.68.9l-.68,4.71A.8.8,0,0,1,2446.84,2182.32Zm1.36-9.42h-.11a.79.79,0,0,1-.68-.9l.68-4.71a.82.82,0,0,1,.91-.68.8.8,0,0,1,.67.91l-.68,4.71A.8.8,0,0,1,2448.2,2172.9Zm1.36-9.41h-.11a.81.81,0,0,1-.68-.91l.68-4.71a.82.82,0,0,1,.91-.67.78.78,0,0,1,.67.9l-.68,4.71A.79.79,0,0,1,2449.56,2163.49Zm1.37-9.42h-.12a.79.79,0,0,1-.67-.9l.68-4.71a.8.8,0,1,1,1.58.23l-.68,4.7A.8.8,0,0,1,2450.93,2154.07Zm1.36-9.42h-.12a.79.79,0,0,1-.67-.9l.68-4.71a.8.8,0,1,1,1.58.23l-.68,4.71A.8.8,0,0,1,2452.29,2144.65Zm1.36-9.42h-.11a.81.81,0,0,1-.68-.91l.68-4.71a.81.81,0,0,1,.91-.67.79.79,0,0,1,.67.9l-.68,4.71A.8.8,0,0,1,2453.65,2135.23Zm1.36-9.41h-.11a.8.8,0,0,1-.68-.9l.69-4.71a.79.79,0,0,1,.9-.68.8.8,0,0,1,.68.91l-.69,4.7A.79.79,0,0,1,2455,2125.82Zm1.37-9.42h-.12a.79.79,0,0,1-.67-.9l.68-4.71a.8.8,0,1,1,1.58.23l-.68,4.71A.8.8,0,0,1,2456.38,2116.4Zm1.36-9.42h-.12a.81.81,0,0,1-.67-.91l.68-4.71a.8.8,0,0,1,1.58.23l-.68,4.71A.8.8,0,0,1,2457.74,2107Zm1.36-9.41H2459a.8.8,0,0,1-.68-.91l.68-4.7a.8.8,0,1,1,1.58.23l-.68,4.7A.8.8,0,0,1,2459.1,2097.57Zm1.36-9.42h-.11a.8.8,0,0,1-.68-.9l.69-4.71a.79.79,0,0,1,.9-.68.81.81,0,0,1,.68.91l-.69,4.71A.79.79,0,0,1,2460.46,2088.15Zm1.37-9.42h-.12a.8.8,0,0,1-.67-.91l.68-4.71a.78.78,0,0,1,.9-.67.8.8,0,0,1,.68.9l-.68,4.71A.8.8,0,0,1,2461.83,2078.73Zm1.36-9.41h-.12a.8.8,0,0,1-.67-.91l.68-4.7a.78.78,0,0,1,.91-.68.8.8,0,0,1,.67.91l-.68,4.7A.8.8,0,0,1,2463.19,2069.32Zm1.36-9.42h-.11a.8.8,0,0,1-.68-.9l.68-4.71a.8.8,0,1,1,1.58.23l-.68,4.71A.8.8,0,0,1,2464.55,2059.9Zm1.37-9.42h-.12a.79.79,0,0,1-.67-.91l.68-4.71a.79.79,0,0,1,.9-.67.8.8,0,0,1,.68.9l-.69,4.71A.78.78,0,0,1,2465.92,2050.48Zm1.36-9.41h-.12a.8.8,0,0,1-.67-.91l.68-4.7a.79.79,0,0,1,.9-.68.8.8,0,0,1,.68.91l-.68,4.7A.8.8,0,0,1,2467.28,2041.07Zm1.36-9.42h-.12a.8.8,0,0,1-.67-.9l.68-4.71a.8.8,0,0,1,.91-.68.81.81,0,0,1,.67.91l-.68,4.71A.8.8,0,0,1,2468.64,2031.65Zm1.36-9.42h-.11a.79.79,0,0,1-.68-.9l.68-4.71a.8.8,0,0,1,.91-.67.79.79,0,0,1,.67.9l-.68,4.71A.8.8,0,0,1,2470,2022.23Zm1.37-9.41h-.12a.79.79,0,0,1-.67-.91l.68-4.7a.78.78,0,0,1,.9-.68.8.8,0,0,1,.68.9l-.69,4.71A.79.79,0,0,1,2471.37,2012.82Zm1.36-9.42h-.12a.79.79,0,0,1-.67-.9l.68-4.71a.79.79,0,0,1,.9-.68.81.81,0,0,1,.68.91l-.68,4.71A.8.8,0,0,1,2472.73,2003.4Zm1.36-9.42H2474a.79.79,0,0,1-.68-.9l.68-4.71a.8.8,0,0,1,1.58.23l-.68,4.71A.8.8,0,0,1,2474.09,1994Zm1.36-9.41h-.11a.8.8,0,0,1-.68-.91l.68-4.7a.8.8,0,1,1,1.58.22l-.68,4.71A.8.8,0,0,1,2475.45,1984.57Zm1.37-9.42h-.12a.8.8,0,0,1-.68-.9l.69-4.71a.79.79,0,0,1,.9-.68.81.81,0,0,1,.68.91l-.69,4.71A.79.79,0,0,1,2476.82,1975.15Zm1.36-9.42h-.12a.79.79,0,0,1-.67-.9l.68-4.71a.8.8,0,0,1,1.58.23l-.68,4.71A.8.8,0,0,1,2478.18,1965.73Zm1.36-9.41h-.11a.81.81,0,0,1-.68-.91l.68-4.7a.79.79,0,0,1,.91-.68.8.8,0,0,1,.67.9l-.68,4.71A.8.8,0,0,1,2479.54,1956.32Zm1.36-9.42h-.11a.8.8,0,0,1-.68-.9l.68-4.71a.8.8,0,1,1,1.58.23l-.68,4.71A.8.8,0,0,1,2480.9,1946.9Zm1.37-9.42h-.12a.79.79,0,0,1-.67-.9l.68-4.71a.8.8,0,0,1,1.58.23l-.68,4.71A.8.8,0,0,1,2482.27,1937.48Zm1.36-9.41h-.12a.8.8,0,0,1-.67-.91l.68-4.71a.79.79,0,0,1,.9-.67.8.8,0,0,1,.68.9l-.68,4.71A.8.8,0,0,1,2483.63,1928.07Zm1.36-9.42h-.11a.8.8,0,0,1-.68-.9l.68-4.71a.8.8,0,0,1,.91-.68.81.81,0,0,1,.67.91l-.68,4.71A.8.8,0,0,1,2485,1918.65Zm1.36-9.42h-.11a.79.79,0,0,1-.68-.9l.68-4.71a.8.8,0,0,1,1.58.23l-.68,4.71A.79.79,0,0,1,2486.35,1909.23Zm1.37-9.41h-.12a.8.8,0,0,1-.67-.91l.68-4.71a.79.79,0,0,1,.9-.67.8.8,0,0,1,.68.9l-.68,4.71A.8.8,0,0,1,2487.72,1899.82Zm1.36-9.42H2489a.8.8,0,0,1-.67-.9l.68-4.71a.79.79,0,0,1,.9-.68.81.81,0,0,1,.68.91l-.68,4.71A.8.8,0,0,1,2489.08,1890.4Zm1.36-9.42h-.11a.79.79,0,0,1-.68-.9l.68-4.71a.8.8,0,0,1,1.58.23l-.68,4.71A.8.8,0,0,1,2490.44,1881Zm1.36-9.41h-.11a.81.81,0,0,1-.68-.91l.68-4.71a.8.8,0,0,1,.91-.67.79.79,0,0,1,.67.9l-.68,4.71A.8.8,0,0,1,2491.8,1871.57Zm1.37-9.42h-.12a.78.78,0,0,1-.67-.9l.68-4.71a.79.79,0,0,1,.9-.68.81.81,0,0,1,.68.91l-.69,4.71A.79.79,0,0,1,2493.17,1862.15Zm1.36-9.42h-.12a.79.79,0,0,1-.67-.9l.68-4.71a.78.78,0,0,1,.9-.67.79.79,0,0,1,.68.9l-.68,4.71A.8.8,0,0,1,2494.53,1852.73Zm1.36-9.41h-.11a.81.81,0,0,1-.68-.91l.68-4.71a.78.78,0,0,1,.91-.67.8.8,0,0,1,.67.9l-.68,4.71A.8.8,0,0,1,2495.89,1843.32Zm1.36-9.42h-.11a.8.8,0,0,1-.68-.9l.69-4.71a.79.79,0,1,1,1.57.23l-.68,4.71A.8.8,0,0,1,2497.25,1833.9Zm1.37-9.42h-.12a.79.79,0,0,1-.67-.9l.68-4.71a.8.8,0,0,1,1.58.23l-.68,4.71A.8.8,0,0,1,2498.62,1824.48Zm1.36-9.41h-.12a.81.81,0,0,1-.67-.91l.68-4.71a.79.79,0,0,1,.9-.67.8.8,0,0,1,.68.9l-.68,4.71A.8.8,0,0,1,2500,1815.07Zm1.36-9.42h-.11a.8.8,0,0,1-.68-.9l.68-4.71a.79.79,0,0,1,.91-.68.8.8,0,0,1,.67.91l-.68,4.7A.8.8,0,0,1,2501.34,1805.65Zm1.36-9.42h-.11a.79.79,0,0,1-.68-.9l.68-4.71a.8.8,0,0,1,1.58.23l-.68,4.71A.79.79,0,0,1,2502.7,1796.23Z"/><path class="cls-9" d="M2444.46,2198.81h-.12a.81.81,0,0,1-.67-.91l.34-2.37a.8.8,0,0,1,1.58.23l-.34,2.37A.8.8,0,0,1,2444.46,2198.81Z"/><path class="cls-9" d="M2535.92,2190.5h-4.79a.8.8,0,0,1,0-1.6h4.79a.8.8,0,0,1,0,1.6Zm-9.57,0h-4.79a.8.8,0,0,1,0-1.6h4.79a.8.8,0,0,1,0,1.6Zm-9.58,0H2512a.8.8,0,1,1,0-1.6h4.79a.8.8,0,0,1,0,1.6Zm-9.58,0h-4.79a.8.8,0,0,1,0-1.6h4.79a.8.8,0,0,1,0,1.6Zm-9.58,0h-4.79a.8.8,0,0,1,0-1.6h4.79a.8.8,0,0,1,0,1.6Zm-9.58,0h-4.79a.8.8,0,0,1,0-1.6H2488a.8.8,0,0,1,0,1.6Zm-9.58,0h-4.79a.8.8,0,0,1,0-1.6h4.79a.8.8,0,0,1,0,1.6Zm-9.58,0h-4.79a.8.8,0,0,1,0-1.6h4.79a.8.8,0,0,1,0,1.6Zm-9.58,0h-4.79a.8.8,0,0,1,0-1.6h4.79a.8.8,0,0,1,0,1.6Zm-9.58,0h-4.79a.8.8,0,0,1,0-1.6h4.79a.8.8,0,0,1,0,1.6Zm-9.58,0h-4.79a.8.8,0,0,1,0-1.6h4.79a.8.8,0,0,1,0,1.6Z"/><path class="cls-9" d="M2722.11,2198.81a.79.79,0,0,1-.79-.77l-.06-1.94a.8.8,0,0,1,.78-.82.84.84,0,0,1,.82.77l0,1.94a.79.79,0,0,1-.77.82Zm-.19-6.72a.81.81,0,0,1-.8-.78l-.13-4.79a.79.79,0,0,1,.77-.82.82.82,0,0,1,.82.78l.14,4.79a.8.8,0,0,1-.78.82Zm-.27-9.58a.8.8,0,0,1-.8-.77l-.14-4.79a.8.8,0,0,1,1.6,0l.14,4.79a.8.8,0,0,1-.78.82Zm-.28-9.57a.8.8,0,0,1-.79-.78l-.14-4.79a.8.8,0,0,1,.78-.82.81.81,0,0,1,.82.78l.13,4.79a.79.79,0,0,1-.77.82Zm-.27-9.58a.8.8,0,0,1-.8-.77l-.13-4.79a.79.79,0,0,1,.77-.82.8.8,0,0,1,.82.77l.14,4.79a.8.8,0,0,1-.78.82Zm-.27-9.57a.81.81,0,0,1-.8-.78l-.14-4.79a.8.8,0,0,1,.78-.82.82.82,0,0,1,.82.78l.14,4.78a.81.81,0,0,1-.78.83Zm-.27-9.58a.79.79,0,0,1-.8-.78l-.14-4.78a.8.8,0,0,1,.78-.82.79.79,0,0,1,.82.77l.13,4.79a.79.79,0,0,1-.77.82Zm-.28-9.58a.8.8,0,0,1-.8-.77l-.13-4.79a.79.79,0,0,1,.77-.82.81.81,0,0,1,.82.78l.14,4.78a.79.79,0,0,1-.77.82Zm-.27-9.57a.8.8,0,0,1-.8-.78l-.14-4.78a.81.81,0,0,1,.78-.83.79.79,0,0,1,.82.78l.14,4.79a.8.8,0,0,1-.78.82Zm-.27-9.58a.8.8,0,0,1-.8-.77l-.14-4.79a.8.8,0,0,1,.78-.82.82.82,0,0,1,.82.77l.13,4.79a.79.79,0,0,1-.77.82Zm-.28-9.57a.79.79,0,0,1-.79-.78l-.14-4.78a.8.8,0,0,1,.77-.83.82.82,0,0,1,.83.78l.13,4.79a.79.79,0,0,1-.77.82Zm-.27-9.58a.8.8,0,0,1-.8-.77l-.13-4.79a.79.79,0,0,1,.77-.82.76.76,0,0,1,.82.77l.14,4.79a.8.8,0,0,1-.78.82Zm-.27-9.57a.81.81,0,0,1-.8-.78l-.14-4.79a.8.8,0,0,1,1.6,0l.14,4.79a.81.81,0,0,1-.78.82Zm-.28-9.58a.79.79,0,0,1-.79-.77l-.14-4.79a.8.8,0,0,1,.78-.82.84.84,0,0,1,.82.77l.13,4.79a.79.79,0,0,1-.77.82Zm-.27-9.57a.81.81,0,0,1-.8-.78l-.13-4.79a.79.79,0,0,1,.77-.82.82.82,0,0,1,.82.78l.14,4.79a.81.81,0,0,1-.78.82Zm-.27-9.58a.8.8,0,0,1-.8-.77l-.14-4.79a.8.8,0,0,1,.78-.82.79.79,0,0,1,.82.77l.14,4.79a.8.8,0,0,1-.78.82Zm-.28-9.57a.8.8,0,0,1-.79-.78l-.14-4.79a.8.8,0,0,1,.78-.82.82.82,0,0,1,.82.78l.13,4.78a.8.8,0,0,1-.77.83Zm-.27-9.58a.8.8,0,0,1-.8-.78l-.13-4.78a.8.8,0,1,1,1.59,0l.14,4.79a.8.8,0,0,1-.78.82Zm-.27-9.58a.8.8,0,0,1-.8-.77l-.14-4.79a.8.8,0,0,1,.78-.82.82.82,0,0,1,.82.78l.14,4.78a.8.8,0,0,1-.78.82Zm-.27-9.57a.79.79,0,0,1-.8-.78l-.14-4.78a.81.81,0,0,1,.78-.83.82.82,0,0,1,.82.78l.13,4.79a.79.79,0,0,1-.77.82Zm-.28-9.58a.8.8,0,0,1-.8-.77l-.13-4.79a.79.79,0,0,1,.77-.82.81.81,0,0,1,.82.77l.14,4.79a.79.79,0,0,1-.77.82Zm-.27-9.57a.8.8,0,0,1-.8-.78l-.13-4.79a.79.79,0,0,1,.77-.82.78.78,0,0,1,.82.78l.14,4.79a.8.8,0,0,1-.78.82Zm-.27-9.58a.8.8,0,0,1-.8-.77l-.14-4.79a.8.8,0,0,1,1.6,0l.14,4.79a.8.8,0,0,1-.78.82Zm-.28-9.57a.79.79,0,0,1-.79-.78l-.14-4.79a.8.8,0,0,1,.77-.82.83.83,0,0,1,.83.78l.13,4.79a.8.8,0,0,1-.77.82Zm-.27-9.58a.8.8,0,0,1-.8-.77l-.13-4.79a.8.8,0,1,1,1.59,0l.14,4.79a.8.8,0,0,1-.78.82Zm-.27-9.57a.81.81,0,0,1-.8-.78l-.14-4.79a.8.8,0,0,1,.78-.82.79.79,0,0,1,.82.78l.14,4.79a.81.81,0,0,1-.78.82Zm-.28-9.58a.79.79,0,0,1-.79-.77l-.14-4.79a.8.8,0,0,1,.78-.82.81.81,0,0,1,.82.77l.13,4.79a.79.79,0,0,1-.77.82Zm-.27-9.57a.81.81,0,0,1-.8-.78l-.13-4.79a.79.79,0,0,1,.77-.82.83.83,0,0,1,.82.78l.14,4.78a.81.81,0,0,1-.78.83Zm-.27-9.58a.8.8,0,0,1-.8-.78l-.14-4.78a.8.8,0,0,1,.78-.82.79.79,0,0,1,.82.77l.14,4.79a.8.8,0,0,1-.78.82Zm-.28-9.58a.79.79,0,0,1-.79-.77l-.14-4.79a.8.8,0,0,1,.78-.82.82.82,0,0,1,.82.78l.13,4.78a.79.79,0,0,1-.77.82Zm-.27-9.57a.8.8,0,0,1-.8-.78l-.13-4.78a.8.8,0,0,1,.77-.83.83.83,0,0,1,.82.78l.14,4.79a.79.79,0,0,1-.77.82Zm-.27-9.58a.8.8,0,0,1-.8-.77l-.14-4.79a.8.8,0,0,1,1.6,0l.14,4.78a.8.8,0,0,1-.78.82Zm-.27-9.57a.8.8,0,0,1-.8-.78l-.14-4.79a.81.81,0,0,1,.78-.82.82.82,0,0,1,.82.78l.13,4.79a.79.79,0,0,1-.77.82Zm-.28-9.58a.79.79,0,0,1-.79-.77l-.14-4.79a.79.79,0,0,1,.77-.82.8.8,0,0,1,.83.77l.13,4.79a.79.79,0,0,1-.77.82Zm-.27-9.57a.8.8,0,0,1-.8-.78l-.13-4.79a.79.79,0,0,1,.77-.82.8.8,0,0,1,.82.78l.14,4.79a.81.81,0,0,1-.78.82Zm-.27-9.58a.8.8,0,0,1-.8-.77l-.14-4.79a.8.8,0,0,1,1.6,0l.14,4.79a.8.8,0,0,1-.78.82Zm-.28-9.57a.8.8,0,0,1-.79-.78l-.14-4.79a.8.8,0,0,1,.78-.82.84.84,0,0,1,.82.78l.13,4.79a.8.8,0,0,1-.77.82Zm-.27-9.58a.8.8,0,0,1-.8-.77l-.13-4.79a.8.8,0,1,1,1.59,0l.14,4.79a.8.8,0,0,1-.78.82Zm-.27-9.57a.81.81,0,0,1-.8-.78l-.14-4.79a.8.8,0,0,1,.78-.82.82.82,0,0,1,.82.78l.14,4.79a.81.81,0,0,1-.78.82Zm-.28-9.58a.79.79,0,0,1-.79-.78l-.14-4.78a.8.8,0,0,1,.78-.82.82.82,0,0,1,.82.77l.13,4.79a.79.79,0,0,1-.77.82Zm-.27-9.57a.81.81,0,0,1-.8-.78l-.13-4.79a.8.8,0,1,1,1.59,0l.14,4.78a.81.81,0,0,1-.78.83Zm-.27-9.58a.8.8,0,0,1-.8-.78l-.14-4.78a.8.8,0,0,1,1.6,0l.14,4.79a.8.8,0,0,1-.78.82Zm-.28-9.58a.79.79,0,0,1-.79-.77l-.14-4.79a.8.8,0,0,1,1.6,0l.13,4.78a.79.79,0,0,1-.77.82Zm-.27-9.57a.8.8,0,0,1-.8-.78l-.13-4.78a.8.8,0,0,1,.77-.83.84.84,0,0,1,.82.78l.14,4.79a.79.79,0,0,1-.77.82Z"/><path class="cls-9" d="M2733.82,2190.5h-3.07a.8.8,0,1,1,0-1.6h3.07a.8.8,0,0,1,0,1.6Zm-7.86,0h-4.79a.8.8,0,0,1,0-1.6H2726a.8.8,0,0,1,0,1.6Zm-9.58,0h-4.79a.8.8,0,0,1,0-1.6h4.79a.8.8,0,0,1,0,1.6Zm-9.58,0H2702a.8.8,0,0,1,0-1.6h4.79a.8.8,0,0,1,0,1.6Zm-9.58,0h-4.78a.8.8,0,1,1,0-1.6h4.78a.8.8,0,0,1,0,1.6Zm-9.57,0h-4.79a.8.8,0,1,1,0-1.6h4.79a.8.8,0,0,1,0,1.6Zm-9.58,0h-4.79a.8.8,0,1,1,0-1.6h4.79a.8.8,0,0,1,0,1.6Zm-9.58,0h-4.79a.8.8,0,0,1,0-1.6h4.79a.8.8,0,0,1,0,1.6Zm-9.58,0h-4.79a.8.8,0,0,1,0-1.6h4.79a.8.8,0,0,1,0,1.6Zm-9.58,0h-4.79a.8.8,0,1,1,0-1.6h4.79a.8.8,0,0,1,0,1.6Zm-9.58,0H2635a.8.8,0,1,1,0-1.6h4.79a.8.8,0,0,1,0,1.6Z"/><polygon class="cls-19" points="2720.05 1735.51 2491.91 1759.02 2495.01 1735.51 2720.05 1735.51"/><path class="cls-28" d="M2572.25,1462.57s-34.3,1.46-71.72,22.64S2442.15,1615,2442.15,1615l58.39,25.16Z"/><polygon class="cls-17" points="2653.46 1412.19 2646.58 1467.28 2596.65 1459.62 2596.28 1458.2 2594.51 1451.32 2592.65 1444.16 2592.62 1444.08 2585.88 1418.11 2653.46 1412.19"/><path class="cls-17" d="M2657.29,1392c-1.13,31.42-20.87,60.47-52.29,59.34s-55.73-1-61.5-63.43c-2.89-31.31,27.52-56,58.94-54.85A56.93,56.93,0,0,1,2657.29,1392Z"/><path class="cls-21" d="M2598,1466l-3.45-14.7s36.23,3,49.23-19C2643.74,1432.29,2643.51,1462.21,2598,1466Z"/><polygon class="cls-17" points="2652.35 1413.79 2645.68 1467.28 2597.21 1459.85 2596.84 1458.46 2595.13 1451.79 2593.32 1444.84 2593.29 1444.76 2586.75 1419.55 2652.35 1413.79"/><path class="cls-17" d="M2656.07,1394.17c-1.09,30.51-20.25,58.71-50.76,57.61s-54.1-.94-59.7-61.58c-2.81-30.39,26.71-54.34,57.22-53.25A55.27,55.27,0,0,1,2656.07,1394.17Z"/><path class="cls-18" d="M2600.77,1361c-12,2.1-43.48,18.6-54.75,18.1s-22.53-38.27-20.43-50.84,19.83-15.2,19.83-15.2c-2.7-7.33,8.63-18.45,38.85-15.45,26.46,2.62,35.43,19.27,35.43,19.27,28.49-10.37,50,14.78,44.33,64.77-3.38,30-17.45,46.22-17.45,46.22l-6.52-27.64s9.93-1.62,7.68-12.23-10-4.5-10-4.5-.75-14.17-5-19.08C2628.28,1359.12,2617.26,1358.07,2600.77,1361Z"/><path class="cls-29" d="M2598.48,1466.06l-3.35-14.27s30.66-4,47.79-19.47C2642.92,1432.32,2642.7,1462.36,2598.48,1466.06Z"/><path class="cls-18" d="M2632.79,1364.37s6.22,18.07,3.08,38-16.76,33.53-33,28-25.52-9-35.37-2.56-15.16-4.27-15.16-4.27,7.55,31.81,48.43,28.36,51.58-34.37,51.58-34.37l-7-12.84s-5.76-6.28-5.76-25.67S2632.79,1364.37,2632.79,1364.37Z"/><path class="cls-30" d="M2724.74,1647.42l4-70.79c3.19-56.79.18-116.22-91-116.15l-.35-.07c-6.05-1-10.51-1.4-12.62-1.58l-1.35-.09c-117.61,0-114.44,43.71-117.89,105.37l-3.72,66.34-11.86,97.65a11.67,11.67,0,0,0,11.53,13.08l215.74,1a11.68,11.68,0,0,0,11.71-12.26Z"/><path class="cls-23" d="M2624.68,1458.83c2.11.18,6.57.59,12.62,1.58A111,111,0,0,0,2624.68,1458.83Z"/><path class="cls-21" d="M2491.75,1523h0c4.18-.67,7.85,7.36,7.18,3.18l-3.42-28.33a7.72,7.72,0,0,0-8.82-6.38h0a7.73,7.73,0,0,0-6.38,8.82l2.62,16.33A7.72,7.72,0,0,0,2491.75,1523Z"/><path class="cls-14" d="M2508.56,970.74c118,237.87-87.66,451.67,1.48,694,7.2,64.34-124.38,114.5-212.79,151.56l-47.09-101.73a23.73,23.73,0,0,1,11.53-31.52c27.26-13.79,44.44,23.87,92.33-.53,83.26-44.68,22.12-170.16-64.2-131.76a73.18,73.18,0,0,0-40.7,50.36c-4.44,22.06-38.71,29-48.28,6.9l-184.1-397.76c-6.12-13.46-22.66-17.42-35-10a24.28,24.28,0,0,0-13.33,16.91c-12.89,68.27-116.2,77.52-139.86,10.3-25.92-60.54,46.19-123.85,102.31-91.41,7.93,4.36,17.26,3.52,25-.82a23.78,23.78,0,0,0,11.58-31.55L1782.59,704.39C2026.9,587.7,2350.05,636.61,2508.56,970.74Z"/><ellipse class="cls-31" cx="2224.01" cy="773.63" rx="53.68" ry="99.69" transform="translate(564.54 2444.23) rotate(-64.37)"/><path class="cls-17" d="M2453.8,1539.91l6.93,6.32a22.33,22.33,0,0,0,31.45-1.45h0a22.33,22.33,0,0,0-1.45-31.45l-6.92-6.31a22.33,22.33,0,0,0-31.45,1.44h0A22.33,22.33,0,0,0,2453.8,1539.91Z"/><path class="cls-17" d="M2481.68,1515.5h0a7.73,7.73,0,0,0-.5-10.88L2469,1493.48a7.73,7.73,0,0,0-10.88.5h0a7.72,7.72,0,0,0,.5,10.87l12.22,11.15A7.72,7.72,0,0,0,2481.68,1515.5Z"/><path class="cls-17" d="M2467.51,1515.54h0a7.73,7.73,0,0,0-.5-10.88l-12.21-11.14a7.73,7.73,0,0,0-10.88.5h0a7.73,7.73,0,0,0,.5,10.88l12.22,11.14A7.72,7.72,0,0,0,2467.51,1515.54Z"/><path class="cls-17" d="M2464,1525.31h0a7.73,7.73,0,0,0-.5-10.88l-12.22-11.14a7.72,7.72,0,0,0-10.87.5h0a7.72,7.72,0,0,0,.5,10.87l12.22,11.15A7.72,7.72,0,0,0,2464,1525.31Z"/><path class="cls-17" d="M2464.47,1538.75h0a7.72,7.72,0,0,0-.5-10.87l-12.22-11.14a7.71,7.71,0,0,0-10.87.5h0a7.71,7.71,0,0,0,.5,10.87l12.21,11.14A7.72,7.72,0,0,0,2464.47,1538.75Z"/><rect class="cls-21" x="2465.01" y="1491.91" width="1.6" height="25.05" transform="translate(-345.32 2168.61) rotate(-44.68)"/><rect class="cls-21" x="2450.34" y="1498.61" width="1.6" height="24.53" transform="translate(-354.08 2160.15) rotate(-44.68)"/><rect class="cls-21" x="2449.33" y="1513.31" width="1.6" height="21.08" transform="translate(-363.5 2163.18) rotate(-44.68)"/><path class="cls-28" d="M2694,1490.78a44.78,44.78,0,0,1,7.74,65.15c-7.18,8.46-13.6,15.84-16.6,18.77-2.14,2.17-4.47,4.29-6.7,6.43s-4.53,4.24-6.94,6.33-4.7,4.18-7.15,6.23l-7.5,6.1c-1.22,1-2.55,2-3.9,3l-4,3-4,2.94-4.31,2.89-4.34,2.83c-.73.47-1.42.94-2.19,1.4l-2.38,1.38-4.75,2.73-2.38,1.35-1.19.67-1.89,1c-2.64,1.27-5.28,2.57-8,3.58s-5.5,1.85-8.26,2.62c-2.74.6-5.49,1.14-8.24,1.6s-5.33.52-8,.67a90,90,0,0,1-27.82-3.62c-2-.63-4.1-1.18-5.93-1.9l-5.6-2.12c-3.53-1.52-7-3.12-10.22-4.85a148.45,148.45,0,0,1-17.88-11,218,218,0,0,1-29.16-25.33c-4.32-4.53-8.49-9.09-12.42-13.85-2-2.4-3.91-4.79-5.8-7.25l-2.8-3.75-2.93-4.05,31.33-30.92c.35.15,1,.55,1.49.85l1.64,1,3.38,2c2.24,1.37,4.52,2.72,6.8,4,4.58,2.63,9.1,5.27,13.7,7.64a219.36,219.36,0,0,0,26.91,12.41,102,102,0,0,0,12.47,3.86c1,.2,2,.51,2.87.62s1.84.3,2.74.48l2.51.26a20.24,20.24,0,0,0,2.29.08c2.87,0,7.09-3.91,7.09-3.91l2.31-1.91,1.15-1c.4-.33.81-.74,1.21-1.11l2.42-2.25,2.45-2.19,2.49-2.48c1.66-1.68,3.3-3.19,5-5,3.39-3.44,18.53-21.26,32.69-38.06a44.76,44.76,0,0,1,60.6-7.32Z"/><path class="cls-17" d="M2453,1721.94h0a7.71,7.71,0,0,1,10.6,2.46l8.75,14a7.72,7.72,0,0,1-2.46,10.6h0a7.73,7.73,0,0,1-10.61-2.46l-8.74-14A7.72,7.72,0,0,1,2453,1721.94Z"/><path class="cls-17" d="M2438.87,1724.29h0a7.73,7.73,0,0,1,10.61,2.46l11.26,18.07a7.73,7.73,0,0,1-2.46,10.61h0a7.73,7.73,0,0,1-10.61-2.47l-11.26-18.07A7.72,7.72,0,0,1,2438.87,1724.29Z"/><path class="cls-17" d="M2431,1734.05h0a7.71,7.71,0,0,1,10.6,2.46l8.75,14a7.72,7.72,0,0,1-2.46,10.6h0a7.72,7.72,0,0,1-10.61-2.46l-8.74-14A7.72,7.72,0,0,1,2431,1734.05Z"/><path class="cls-17" d="M2423.06,1743.11h0a7.69,7.69,0,0,1,10.6,2.46l3.88,6.21a7.71,7.71,0,0,1-2.46,10.61h0a7.71,7.71,0,0,1-10.61-2.46l-3.87-6.22A7.69,7.69,0,0,1,2423.06,1743.11Z"/><rect class="cls-21" x="2454.89" y="1725.14" width="1.6" height="25.56" transform="translate(-535.05 1411.93) rotate(-29.07)"/><rect class="cls-21" x="2441.92" y="1730.89" width="1.6" height="27.54" transform="translate(-551.35 1529.59) rotate(-31.43)"/><rect class="cls-21" x="2431.59" y="1740.63" width="1.6" height="19.38" transform="translate(-550.82 1466.39) rotate(-30.3)"/><path class="cls-22" d="M2900.43,981.39a193.55,193.55,0,0,1-18.64-43.18,191.22,191.22,0,0,1-7.89-56.85,193.75,193.75,0,0,1,23.75-91,190.12,190.12,0,0,1,34.63-45.83,193.74,193.74,0,0,1,37.93-28.91,195.83,195.83,0,0,1,43.16-18.68,191.6,191.6,0,0,1,56.91-7.88,194.88,194.88,0,0,1,91,23.71,194,194,0,0,1,74.77,72.6,194.48,194.48,0,0,1,18.64,43.18,190.23,190.23,0,0,1,7.87,56.92,194.34,194.34,0,0,1-23.67,91,190.45,190.45,0,0,1-34.71,45.88,194.12,194.12,0,0,1-229,31.69,190.38,190.38,0,0,1-45.86-34.67A193.74,193.74,0,0,1,2900.43,981.39Z"/><circle class="cls-20" cx="3068.25" cy="883.39" r="100.31"/><path class="cls-20" d="M3123.08,1069.85a194.79,194.79,0,0,0,81.11-47.55l14,40.69L3151,1102.21Z"/><path class="cls-20" d="M2888.65,1033.3l-39.22-67.14,32.36-27.95a194.79,194.79,0,0,0,47.55,81.11Z"/><path class="cls-20" d="M2932.28,744.5l-14-40.69,67.13-39.22,27.93,32.32a195.83,195.83,0,0,0-43.16,18.68A193.74,193.74,0,0,0,2932.28,744.5Z"/><path class="cls-20" d="M3207.14,747.41l40.7-14,39.21,67.13-32.35,27.95a194.67,194.67,0,0,0-47.56-81.11Z"/><path class="cls-20" d="M3238.9,976.42a194.34,194.34,0,0,0,23.67-91l38.71,18.91-19.75,75.23Z"/><path class="cls-20" d="M2972.06,1096.66l3.14-42.67a194.93,194.93,0,0,0,91,23.78l-18.9,38.64Z"/><path class="cls-20" d="M2835.23,862.42,2855,787.19l42.67,3.14a193.75,193.75,0,0,0-23.75,91Z"/><path class="cls-20" d="M3070.28,689l18.94-38.67,75.23,19.75-3.16,42.63A194.88,194.88,0,0,0,3070.28,689Z"/><path class="cls-22" d="M2698.84,1208.38a121.43,121.43,0,0,1-11.64-27,119.6,119.6,0,0,1-4.93-35.5,121.05,121.05,0,0,1,14.83-56.84,118.57,118.57,0,0,1,21.63-28.62,121,121,0,0,1,23.68-18.06,122.58,122.58,0,0,1,27-11.66,119.84,119.84,0,0,1,35.54-4.92,121.78,121.78,0,0,1,56.83,14.8,121.32,121.32,0,0,1,46.69,45.34,121.23,121.23,0,0,1,11.64,27,119.14,119.14,0,0,1,4.91,35.54,121.27,121.27,0,0,1-14.78,56.81,118.94,118.94,0,0,1-21.67,28.66,121.22,121.22,0,0,1-143,19.78,118.49,118.49,0,0,1-28.64-21.65A121,121,0,0,1,2698.84,1208.38Z"/><circle class="cls-20" cx="2803.63" cy="1147.18" r="62.64" transform="translate(-102.3 291.66) rotate(-5.85)"/><path class="cls-20" d="M2837.87,1263.62a121.75,121.75,0,0,0,50.65-29.69l8.72,25.41-41.92,24.48Z"/><path class="cls-20" d="M2691.48,1240.79,2667,1198.87l20.2-17.45a121.63,121.63,0,0,0,29.69,50.64Z"/><path class="cls-20" d="M2718.73,1060.46l-8.73-25.41,41.92-24.49,17.44,20.18a122.58,122.58,0,0,0-27,11.66A121,121,0,0,0,2718.73,1060.46Z"/><path class="cls-20" d="M2890.36,1062.28l25.41-8.73,24.49,41.92-20.2,17.45a121.51,121.51,0,0,0-29.7-50.64Z"/><path class="cls-20" d="M2910.19,1205.27a121.27,121.27,0,0,0,14.78-56.81l24.18,11.81-12.34,47Z"/><path class="cls-20" d="M2743.57,1280.36l2-26.65a121.51,121.51,0,0,0,56.81,14.85l-11.8,24.13Z"/><path class="cls-20" d="M2658.13,1134.09l12.33-47,26.64,2a121.05,121.05,0,0,0-14.83,56.84Z"/><path class="cls-20" d="M2804.9,1025.82l11.83-24.15,47,12.34-2,26.61A121.78,121.78,0,0,0,2804.9,1025.82Z"/><path class="cls-22" d="M2579,770.68a151.91,151.91,0,0,1-14.6-33.84,149.68,149.68,0,0,1-6.18-44.54A151.72,151.72,0,0,1,2576.79,621a148.63,148.63,0,0,1,27.13-35.91,151.73,151.73,0,0,1,29.71-22.66,154.21,154.21,0,0,1,33.82-14.64,150,150,0,0,1,44.6-6.16,152.73,152.73,0,0,1,71.3,18.57,152,152,0,0,1,58.58,56.88,152.41,152.41,0,0,1,14.61,33.84,149,149,0,0,1,6.16,44.59,152.1,152.1,0,0,1-18.54,71.29,149.52,149.52,0,0,1-27.2,36,152.09,152.09,0,0,1-179.41,24.83,148.9,148.9,0,0,1-35.93-27.17A151.73,151.73,0,0,1,2579,770.68Z"/><circle class="cls-20" cx="2710.45" cy="693.88" r="78.59" transform="translate(303.22 2119.81) rotate(-45)"/><path class="cls-20" d="M2753.41,840A152.42,152.42,0,0,0,2817,802.73l10.95,31.88-52.6,30.73Z"/><path class="cls-20" d="M2569.73,811.34,2539,758.74l25.35-21.9a152.3,152.3,0,0,0,37.26,63.55Z"/><path class="cls-20" d="M2603.92,585.07l-11-31.89,52.6-30.73,21.88,25.32a154.21,154.21,0,0,0-33.82,14.64A151.73,151.73,0,0,0,2603.92,585.07Z"/><path class="cls-20" d="M2819.28,587.35l31.88-11,30.73,52.6-25.35,21.9a152.58,152.58,0,0,0-37.26-63.55Z"/><path class="cls-20" d="M2844.16,766.78a152.1,152.1,0,0,0,18.54-71.29L2893,710.31l-15.48,59Z"/><path class="cls-20" d="M2635.09,861l2.46-33.43a152.77,152.77,0,0,0,71.29,18.63L2694,876.47Z"/><path class="cls-20" d="M2527.88,677.46l15.47-58.94,33.44,2.46a151.72,151.72,0,0,0-18.61,71.32Z"/><path class="cls-20" d="M2712.05,541.61l14.83-30.3,58.95,15.47-2.48,33.4A152.73,152.73,0,0,0,2712.05,541.61Z"/><path class="cls-28" d="M2306.69,1819a41,41,0,0,1,41,41v366.07a41,41,0,0,1-41,41H2055.33a41,41,0,0,1-41-41V1860a41.06,41.06,0,0,1,41-41Z"/><polygon class="cls-32" points="2281.66 1836.99 2311.22 1836.99 2311.22 2236.53 2051.2 2236.53 2051.2 1836.99 2084.86 1836.99 2281.66 1836.99"/><path class="cls-33" d="M2274,1819c-4.56-6.65-11.68-11-19.63-11h-68.87a16.79,16.79,0,0,1-9,0h-68.86c-7.95,0-15.07,4.31-19.63,11a31,31,0,0,0-5.41,17.72V1846H2279.4v-9.31A31,31,0,0,0,2274,1819Z"/><path class="cls-33" d="M2181,1815.66a23.53,23.53,0,0,1-6.36-.86,24.13,24.13,0,1,1,12.69,0A23.77,23.77,0,0,1,2181,1815.66Zm0-34.19a10.05,10.05,0,0,0-2.64,19.75l.06,0a10.05,10.05,0,1,0,2.58-19.77Z"/><polygon class="cls-34" points="2131.18 1947.16 2078.19 1947.16 2078.19 1894.15 2131.18 1894.15 2131.18 1908.47 2131.18 1947.16"/><polygon class="cls-34" points="2131.18 2026.39 2078.19 2026.39 2078.19 1973.38 2131.18 1973.38 2131.18 1987.7 2131.18 2026.39"/><polygon class="cls-34" points="2131.18 2102.71 2078.19 2102.71 2078.19 2049.7 2131.18 2049.7 2131.18 2064.02 2131.18 2102.71"/><polygon class="cls-34" points="2131.18 2184.4 2078.19 2184.4 2078.19 2131.39 2131.18 2131.39 2131.18 2145.71 2131.18 2184.4"/><rect class="cls-9" x="2172.75" y="1901.83" width="111.07" height="6.17"/><rect class="cls-9" x="2159.12" y="1918.06" width="124.69" height="6.17"/><rect class="cls-9" x="2159.12" y="1933.3" width="124.69" height="6.17"/><path class="cls-9" d="M2101.54,1936.33c-4.33,0-9.43-4.16-15.2-12.4a4.85,4.85,0,0,1,7.95-5.57,40.88,40.88,0,0,0,7,7.91c3.05-2,11.34-8.41,26.71-21.5l6.18-5.24a4.85,4.85,0,1,1,6.27,7.41l-6.17,5.23c-27.43,23.35-30,23.78-31.71,24.07A6.35,6.35,0,0,1,2101.54,1936.33Z"/><rect class="cls-9" x="2172.75" y="1981.06" width="111.07" height="6.17"/><rect class="cls-9" x="2159.12" y="1997.29" width="124.69" height="6.17"/><rect class="cls-9" x="2159.12" y="2012.54" width="124.69" height="6.17"/><rect class="cls-9" x="2172.75" y="2057.38" width="111.07" height="6.17"/><path class="cls-9" d="M2101.53,2013.75c-4.32,0-9.42-4.17-15.19-12.41a4.85,4.85,0,1,1,7.95-5.56,41.5,41.5,0,0,0,7,7.91c3.05-2,11.34-8.42,26.71-21.5l6.18-5.24a4.85,4.85,0,1,1,6.27,7.4l-6.17,5.23c-27.43,23.35-30,23.79-31.71,24.08A6.38,6.38,0,0,1,2101.53,2013.75Z"/><rect class="cls-9" x="2159.12" y="2073.61" width="124.69" height="6.17"/><rect class="cls-9" x="2159.12" y="2088.85" width="124.69" height="6.17"/><rect class="cls-9" x="2172.75" y="2139.07" width="111.07" height="6.17"/><path class="cls-9" d="M2101.53,2092.43c-4.32,0-9.42-4.17-15.19-12.41a4.85,4.85,0,0,1,7.95-5.56,41.18,41.18,0,0,0,7,7.91c3.05-2,11.34-8.42,26.71-21.5l6.18-5.24a4.85,4.85,0,1,1,6.27,7.4l-6.17,5.23c-27.43,23.35-30,23.79-31.71,24.08A6.38,6.38,0,0,1,2101.53,2092.43Z"/><rect class="cls-9" x="2159.12" y="2155.3" width="124.69" height="6.17"/><rect class="cls-9" x="2159.12" y="2170.54" width="124.69" height="6.17"/><path class="cls-9" d="M2101.53,2175.25c-4.32,0-9.42-4.16-15.19-12.4a4.85,4.85,0,0,1,7.95-5.57,41.3,41.3,0,0,0,7,7.92c3.05-2,11.34-8.42,26.71-21.5l6.18-5.25a4.85,4.85,0,1,1,6.27,7.41l-6.17,5.23c-27.43,23.35-30,23.79-31.71,24.07A6.38,6.38,0,0,1,2101.53,2175.25Z"/></g></g></g></svg>