<svg xmlns="http://www.w3.org/2000/svg" xmlns:xlink="http://www.w3.org/1999/xlink" viewBox="0 0 3500 2500"><defs><style>.cls-1{isolation:isolate;}.cls-2{fill:#fff;}.cls-3{fill:#c2d8f2;}.cls-4{fill:#9bd;}.cls-5{fill:#576c89;}.cls-6{fill:#c4e1ea;}.cls-7{fill:#a3c1c9;}.cls-8{fill:#fe875e;}.cls-11,.cls-9{mix-blend-mode:soft-light;}.cls-9{fill:url(#linear-gradient);}.cls-10{fill:#f7cc7f;}.cls-12{fill:#fec65e;}.cls-13{fill:#fae0b2;}.cls-14{fill:#466eb6;}.cls-15{fill:#50bfa5;}.cls-16{fill:#13375b;}.cls-17{fill:#355389;}.cls-18{fill:#f7f07f;}.cls-19{fill:#184655;}.cls-20{fill:#e5bd83;}.cls-21{fill:#3c8f7c;}.cls-22{fill:#f47458;}.cls-23{fill:#86b1f2;}.cls-24{fill:#f8c558;}.cls-25{fill:#587cf8;}.cls-26{fill:#d1d1d1;}.cls-27{fill:#9e9e9e;}.cls-28{fill:#f4f4f4;}.cls-29{fill:#11442f;}.cls-30{fill:#f7a491;}.cls-31{fill:#efefef;}.cls-32{fill:#a3bf50;}.cls-33{fill:#7a8f3c;}.cls-34{fill:#f8a492;}.cls-35{fill:#b75742;}.cls-36{fill:#3f4411;}.cls-37{fill:#171c51;}.cls-38{mix-blend-mode:multiply;opacity:0.4;}.cls-39{fill:#96d9c9;}.cls-40{fill:#7181aa;}.cls-41{fill:#96a4cd;}</style><linearGradient id="linear-gradient" x1="1694.37" y1="2208.52" x2="1694.37" y2="1976.35" gradientTransform="translate(-414.65 -1073.56) rotate(-0.75)" gradientUnits="userSpaceOnUse"><stop offset="0"/><stop offset="1" stop-color="#fff"/></linearGradient></defs><g class="cls-1"><g id="Background"><rect class="cls-2" width="3500" height="2500"/><path class="cls-3" d="M1141.84,2193.21s-460-590.56-450.22-882.93,1080.53-1067,1357.71-1025.2,356.92,698.65,132.9,1177.08,322.75,132.89,372.11-155.68,562,353.37-113.91,886.73Z"/><path class="cls-4" d="M2132.28,608.69A35.69,35.69,0,1,1,2168,573,35.73,35.73,0,0,1,2132.28,608.69Zm0-59.37A23.69,23.69,0,1,0,2156,573,23.71,23.71,0,0,0,2132.28,549.32Z"/><path class="cls-4" d="M692.5,895.26a35.69,35.69,0,1,1,35.69-35.69A35.73,35.73,0,0,1,692.5,895.26Zm0-59.38a23.69,23.69,0,1,0,23.69,23.69A23.72,23.72,0,0,0,692.5,835.88Z"/><path class="cls-4" d="M1562.28,500.4a28.22,28.22,0,1,1,28.22-28.21A28.24,28.24,0,0,1,1562.28,500.4Zm0-44.43a16.22,16.22,0,1,0,16.22,16.22A16.23,16.23,0,0,0,1562.28,456Z"/><path class="cls-4" d="M2812.58,1214a35.69,35.69,0,1,1,35.68-35.68A35.73,35.73,0,0,1,2812.58,1214Zm0-59.37a23.69,23.69,0,1,0,23.68,23.69A23.71,23.71,0,0,0,2812.58,1154.67Z"/><path class="cls-4" d="M2601.29,993.5l-91.91-330.1,262.35-121.11,9.77,352.32ZM2523.68,670l85.11,305.69,160.51-88.08-9.06-326.81Z"/><path class="cls-4" d="M2372.17,1006.77,2201,698.68l287.44-29.54L2577.62,1000Zm-151.86-298L2379.1,994.53l183-6L2479.5,682.12Z"/><path class="cls-4" d="M2567,1001.25l-90.37-329.82,44.14-12.1,90.37,329.82Zm-75.63-321.42,84,306.68,21-5.76-84-306.67Z"/><path class="cls-4" d="M2241.05,700.4l-9.4-7.45,19-24,1.52-.59c75.57-29.14,137.73-34.15,176.57-33.22,42.38,1,66.63,9,67.64,9.29l3,1,6.6,24.1-11.57,3.17L2489.59,655c-7.59-2.05-29.25-7.09-61.74-7.81-37.37-.84-97.07,4-169.83,31.85Z"/><path class="cls-4" d="M2494.46,672.75l-6.61-24.1,2.1-2.43c.7-.8,17.51-20,53.46-42.46,32.94-20.6,89-48,168.84-61.42l1.61-.28L2742.43,553l-4.29,11.21-25.51-9.76c-133,22.8-199.13,84.7-211.47,97.36l4.87,17.78Z"/><path class="cls-4" d="M2249.88,678l-49.23-54.89,20.58,6.28c.29.08,34.25,9.32,136.19-10.83,108.37-21.41,140.77,26.28,142.1,28.32l-10,6.58c-.07-.11-7.39-10.76-26.72-18.91-18.1-7.63-50.67-14.56-103-4.21-66.83,13.2-105.3,14.11-124.95,12.87l24,26.78Z"/><rect class="cls-4" x="2492.81" y="699.63" width="34.24" height="12" transform="translate(-97.25 688.51) rotate(-15.33)"/><rect class="cls-4" x="2500.22" y="726.65" width="34.24" height="12" transform="translate(-104.13 691.43) rotate(-15.33)"/><rect class="cls-4" x="2560.07" y="943.65" width="34.24" height="12" transform="translate(-160.91 733.94) rotate(-15.72)"/><rect class="cls-4" x="2552.48" y="916.68" width="34.24" height="12" transform="translate(-153.89 730.9) rotate(-15.72)"/><path class="cls-4" d="M2484.6,662.46c-8.73-1-17.43-1.63-26.12-2.16s-17.4-.75-26.1-.95c-4.35,0-8.7-.14-13.05-.12-2.18,0-4.36-.08-6.54,0s-4.36,0-6.54,0-4.37,0-6.55.07l-6.56.05c-4.38,0-8.75.16-13.16,0,4.31-.87,8.65-1.6,13-2.25s8.72-1.13,13.11-1.42,8.78-.62,13.17-.76c2.2-.07,4.4-.16,6.6-.15l6.61,0a234.67,234.67,0,0,1,26.34,2q6.55.85,13,2.2A104,104,0,0,1,2484.6,662.46Z"/><path class="cls-4" d="M2409.68,669.57c-12,.09-23.85.68-35.72,1.43s-23.7,1.86-35.52,3.14c-3,.32-5.9.7-8.85,1l-4.43.51-4.42.59-8.84,1.14c-2.94.47-5.88.9-8.83,1.31l-4.42.63c-1.47.21-2.93.49-4.41.7l-8.83,1.39c-5.9.9-11.75,2-17.69,2.83,2.85-.91,5.71-1.76,8.59-2.6l4.31-1.23c1.44-.42,2.89-.81,4.34-1.17,5.82-1.38,11.62-2.91,17.5-4,2.94-.6,5.87-1.19,8.82-1.74l8.86-1.46,4.44-.71,4.45-.59c3-.37,5.95-.77,8.92-1.1q17.88-1.95,35.88-2.16A229.67,229.67,0,0,1,2409.68,669.57Z"/><path class="cls-4" d="M2499.89,655.33c7-6.34,14.37-12.16,21.92-17.76s15.3-10.92,23.23-16,16.06-9.79,24.35-14.24a223.52,223.52,0,0,1,25.67-11.76l-23.91,14.8-23.69,15-23.67,15.08C2515.9,645.49,2508,650.49,2499.89,655.33Z"/><path class="cls-4" d="M2546.37,639.41c10.84-7.49,22.05-14.4,33.4-21.07q4.24-2.52,8.55-4.94c2.86-1.62,5.72-3.24,8.61-4.83,5.76-3.19,11.59-6.25,17.4-9.33l8.82-4.45q4.41-2.24,8.86-4.37c5.95-2.84,11.92-5.62,17.95-8.26a361.06,361.06,0,0,1,36.94-14q-17.85,8.48-35.44,17.23-4.38,2.25-8.79,4.43c-2.94,1.44-5.84,3-8.76,4.47-5.87,2.94-11.68,6-17.51,9l-8.74,4.52-8.73,4.56-17.47,9.09C2569.82,627.48,2558.15,633.53,2546.37,639.41Z"/><path class="cls-4" d="M659.56,2180.17l-9.32-.83c.25-2.92,27.49-294.33,176.41-514.52l7.74,5.24C686.83,1888.27,659.81,2177.27,659.56,2180.17Z"/><path class="cls-4" d="M614.66,2180.07l-9.34-.63c.34-5,33-499.14-16.62-650.88l8.9-2.91C647.82,1679.12,616,2159.69,614.66,2180.07Z"/><path class="cls-4" d="M554.8,2180c-.14-2.51-15.89-252.88-180.22-354.22l4.9-8C548,1921.75,564,2176.93,564.14,2179.5Z"/><path class="cls-4" d="M702.78,2180.82l-9.11-2.14c.17-.71,17.07-72.58,35.59-142.94,9.72-36.92,29.55-47.41,45.49-55.84,15.79-8.35,27.21-14.39,25.48-43.75a386.24,386.24,0,0,0-4.84-41.5c-4.43-27.74-6.46-40.4,18.81-75.57,14.81-20.61,27.92-27.23,37.48-32.06,12.43-6.28,18.66-9.43,19.67-40.32.28-8.9.41-16.39.53-22.82.63-35.84.71-40.45,23.7-73.29,6.09-8.7,3.14-17.93-.4-24.15-8.78-15.37-32.66-30.84-55.63-29.07-16.61,1.28-29,11.48-35.89,29.5-22.49,58.93-36.24,68.9-61.21,87-5.54,4-11.83,8.58-18.84,14.19-35.8,28.64-46.76,42.17-39.47,93.1,4.5,31.39-12.43,66.95-27.37,98.33-10.34,21.73-20.11,42.26-19.38,55.44,1.87,33.62-11.18,198.21-11.74,205.2l-9.33-.74c.14-1.7,13.56-171,11.73-203.94-.86-15.57,8.93-36.14,20.28-60,14.36-30.18,30.64-64.39,26.55-93-7.92-55.28,5.47-71.81,42.88-101.73,7.19-5.75,13.57-10.38,19.2-14.46,23.51-17,36.46-26.42,57.95-82.74,8.15-21.34,23.74-33.94,43.92-35.5,24.32-1.89,52.6,13,64.48,33.77,6.9,12.1,6.88,24.23-.06,34.15-21.35,30.5-21.41,33.34-22,68.08-.11,6.48-.24,14-.54,23-1.12,34.75-9.71,40.75-24.78,48.37-9.2,4.64-20.64,10.42-34.11,29.17-23,32-21.43,42-17.17,68.63a395.89,395.89,0,0,1,4.94,42.43c2.08,35.37-13.72,43.73-30.45,52.57-15.06,8-32.14,17-40.81,50C719.82,2108.37,703,2180.11,702.78,2180.82Z"/><path class="cls-4" d="M527.05,2180.56c-.17-.94-16.94-94.42-52.35-119.21-38.89-27.22-50.58-47.68-54.38-95.16-.52-6.47-.89-12.23-1.23-17.39-2.09-32.08-2.46-37.87-24.16-48-7.55-3.52-14.61-5.34-21.44-7.09-17.65-4.52-32.89-8.44-37.36-39.62-2.2-15.39-9.12-21.82-17.13-29.27-10.59-9.86-22.6-21-20.33-54,1.17-17,10.57-23.17,18.25-25.4,31.1-9,94.92,31.71,111.84,54.77,12.63,17.22,22.6,20.77,34.16,24.88,6.47,2.31,13.16,4.69,20.72,9.5,1.78,1.14,3.61,2.27,5.47,3.42,19.4,12.06,43.55,27.07,47.2,61.8l.5,4.74c3.37,32.42,5.4,52,25.44,66.85,23.19,17.19,21.26,51.49,19.4,84.66l-.4,7.3c-1.84,34.93,1.41,115.37,1.45,116.18l-9.35.39c0-.82-3.31-81.7-1.45-117.06l.41-7.33c1.8-32.11,3.5-62.44-15.63-76.62-23.35-17.32-25.67-39.63-29.18-73.41l-.49-4.72c-3.18-30.18-23.34-42.71-42.84-54.83-1.88-1.17-3.74-2.33-5.55-3.48-6.67-4.24-12.86-6.44-18.84-8.57-11.92-4.24-24.24-8.62-38.57-28.16-15.36-21-75.38-58.93-101.68-51.32-4.53,1.31-10.66,4.51-11.52,17-2,28.49,7,36.83,17.37,46.48,8.13,7.56,17.35,16.13,20,34.79,3.58,25,13.68,27.6,30.42,31.89,6.9,1.77,14.72,3.78,23.07,7.67,26.72,12.47,27.42,23.4,29.54,55.87.33,5.11.7,10.82,1.22,17.24,3.6,45.09,13.5,62.4,50.42,88.25,38.58,27,55.5,121.26,56.2,125.26Z"/><path class="cls-4" d="M573.34,2000.79c0-.57-.33-57.17-18.25-104.43-19.15-50.51-22.46-71.49-11.19-133.5,5.77-31.74-3.93-54.71-14.19-79-9.14-21.66-18.6-44.06-17.7-73.73.89-29.39,8.9-41.46,16-52.11,7.92-11.94,14.18-21.37,7.65-55.5-4.47-23.3,18.29-43.72,41.93-49.28,24.35-5.74,57.1,2.69,69,45.35,14.63,52.33,16.15,84.59,17.16,105.93,1,21.79,1.55,32.73,13.57,45.6,16.43,17.61,13.31,38.12,9.69,61.86-2.59,17-5.52,36.25-1.45,57.6l-9.19,1.76c-4.37-22.93-1.31-43,1.39-60.77,3.39-22.22,6.06-39.77-7.29-54.06-14.35-15.38-15-29-16.06-51.54-1-22.18-2.49-52.56-16.83-103.86-10.14-36.23-36.53-43.77-57.89-38.76-19.44,4.57-38.3,20.56-34.88,38.41,7.25,37.88-.66,49.81-9,62.43-6.68,10.08-13.6,20.5-14.41,47.22-.83,27.64,8.22,49.08,17,69.81,10.34,24.52,21,49.87,14.78,84.35-10.87,59.75-7.68,80,10.73,128.51,18.54,48.9,18.86,105.35,18.86,107.73Z"/><path class="cls-4" d="M2836.72,2179.91l-8.85-3c4.19-12.14,104.36-297.48,254.59-329.38l1.94,9.15C2939.34,1887.44,2837.73,2177,2836.72,2179.91Z"/><path class="cls-4" d="M2791.87,2179.7l-9-2.63c1-3.57,103.86-360.06,50.61-632.82l9.18-1.79C2896.37,1817.48,2792.92,2176.11,2791.87,2179.7Z"/><path class="cls-4" d="M2741.7,2179.67c-.55-1.94-56.31-194-139.52-223.65-20.81-7.42-42-3.81-62.91,10.73l-5.34-7.68c23.57-16.37,47.58-20.36,71.4-11.86,87.72,31.3,143.06,221.79,145.38,229.89Z"/><path class="cls-4" d="M2706.65,2180.82c-.24-.4-24.46-40.05-44.69-67.63-7.64-10.42-18.77-12.56-29.53-14.63-15.24-2.94-32.51-6.27-31.26-35.79l.16-3.75c1.1-25.58,1.89-44.08-5.35-51.07-3.43-3.32-9.09-4.55-17.85-3.88-13.36,1-25.54-1.15-36.3-3.07-15.63-2.78-29.12-5.19-42.22,2.28-6,3.42-9.71,2.17-11.82.51-3.69-2.91-4.34-8.59-1.92-16.87,5.73-19.7,34.37-64.52,82.07-69.35,63.57-6.42,75.42-3.72,97.61,22.32,9.49,11.14,14.36,17.86,17.92,22.77,6.94,9.57,7.66,10.57,29.62,24,30.53,18.66,42.15,35.74,37.68,55.38-4.28,18.77,12.07,104.09,18.73,135.38l-9.16,1.94c-1-4.67-24.3-114.78-18.69-139.39,2.31-10.18.6-24.52-33.44-45.32-22.69-13.86-24.55-15.77-32.32-26.49-3.46-4.78-8.21-11.33-17.46-22.19-19-22.32-26.68-25.45-89.55-19.08-31.1,3.15-55.15,26.68-67.3,47.65-6.4,11-7.86,18.38-7.79,21.22a9.87,9.87,0,0,0,1.18-.59c16.06-9.17,31.82-6.35,48.5-3.37,10.72,1.92,21.78,3.9,33.94,3,11.59-.9,19.56,1.16,25.07,6.48,10.27,9.92,9.44,29.13,8.2,58.2l-.16,3.74c-.91,21.47,8.35,23.25,23.68,26.21,11.36,2.18,25.49,4.91,35.3,18.28,20.47,27.91,44.9,67.89,45.14,68.3Z"/><path class="cls-4" d="M2756.88,2113.74l-8.87-3c.14-.41,13.78-41.08,19.28-96,2.49-25-4.6-39.42-11.47-53.39-8.09-16.48-16.45-33.53-7.89-65.09,8.25-30.41,19.29-35.66,28.17-39.88,7.48-3.56,12.42-5.91,14.28-27.57,1.76-20.58-4.48-28.08-11.09-36-8.37-10-17-20.4-6.66-52.52,7.45-23.11,15.46-32.74,21.9-40.47,8.36-10,13.4-16.1,9.46-51.62-3.22-29-12.58-40.49-20.09-49.74-8.61-10.6-16-19.74-8-46.19,12.06-39.43,26.7-73.69,72.42-60.12,37.17,11,52.2,51.14,39.21,104.7-4.61,19,4.07,43.2,13.26,68.78,12,33.38,25.59,71.21,11.56,105.87a316.92,316.92,0,0,1-17.06,36.12c-7.86,14.45-7.86,14.45-2.3,52.56,2.14,14.64,4,25.15,5.41,32.83,4.32,24,4.51,27-2.85,55.69l-9.07-2.33c7.07-27.5,6.82-28.86,2.71-51.71-1.39-7.73-3.3-18.33-5.46-33.12-5.85-40-5.75-41.68,3.35-58.39a304.5,304.5,0,0,0,16.6-35.16c12.68-31.35.29-65.84-11.69-99.2-9.68-26.94-18.82-52.38-13.55-74.15,11.87-49-.38-83.91-32.78-93.52-31.13-9.23-45.35,3.35-60.81,53.88-6.63,21.69-1.78,27.66,6.26,37.56,7.85,9.66,18.61,22.89,22.13,54.61,4.19,37.72-1.08,46-11.57,58.64-5.92,7.11-13.29,16-20.18,37.35-8.77,27.22-2.73,34.47,4.93,43.65,7.19,8.62,15.32,18.38,13.23,42.8-2.15,25.13-9.15,30.26-19.59,35.22-7.51,3.57-16,7.62-23.15,33.88-7.64,28.16-.73,42.22,7.27,58.51,7.09,14.45,15.13,30.83,12.37,58.45C2771,2071.72,2757,2113.33,2756.88,2113.74Z"/><path class="cls-4" d="M2864.91,2179.37l-9.15-2c14.53-67.1,35.85-87.14,54.66-104.82,10.35-9.72,19.29-18.11,25.6-33.65,3.08-7.6,5.69-14.15,8-19.91,11.32-28.49,15.13-38.09,31.36-58.45,10.15-12.74,18.48-13.58,28.12-14.54,9.9-1,22.23-2.22,43.52-18.55,21.66-16.61,21.09-28.12,20.67-36.54-.37-7.39-.78-15.77,14.79-19.07,8.14-1.72,18.53-1.93,28.58-2.15,15.46-.32,33-.69,37.17-6.86,1.35-2,1.26-5.07-.27-9.15-3-8-9.33-13.76-18.78-17-18-6.14-44.95-1.91-64.22,10-15.22,9.41-26.68,5.54-36.8,2.13-11.79-4-22-7.41-40,6.86-14.83,11.77-20.28,25.55-25.08,37.72-6.48,16.38-12.71,31.86-39.82,30.52-19.67-1-24.19,11.71-31,36.12-4.67,16.82-10,35.88-24.32,51.48-31,33.75-58.95,166.44-59.22,167.78l-9.17-1.91c1.16-5.56,28.72-136.57,61.5-172.2,12.83-13.94,17.8-31.85,22.19-47.65,6.33-22.81,12.33-44.35,40.44-43,20.66,1.08,24.35-8.63,30.66-24.61,5-12.6,11.18-28.29,28-41.61,22-17.43,36.21-12.63,48.78-8.4,9.72,3.28,17.41,5.88,28.88-1.22,21.8-13.49,51.46-18,72.17-10.91,12,4.11,20.53,11.91,24.51,22.56,2.66,7.09,2.41,13-.74,17.68-6.89,10.17-25.27,10.56-44.73,11-9.61.2-19.55.41-26.83,2-7.77,1.64-7.72,2.68-7.38,9.45.49,9.89,1.23,24.83-24.33,44.43-23.4,17.95-37.78,19.38-48.28,20.43-8.75.87-14,1.4-21.74,11.06-15.35,19.28-18.74,27.81-30,56.08-2.3,5.78-4.9,12.35-8,20-7.08,17.43-17.18,26.92-27.86,37C2899,2096.14,2878.82,2115.11,2864.91,2179.37Z"/><path class="cls-5" d="M465.45,2167.73H2975.28a51.21,51.21,0,0,1,51.21,51.21v1a0,0,0,0,1,0,0H414.23a0,0,0,0,1,0,0v-1A51.21,51.21,0,0,1,465.45,2167.73Z"/><path class="cls-4" d="M1174.74,1029.77c-1.3,0-2.59,0-3.89,0a278.76,278.76,0,1,1,3.89,0Zm-.14-546.92a266.62,266.62,0,0,0-186.55,75.69c-105.71,102.88-108,272.58-5.13,378.29a267.52,267.52,0,1,0,191.68-454Z"/><path class="cls-4" d="M1174.72,973.53c-1,0-2.07,0-3.11,0a223.38,223.38,0,1,1,3.11,0Zm-.11-434.46a210.57,210.57,0,0,0-147.34,59.77c-83.48,81.25-85.3,215.28-4,298.77a211.29,211.29,0,1,0,151.39-358.54Z"/><path class="cls-4" d="M1305.42,885l-8.18-8.78a176.59,176.59,0,0,0,32-39.83l10.35,6.07A188.9,188.9,0,0,1,1305.42,885Z"/><path class="cls-4" d="M1356.4,800.37l-11.57-3.18a177.35,177.35,0,0,0-43.7-170.06l8.6-8.36a188.43,188.43,0,0,1,46.67,181.6Z"/><polygon class="cls-4" points="953.33 1027.59 885.78 958.18 944.86 900.69 953.23 909.29 902.75 958.41 953.56 1010.62 1003.13 962.37 1011.5 970.97 953.33 1027.59"/><path class="cls-4" d="M606.13,1396.79l-98.82-101.55,371.43-361.5,98.83,101.55Zm-81.86-101.32,82.09,84.35L960.6,1035.06l-82.09-84.35Z"/></g><g id="Object"><path class="cls-6" d="M1495.62,949.34a48.19,48.19,0,0,1,1.26,96.37l-64.45.84-258.75,3.39-55.27.72a48.5,48.5,0,0,1-48.89-47.63,47.86,47.86,0,0,1,13.72-34.13,48.56,48.56,0,0,1,33.91-14.61l84.69-1.11L1419,950.34Z"/><path class="cls-7" d="M1762.37,1965.9l0,0v0c-.15-1.28-.33-2.55-.53-3.83-.15-1-.3-2.08-.5-3.11-.22-1.37-.46-2.73-.73-4.07-.15-.75-.3-1.49-.48-2.24s-.28-1.38-.44-2.06c-.24-1.08-.48-2.16-.77-3.21a8.7,8.7,0,0,0-.22-.88c-.22-.88-.44-1.74-.7-2.62-.13-.5-.26-1-.42-1.51-.22-.81-.46-1.65-.72-2.48s-.49-1.61-.75-2.4c-.55-1.69-1.12-3.38-1.74-5.07-.26-.75-.54-1.52-.83-2.27a160.54,160.54,0,0,0-11.67-24.47c-34-58.42-74.3-115.82-112.41-173.84-4.09-6.2-8.15-12.44-12.17-18.65l-4-6.24,0-.07c-42.66-66.48-81-134.06-102.72-205.06l-7.72-29.64c-25.57-97.76-86.16-325.87-70.34-425.56l-258.73,3.38c4.72,25.46,5.25,59.49,3,97.7-1.45,24.87-4,51.52-7.43,78.71-1.32,10.68-2.77,21.47-4.31,32.23-7.31,51.32-16.74,102.84-25.66,146.63-5.62,27.74-11.07,52.39-15.62,71.88l-6.94,29.83C1077,1650.07,970.38,1781.16,896,1916.67c-52.77,96,5.93,215.43,114.06,232.85a1808.85,1808.85,0,0,0,312.21,23,1813.06,1813.06,0,0,0,311.63-31.18c65.09-12.24,111.12-61.29,125.14-119.07A157.28,157.28,0,0,0,1762.37,1965.9Z"/><path class="cls-6" d="M1731.81,1997.71a127.71,127.71,0,0,1-11,40.45,8.15,8.15,0,0,1-.5,1,126.18,126.18,0,0,1-92.1,71.58c-7.93,1.49-15.88,2.94-23.83,4.3q-22.77,4-45.68,7.36-14.49,2.15-29.06,4.05-16.29,2.1-32.6,3.95c-5,.55-9.91,1.1-14.88,1.6q-16.66,1.75-33.41,3.15-56.58,4.8-113.28,6c-4.52.11-9,.18-13.55.24q-19.57.27-39.15.09a1784.21,1784.21,0,0,1-267.67-22.69,126.28,126.28,0,0,1-94.49-70.15c-18.39-37.7-17.4-80.32,2.74-117,17.1-31.16,36.34-62.7,55.81-93.81q10.25-16.38,20.49-32.54c.24-.42.51-.81.77-1.23,15.07-23.86,30.28-47.91,45-72.26q6.93-11.4,13.67-22.89,3.06-5.21,6.06-10.41,6.77-11.64,13.21-23.36,5.92-10.71,11.6-21.5,9.22-17.57,17.66-35.37c16-33.66,29.46-68,39.19-103.08l7.25-31.11c.46-2,1.17-5,2-9.14,2.13-9.62,5.33-24.74,9.18-43.85,5.45-27,12.13-61.93,18.76-100.49q2.61-15.32,5.21-31.33c.77-4.7,1.51-9.44,2.26-14.23,1.65-10.46,3.25-21.07,4.81-31.73,1.39-9.66,2.75-19.37,4-29.08,2.09-15.91,4-31.79,5.65-47.39,5.09-48,7.77-93.37,5.84-129.09l190.45-2.48c-1.56,98.48,33,278.57,58.35,386.21,3.71,15.8,7.25,30.06,10.44,42.25l7.45,28.67,1.86,7.16c4.42,14.46,9.47,28.74,15,42.84,9,22.85,19.44,45.28,30.84,67.38q9.4,18.23,19.62,36.12c18.65,32.78,39.06,64.83,59.87,96.4,9.6,14.59,19.29,29.07,28.91,43.46,27.51,41.12,55.93,83.63,80.36,125.51A125.53,125.53,0,0,1,1731.81,1997.71Z"/><path class="cls-8" d="M1688.08,1937a96.51,96.51,0,0,1-65.71,143.18,1742.24,1742.24,0,0,1-300.75,30.09h-.16A1743.22,1743.22,0,0,1,1020,2088.05a96.5,96.5,0,0,1-69.43-141.41c22.81-41.56,48.74-82.54,76.05-125.72,42.41-67.2,85.73-135.81,117.8-208.33,0,0,48.37-39.71,123.61-37.58,75.39,2.28,120.82,70.51,209.32,15.48,34.66,78.18,83.73,151.5,131.38,222.81C1637.18,1855.75,1664.18,1896,1688.08,1937Z"/><path class="cls-9" d="M1495.62,949.34a48.19,48.19,0,0,1,1.26,96.37l-64.45.84-258.75,3.39-55.27.72a48.5,48.5,0,0,1-48.89-47.63,47.86,47.86,0,0,1,13.72-34.13,48.56,48.56,0,0,1,33.91-14.61l84.69-1.11L1419,950.34Z"/><circle class="cls-10" cx="1167.6" cy="1940.91" r="35.03" transform="translate(-999.97 2598.22) rotate(-75.84)"/><circle class="cls-10" cx="1282.81" cy="1807.65" r="17.76" transform="translate(-594.28 2986.52) rotate(-86.77)"/><circle class="cls-10" cx="1413.18" cy="1928.82" r="26.15" transform="translate(-962.55 2199.59) rotate(-60.27)"/><circle class="cls-10" cx="1453.03" cy="1791.31" r="15.49" transform="translate(-153.91 136.67) rotate(-5.11)"/><path class="cls-10" d="M1199.82,1725.59a17.52,17.52,0,1,1-17.75-17.28A17.51,17.51,0,0,1,1199.82,1725.59Z"/><path class="cls-10" d="M1034.24,1968.81a8.88,8.88,0,1,1-9-8.77A8.89,8.89,0,0,1,1034.24,1968.81Z"/><circle class="cls-10" cx="1560.68" cy="1944.4" r="17.52" transform="translate(-917.79 1673.07) rotate(-45)"/><circle class="cls-10" cx="1408.04" cy="1649.1" r="24.67" transform="translate(-263.71 3030.17) rotate(-89.07)"/><g class="cls-11"><path class="cls-2" d="M1720.76,2038.16a8.15,8.15,0,0,1-.5,1L1156.05,1475c5.11-23.2,16.63-78.52,27.94-144.34l421.7,421.7c9.6,14.59,19.29,29.07,28.91,43.46,27.51,41.12,55.93,83.63,80.36,125.51C1736.05,1957.42,1738.19,2000,1720.76,2038.16Z"/><path class="cls-2" d="M1545.82,1655.94,1189.2,1299.31c4-24.43,7.75-49.78,11.09-75l278.18,278.17,1.86,7.16C1495.84,1560.31,1519,1608.86,1545.82,1655.94Z"/><path class="cls-2" d="M1448.7,2135.18q-63.35,5.4-126.83,6.21-19.57.27-39.15.09L979.11,1837.87c7.09-11.34,14.21-22.61,21.26-33.77,15.07-23.86,30.28-47.91,45-72.26Z"/><path class="cls-2" d="M1558.65,2122.43q-38.13,5.64-76.54,9.6L1059,1709c10.74-18.25,21.11-36.66,30.87-55.27Z"/><path class="cls-2" d="M1759.06,2022.3c-3.54-2.55-8.7-6.39-8.84-6.17l-18.41-18.42a125.53,125.53,0,0,0-16.85-76.4c-24.43-41.88-52.85-84.39-80.36-125.51-9.62-14.39-19.31-28.87-28.91-43.46-20.81-31.57-41.22-63.62-59.87-96.4q-10.18-17.89-19.62-36.12l87,87,0,.07,4,6.24q6,9.36,12.17,18.65c38.11,58,78.36,115.42,112.41,173.84a160.54,160.54,0,0,1,11.67,24.47c.29.75.57,1.52.83,2.27.62,1.69,1.19,3.38,1.74,5.07.26.79.51,1.58.75,2.4s.5,1.67.72,2.48c.16.5.29,1,.42,1.51.26.88.48,1.74.7,2.62a8.7,8.7,0,0,1,.22.88c.29,1,.53,2.13.77,3.21.16.68.31,1.36.44,2.06s.33,1.49.48,2.24c.27,1.34.51,2.7.73,4.07.2,1,.35,2.06.5,3.11.2,1.28.38,2.55.53,3.83v0l0,0A157.28,157.28,0,0,1,1759.06,2022.3Z"/><path class="cls-2" d="M1042.29,1675.73l22.8,22.81q-3,5.2-6.06,10.41-6.72,11.47-13.67,22.89c-14.71,24.35-29.92,48.4-45,72.26-.26.42-.53.81-.77,1.23L977,1782.75C999.43,1747.24,1021.81,1711.68,1042.29,1675.73Z"/><path class="cls-2" d="M1107.56,1618.31q-8.4,17.79-17.66,35.37-5.67,10.8-11.6,21.5l-22.94-22.93c10.33-19,20-38.1,28.78-57.36Z"/><path class="cls-2" d="M1191.46,1285.08c-.75,4.79-1.49,9.53-2.26,14.23q-2.58,16-5.21,31.33c-6.63,38.56-13.31,73.51-18.76,100.49l-25.93-25.92c8.92-43.79,18.35-95.31,25.66-146.63Z"/><path class="cls-2" d="M1205.94,1176.88c-1.65,15.6-3.56,31.48-5.65,47.39-1.27,9.71-2.63,19.42-4,29.08l-27-27c3.38-27.19,6-53.84,7.43-78.71Z"/><path class="cls-2" d="M1559.66,1616.75l-64.3-64.31c-5.56-14.1-10.61-28.38-15-42.84l-1.86-7.16-7.45-28.67c-3.19-12.19-6.73-26.45-10.44-42.25l42.73,42.73,7.17,27.51C1522.47,1541,1539.56,1579.2,1559.66,1616.75Z"/><path class="cls-2" d="M1631.15,2141.9q-36.87,6.85-73.92,12.21l-27.64-27.63q14.57-1.92,29.06-4.05,22.9-3.36,45.68-7.36Z"/><path class="cls-2" d="M1497,2130.43l28,28q-79.39,10-159.3,13l-30.3-30.3q56.65-1.16,113.28-6,16.74-1.42,33.41-3.15C1487.08,2131.53,1492,2131,1497,2130.43Z"/></g><rect class="cls-12" x="1587.57" y="2136.29" width="478.5" height="36.75"/><polygon class="cls-8" points="1828.03 2086.36 1590 2136.29 2066.07 2136.29 1828.03 2086.36"/><rect class="cls-12" x="1779.66" y="2052.08" width="96.75" height="41.84"/><rect class="cls-12" x="1779.71" y="1968.33" width="96.75" height="41.84"/><rect class="cls-8" x="1799.6" y="2010.24" width="56.86" height="41.84"/><path class="cls-13" d="M1731.9,1891.44h0a17,17,0,0,0-22.42,8.72L1690,1944.52a17,17,0,0,0,8.72,22.42h0a17,17,0,0,0,22.42-8.72l19.52-44.35A17,17,0,0,0,1731.9,1891.44Z"/><path class="cls-13" d="M1973.47,1342.56h0a17,17,0,0,1-8.72-22.43l19.53-44.35a17,17,0,0,1,22.42-8.72h0a17,17,0,0,1,8.72,22.42l-19.53,44.36A17,17,0,0,1,1973.47,1342.56Z"/><path class="cls-12" d="M1820.46,1974.84a370.89,370.89,0,0,1-149.65-31.69,11.33,11.33,0,0,1,9.12-20.74,349.11,349.11,0,0,0,460.19-178.91c77.55-176.2-2.71-382.64-178.91-460.19a11.32,11.32,0,1,1,9.12-20.73c187.64,82.58,273.1,302.42,190.52,490.05a372.66,372.66,0,0,1-340.39,222.21Z"/><path class="cls-14" d="M1577.93,1779.83c1,18.69,0,51.72,0,51.72l-.07.08a326.34,326.34,0,0,1-100.36-235.82c0-9,.37-17.87,1.1-26.63h.08c0,1.91.44,15.08,12.5,26.63,13,12.44,18.62,17.07,28,22.22s37.31,21.93,37.31,21.93,5.66,1.84,21.48,22.37,30.76,28,34.51,39.21,11.18,21.41,11.18,21.41-28,38.26-33.55,42S1577.05,1761.21,1577.93,1779.83Z"/><path class="cls-14" d="M1922.05,1878.72c3.6,19.35,12.06,17.29,13.17,16.92v.07a326.48,326.48,0,0,1-130.67,27.15,301.43,301.43,0,0,0,20.23-34.8c9-18.69-1.55-13.1-5.3-50.4s0,0,2.36-5.59,5.07-22.37,0-37.3c-4.64-13.69-.81-11.7-.08-11.26-2.13-1.92-36.2-32.23-47.09-50-4.12-6.85-6.25-10.23-7.21-11.63.44-3.6,1.62-14.71,1.62-22.22s-20.45-3.68-26-3.68-28,5.59-43.12,7.43-24.06,39.15-24.06,28-9.34-7.43-13.1-8.39-9.27-12.14-13-21.41-9.34-5.59-16.77-14.93-13.1-13.1-20.53-33.63-13.1-13-28-42.89,0,0,3.68-14.28,9.34-8.09,22.59-19.27,18.46-3.75,18.46-3.75,13,9.34,20.53,23,31.71,10.6,31.71,10.6l-5.59-16.78c-1.32-3.9-2-6-2.35-7.06l-.3-1c-.22-.66-.59-1.61-1.1-3.23-3.75-11.19-26.12-39.15-7.43-59.67s18.61-13,31.71-33.55,26.12-14.94,41-13.1,11.26,1.91,35.46,0,28-1.84,35.47-28,0,0-3.75-24.28,0-20.45,0-41.2-9.35-1.7-22.37,0-16.78,2.06-24.28,7.65-18.62,20.53-33.55,24.28-9.35,0-29.87-7.58,0-18.54,3.75-35.32,18.1,0,18.1,0a85.86,85.86,0,0,1,17.36-14.93c11.19-7.51,18.62-3.75,37.3-15.16s7.44,5.81,33.56,0,14.93-12.21,14.93-12.21v-12.14s-18.69,2.2-35.46.29-46.65,3.75-72.7,16-16.84,8.31-24.28,2.94-50.4-2.06-76.29,0a327,327,0,0,1,422.77,29.87c-4.27-3.6-44.3,11-48,22.15s1.91,14.94-11.18,28-13,13.1-42.9,24.28-26.12-5.59-42.89,20.53-20.53,31.63-16.78,44.73-1.91,35.46,24.21,28,16.85-31.71,44.81-22.37a244.74,244.74,0,0,0,53.63,11.19s-9.71-28,0-33.55,27.59,3.67,39.22,13,11.62,7.5,19.06,18.69,14.93,16,20.52,14.49,26.12-31.27,26.12-31.27l12.07-17.8a326.2,326.2,0,0,1,19.42,90.42h-.07c-20.23-13-24-11.11-55.7-11.11s-35.46,7.29-63.42-.07-26.12-13-59.67-11.11-28-4.2-48.49,11-31.71-.37-37.3,34.43-14.94,29.21,0,59.09,14.94,24.2,29.8,54.08,26.12,5.59,20.53,48.48-5.6,50.4-5.6,57.83-3.75,29.88-3.75,39.22S1918.22,1857.89,1922.05,1878.72Zm-1.84-464.49v-29.8c-11.19,0,5.59-13.1-11.19,0s-22.36,28-26.12,33.55-12.5,9.34-12.5,9.34Z"/><path class="cls-15" d="M1821.84,1832.07c-2.36,5.59-6.11-31.71-2.36,5.59s14.28,31.71,5.3,50.4a301.43,301.43,0,0,1-20.23,34.8,326,326,0,0,1-226.69-91.23l.07-.08s1-33,0-51.72,6.55-11.18,12.14-14.86,33.55-42,33.55-42-7.43-10.22-11.18-21.41-18.69-18.68-34.51-39.21-21.48-22.37-21.48-22.37-28-16.78-37.31-21.93-14.93-9.78-28-22.22c-12.06-11.55-12.5-24.72-12.5-26.63h-.08a326.28,326.28,0,0,1,132.15-236.77c25.89-2.06,68.86-5.37,76.29,0s-1.84,9.27,24.28-2.94,55.92-17.81,72.7-16,35.46-.29,35.46-.29v12.14s11.19,6.4-14.93,12.21-14.94-11.4-33.56,0-26.11,7.65-37.3,15.16a85.86,85.86,0,0,0-17.36,14.93s-14.35-16.84-18.1,0-24.28,27.74-3.75,35.32,14.93,11.26,29.87,7.58,26.12-18.69,33.55-24.28,11.18-6,24.28-7.65,22.37-20.75,22.37,0-3.76,17,0,41.2,11.18-1.84,3.75,24.28-11.19,26.12-35.47,28-20.52,1.91-35.46,0-28-7.43-41,13.1-13.1,13-31.71,33.55,3.68,48.48,7.43,59.67c.51,1.62.88,2.57,1.1,3.23l.3,1c.36,1,1,3.16,2.35,7.06l5.59,16.78s-24.28,3.09-31.71-10.6-20.53-23-20.53-23-5.29-7.44-18.46,3.75-18.84,5-22.59,19.27-18.62-15.52-3.68,14.28,20.45,22.44,28,42.89,13,24.28,20.53,33.63,13,5.59,16.77,14.93,9.35,20.53,13,21.41,13.1-2.79,13.1,8.39,8.9-26.12,24.06-28,37.45-7.43,43.12-7.43,26-3.75,26,3.68-1.18,18.62-1.62,22.22c-.51-.73-.73-1-.81-.88,0,.29.59,1.62.59,2a3.35,3.35,0,0,0,.22-1.1c1,1.4,3.09,4.78,7.21,11.63,10.89,17.8,45,48.11,47.09,50-.73-.44-4.56-2.43.08,11.26C1826.91,1809.7,1824.26,1826.48,1821.84,1832.07Z"/><path class="cls-15" d="M1935.22,1895.64c-1.11.37-9.57,2.43-13.17-16.92-3.83-20.83-14.94-14.94-14.94-24.21s3.75-31.71,3.75-39.22,0-14.93,5.6-57.83-5.6-18.61-20.53-48.48-14.86-24.29-29.8-54.08-5.59-24.28,0-59.09,16.77-19.27,37.3-34.43,14.94-9.12,48.49-11,31.71,3.75,59.67,11.11,31.71.07,63.42.07,35.47-1.84,55.7,11.11h.07c.52,7.65.81,15.31.81,23.1,0,134.21-80.78,249.5-196.37,299.9Z"/><path class="cls-15" d="M1909,1384.43c16.78-13.1,0,0,11.19,0v29.8l-49.81,13.09s8.75-3.75,12.5-9.34S1892.25,1397.45,1909,1384.43Z"/><path class="cls-15" d="M2111.36,1482.21v.08l-12.07,17.8s-20.53,29.8-26.12,31.27-13.09-3.31-20.52-14.49-7.44-9.35-19.06-18.69-29.43-18.62-39.22-13,0,33.55,0,33.55a244.74,244.74,0,0,1-53.63-11.19c-28-9.34-18.69,14.94-44.81,22.37s-20.46-14.94-24.21-28,0-18.69,16.78-44.73,13-9.35,42.89-20.53,29.87-11.18,42.9-24.28,7.5-16.78,11.18-28,43.78-25.75,48-22.15a.07.07,0,0,0,.07.08A328,328,0,0,1,2111.36,1482.21Z"/><path class="cls-16" d="M2367.73,1301.56c-169.83,23.28-311.28-32.41-311.28-32.41s90.24-11.07,157.75-4C2274,1271.34,2367.73,1301.56,2367.73,1301.56Z"/><path class="cls-17" d="M2377.84,1204.45l-10.11,97.11s-93.71-30.22-153.53-36.45c-67.51-7-157.75,4-157.75,4l10.11-97.12,10.11-97.11s80.57-37.12,160.33-28.81c74,7.7,150.95,61.22,150.95,61.22Z"/><path class="cls-16" d="M2546.13,1149.46l-165.7,55.26-2.59-.27,10.11-97.12s-77-53.52-150.95-61.22c-79.76-8.31-160.33,28.81-160.33,28.81L2066.56,1172l-2.55-.26-150.76-88.21,330.68-104Z"/><path class="cls-17" d="M2234,956.28l-318.11,101.9-2.64,25.38,318.06-100.07a30.54,30.54,0,0,1,24.16,2.51l290.66,163.46,2.64-25.38L2258.45,958.83A30.63,30.63,0,0,0,2234,956.28Z"/><path class="cls-12" d="M1975.65,1233.43s-12.06,22.15-10.07,40.56,9.44,35.44,9.44,35.44l4.37.46-2.29-20.4,6.12,27.3,7.26-1.85-4.29-39.13,7.62,33s7.48-3.13,7.74-5.7-6.45-32.53-6.45-32.53l9.48,35.45s4.8,3.1,8.48-32.28-26.32-47-26.32-47Z"/><path class="cls-12" d="M2110.63,995.8l-22.87,7.34a123.81,123.81,0,0,0-14-2.22c-24.13-2.52-60.25.45-83.49,33.42-1.63,2.34-3.19,4.79-4.7,7.4a122.32,122.32,0,0,0-10,22.19c-12.12,36.25-4.23,71.3,4.06,108.06,4.49,20,9.15,40.69,10.38,61.7a7.66,7.66,0,0,1-15.29.91c-1.17-19.78-5.66-39.83-10-59.24-7.71-34.23-15.63-69.37-6.63-105.94a132,132,0,0,1,10.39-28.08c1.17-2.41,2.46-4.78,3.82-7.18,41.49-72.57,130.53-42.91,131.46-42.58A24,24,0,0,1,2110.63,995.8Z"/><circle class="cls-18" cx="1983.28" cy="1230.12" r="15.95"/><path class="cls-13" d="M1952.38,1989.91h529.86s-9.25,38.35-9.25,80c0,40.49,9.25,80,9.25,80H1952.38a34,34,0,0,1-34-34v-92A34,34,0,0,1,1952.38,1989.91Z"/><path class="cls-19" d="M2489.39,1968.14a10.89,10.89,0,0,1,10.88,10.89,10.89,10.89,0,0,1-10.88,10.88h-537a34,34,0,0,0-34,34.07v92a34,34,0,0,0,34,34h537a10.88,10.88,0,0,1,0,21.76h-537a55.79,55.79,0,0,1-55.8-55.8v-92a55.8,55.8,0,0,1,55.8-55.8Z"/><path class="cls-20" d="M1987.33,2020.89q47.06-2.1,94.12-2.82c31.38-.58,62.76-.73,94.13-.8s62.75.21,94.13.79,62.75,1.42,94.13,2.83q-47.07,2.11-94.13,2.83c-31.38.58-62.75.74-94.13.8s-62.75-.23-94.13-.81S2018.7,2022.3,1987.33,2020.89Z"/><path class="cls-20" d="M1967.7,2070c11.86-1.5,23.71-2.29,35.57-2.82s23.71-.73,35.57-.81,23.71.22,35.56.8,23.71,1.32,35.57,2.83c-11.86,1.51-23.71,2.3-35.57,2.83s-23.71.73-35.56.8-23.72-.23-35.57-.81S1979.56,2071.45,1967.7,2070Z"/><path class="cls-20" d="M2058.46,2120.23c11.85-1.5,23.71-2.28,35.56-2.82s23.72-.73,35.57-.8,23.71.22,35.57.79,23.71,1.32,35.56,2.83c-11.85,1.51-23.71,2.3-35.56,2.83s-23.71.74-35.57.8-23.71-.23-35.57-.81S2070.31,2121.73,2058.46,2120.23Z"/><path class="cls-20" d="M2133.31,2090.8q41.1-2.1,82.19-2.82c27.4-.58,54.8-.73,82.19-.81s54.8.22,82.19.8,54.8,1.42,82.19,2.83q-41.09,2.11-82.19,2.83c-27.39.58-54.79.73-82.19.8s-54.79-.23-82.19-.81S2160.71,2092.2,2133.31,2090.8Z"/><path class="cls-15" d="M2078.08,2166.84a103.56,103.56,0,0,1,0-96.89h-90.75a103.5,103.5,0,0,0,0,96.89c10.75-8.25,22.7-16.94,35.84-25.83C2040.28,2149.9,2058.59,2158.59,2078.08,2166.84Z"/><path class="cls-13" d="M2099.37,1772.21s15.63,36.32-.58,80.91l-61.57-3.37-154.42-8.42v0a166.33,166.33,0,0,0,4.68-38.2c0-18.94-4.68-38.24-4.68-38.24v0L2035,1770Z"/><path class="cls-21" d="M1879.57,1841.15l3.23.18,154.42,8.42,61.57,3.37c16.21-44.59.58-80.91.58-80.91L2035,1770l-152.2-5.19-3.66-.11a9.05,9.05,0,0,1,.25-18.1h.4l228.61,8.45s30.19,50.14,0,115l-229.7-10.81a9.08,9.08,0,0,1,.47-18.14Z"/><polygon class="cls-21" points="1879.79 1746.6 2506.27 1738.69 2502.82 1738.83 2108.4 1755.05 1879.79 1746.6"/><path class="cls-19" d="M2116.05,1754.74l386.77-15.91a34.13,34.13,0,0,1,35.45,33.93l.25,48.18a34.08,34.08,0,0,1-32.8,34.29L2108.4,1870.1c30.19-64.91,0-115,0-115Z"/><path class="cls-20" d="M2098.22,1803.33c-11.94.84-23.84,1-35.72.84s-23.75-.59-35.61-1.17-23.7-1.54-35.53-2.77-23.63-2.64-35.41-4.8c11.94-.85,23.84-1,35.73-.85s23.75.58,35.61,1.18,23.7,1.54,35.52,2.78S2086.45,1801.17,2098.22,1803.33Z"/><path class="cls-20" d="M1972.06,1822.35a312.65,312.65,0,0,1-39.45-.45,307,307,0,0,1-39.14-4.87,306.93,306.93,0,0,1,39.44.46A310.58,310.58,0,0,1,1972.06,1822.35Z"/><path class="cls-22" d="M1993.23,1874.4c-12-17.76-10.83-59.94,2.24-77,23.7.69,46.52,3.61,70.22,4.3-13.08,17-13.42,57-1.36,74.73a262.59,262.59,0,0,1-42.37-19.75C2011.58,1863.69,2002.18,1869.82,1993.23,1874.4Z"/><path class="cls-17" d="M2141.78,1865.45l11.19,1a50.53,50.53,0,0,0-46.75,54.08l1.12,15.44a50.53,50.53,0,0,0,40.74,45.91l-180-14.18a54.32,54.32,0,0,1-48.85-59.6l.84-8.29a54.26,54.26,0,0,1,58.76-48.61h0Z"/><polygon class="cls-17" points="2575.09 1856.22 2152.97 1866.45 2141.78 1865.45 1978.88 1851.2 1978.84 1851.2 1976.88 1851.02 2575.09 1856.22"/><path class="cls-23" d="M2563,1873.24l-409.07,11.33a32.29,32.29,0,0,0-23.23,12.87,34,34,0,0,0-6.28,23l1.06,14.24a32.63,32.63,0,0,0,31.79,30.07c.94,0,1.93,0,2.87-.1l.44,0,403.09-9.75,10-.25a8.34,8.34,0,0,1,8.51,8.47l0,1.49a8.32,8.32,0,0,1-8.1,8.19l-412.61,10a49.88,49.88,0,0,1-13.37-.81,50.53,50.53,0,0,1-40.74-45.91l-1.12-15.44a50.53,50.53,0,0,1,46.75-54.08l422.12-10.23a8.33,8.33,0,0,1,.45,16.66Z"/><path class="cls-13" d="M2563.65,1954.82l-403.09,9.75-.44,0c-.94.06-1.93.11-2.87.1a32.63,32.63,0,0,1-31.79-30.07l-1.06-14.24a34,34,0,0,1,6.28-23,32.29,32.29,0,0,1,23.23-12.87L2563,1873.24c-.16.73-5.3,25.07-5.53,40.71S2563.65,1954.82,2563.65,1954.82Z"/><path class="cls-20" d="M2159.83,1908.2c11.8-2,23.63-3.26,35.47-4.28s23.7-1.71,35.56-2.27,23.74-.75,35.63-.66,23.78.34,35.7,1.36c-11.8,2-23.63,3.28-35.47,4.29s-23.7,1.71-35.56,2.26-23.74.75-35.63.65S2171.75,1909.21,2159.83,1908.2Z"/><path class="cls-20" d="M2257.46,1941.23c11.8-2,23.63-3.26,35.48-4.28s23.69-1.71,35.55-2.26,23.74-.76,35.63-.67,23.78.34,35.7,1.37c-11.8,2-23.63,3.27-35.47,4.29s-23.7,1.7-35.56,2.25-23.74.75-35.62.66S2269.39,1942.24,2257.46,1941.23Z"/><path class="cls-15" d="M2273.64,2002.79c16.36-22,17.33-76.29,1.62-98.72-30.25-.44-57.12,2.8-87.37,2.36,15.72,22.43,11.37,73.07-5,95a335.35,335.35,0,0,0,55.11-22.83C2250.84,1988.12,2262.49,1996.45,2273.64,2002.79Z"/><path class="cls-20" d="M2362,1919.85c16.25-2,32.52-3.27,48.79-4.3s32.56-1.72,48.85-2.28,32.59-.77,48.9-.68,32.62.33,49,1.35c-16.25,2-32.52,3.28-48.79,4.31s-32.56,1.71-48.85,2.27-32.59.76-48.9.67S2378.3,1920.86,2362,1919.85Z"/><path class="cls-16" d="M1951.3,1120.25c-21.29,8.52-32.68,44.12-34.23,89.75s-27.48,105.57,1,121,76.25-21.52,113.11,10.93,90.57,35.44,90.57,35.44,33.51-26.56,20.33-102.49-63.37-49.45-85.8-80.88S2023.23,1091.48,1951.3,1120.25Z"/><path class="cls-22" d="M1963.44,1266.52s74.41-15.6,72,8.74c-1,10.37-33.19,56.92-33.94,60.79-.49,2.82-1.14,5.71-1.72,8.56s-1.23,5.7-2,8.59-1.39,5.75-2.19,8.64l-2.52,8.73c-.4,1.44-.88,2.92-1.4,4.4l-1.51,4.43-1.52,4.42-1.78,4.54-1.83,4.51c-.31.75-.59,1.49-.94,2.25l-1.09,2.34-2.21,4.65-1.12,2.32-.56,1.15-1,1.75c-1.35,2.39-2.7,4.81-4.25,7s-3.26,4.37-5,6.45-3.63,3.82-5.5,5.64-3.84,3.26-5.81,4.8a84.29,84.29,0,0,1-23.42,12.1c-1.86.59-3.8,1.29-5.6,1.72l-5.46,1.36c-3.53.71-7.09,1.35-10.48,1.73a140.94,140.94,0,0,1-19.7,1.06c-12.67-.15-14.26-59.22-5.83-61.36a97.22,97.22,0,0,0,11.7-3.7c.85-.36,1.79-.66,2.55-1.06s1.58-.75,2.37-1.1l2.08-1.14a21,21,0,0,0,1.81-1.16c2.21-1.55,3.37-6.81,3.37-6.81l.76-2.72.39-1.35c.12-.47.22-1,.33-1.5l.67-3,.71-3,.6-3.24c.38-2.2.84-4.24,1.18-6.53.77-4.47,2.32-20,4.25-40.54,2.07-22,18.07-38.93,43.46-44.46Z"/><path class="cls-24" d="M2104.36,1443.4c1.28-16.61,11.54-48.89,12.39-74.54,1.79-53.41.45-104.92-85.26-105.38l-.33-.07c-5.68-1-9.86-1.38-11.84-1.55l-1.27-.1c-40-1.13-68.77,3-72.23,32.13-2.12,17.75-16.75,25.51-19.43,44.62-3.47,24.85,3.55,29,9.92,49.69,5,16.39-39.29,127.14-39.29,127.14l212.94,4.09S2101.32,1482.93,2104.36,1443.4Z"/><path class="cls-25" d="M2019.32,1261.86c2,.17,6.16.59,11.84,1.55A101.87,101.87,0,0,0,2019.32,1261.86Z"/><path class="cls-13" d="M2029.32,1215.29l-55.25,9.5,7.33,20.93,0,.06,2,5.77,1.92,5.54.41,1.15,6.65.76-4.39,4.26s2.15,8.66,19.54,8.66,23.58-8.5,23.58-8.5Z"/><path class="cls-13" d="M2031.09,1198.39c1.22,25.95-13.06,47.38-38,54.8-19.06,5.69-33.78-2.29-56-50.39-10.91-23.59,18.83-48,44.78-49.2A47,47,0,0,1,2031.09,1198.39Z"/><path class="cls-8" d="M1989.93,1266.34a7,7,0,0,1-1.89-3.08c-.72-2.23-3.91-8.54-3.91-8.54s29.83-3.51,36.78-23.44C2020.91,1231.28,2026.21,1255.83,1989.93,1266.34Z"/><path class="cls-22" d="M2071.79,1272.68c62.9-.76,43.19,149.34-3.12,169.29-57.06,24.58-91.49,16.23-91.49,16.23l-.43-34.35c.32-.15,67.63-10.78,69.25-32.08,3.56-46.63-31-115.1,25.79-119.09Z"/><path class="cls-26" d="M1908.1,1472.26l83.47-.06a7,7,0,0,0-4.51,1.58,4.9,4.9,0,0,0-1.87,3.78c0,3,2.88,5.37,6.39,5.37l-171.65.11c-3.51,0-6.39-2.41-6.39-5.37a5,5,0,0,1,1.87-3.78,7.05,7.05,0,0,1,4.51-1.58Z"/><path class="cls-27" d="M2085.14,1472.14a5.36,5.36,0,0,1,3.81,9.15,5.5,5.5,0,0,1-3.8,1.58l-94.65.06a5.39,5.39,0,0,1-5.38-5.37,5.3,5.3,0,0,1,1.57-3.78,5.37,5.37,0,0,1,3.8-1.58l92.67-.06Z"/><path class="cls-26" d="M1996.15,1469.39a7.57,7.57,0,0,1-5.87,2.81h-6.77a7.57,7.57,0,0,0,7.4-9.13l-22.49-107.17a7.65,7.65,0,0,0-7.44-6h6.76a7.64,7.64,0,0,1,7.44,6l22.49,107.16A7.49,7.49,0,0,1,1996.15,1469.39Z"/><path class="cls-28" d="M1989.38,1469.4a7.55,7.55,0,0,1-5.87,2.8l-162.89.11a7.64,7.64,0,0,1-7.44-6l-22.49-107.16a7.6,7.6,0,0,1,7.41-9.14l162.88-.1a7.65,7.65,0,0,1,7.44,6l22.49,107.17A7.55,7.55,0,0,1,1989.38,1469.4Z"/><circle class="cls-2" cx="1890.8" cy="1411.1" r="8.83" transform="translate(-468.47 1398.86) rotate(-36.44)"/><path class="cls-16" d="M2031.86,1187.33s-58.61,19.5-90-11.93c0,0,20,22.7,33.81,20.28,0,0-19.61,6.08-33.81-16.23,0,0-4,20.53-14.15,24.71,0,0-9.32-57.16,39.93-64.26S2029.47,1164.78,2031.86,1187.33Z"/><path class="cls-13" d="M1689.67,1665.86s-14.45,15.61-20.16,12.47l59.17,38.93,12.62-17.44Z"/><path class="cls-29" d="M1648.54,1671l16.62,5.77a14.4,14.4,0,0,0,10.66-.49l7.94-4.76,16.49,26.64,35.56,9.21-3.51,4.84-18.71-5.27,15.45,10.17a5.58,5.58,0,0,1,1.6,7.74L1726,1732a6,6,0,0,1-8.25,1.71L1700,1722.07v-9.41l-12.7,1-55.61-36.58a1.94,1.94,0,0,1-.15-3.12h0A17.74,17.74,0,0,1,1648.54,1671Z"/><path class="cls-13" d="M1807.88,1762.56s-3.5,21-10,21.5h70.83l1-21.5Z"/><path class="cls-29" d="M1776.36,1789.5l17.06-4.32a14.35,14.35,0,0,0,8.64-6.26l4-8.34,28.43,13.19,34.76-11.84-.27,6-18.52,5.88H1869a5.6,5.6,0,0,1,5.59,5.6v8.51a6,6,0,0,1-6,6h-21.17l-5.18-7.86-10,7.86h-66.56a1.94,1.94,0,0,1-1.84-2.53h0A17.75,17.75,0,0,1,1776.36,1789.5Z"/><path class="cls-29" d="M1837.47,1600.18,1803,1762.56h70L1929.66,1591s-20.33-9.27-49-21.43S1844.76,1582.15,1837.47,1600.18Z"/><path class="cls-19" d="M2108.54,1556.66h0c-8.35,48.3-32.44,60.11-96.19,52.74-79.92-9.24-124.27-37-124.27-37L1749.3,1700.42l-59.34-42s35.86-45.62,82.74-102c49.6-59.63,60.21-92.9,153.75-70.48,57.73,13.83,102.14,14.62,143.94,24.16h0c24.12,5.5,39.55,9.34,39.55,9.34A142.85,142.85,0,0,1,2108.54,1556.66Z"/><path class="cls-29" d="M2108.54,1556.66h0c-49.48,3.15-38.13-46.57-38.13-46.57h0c24.12,5.5,39.55,9.34,39.55,9.34A142.85,142.85,0,0,1,2108.54,1556.66Z"/><path class="cls-29" d="M1694.59,1651.88l61.46,44.23a6.51,6.51,0,0,1,1.48,9.06h0a6.5,6.5,0,0,1-9.06,1.48L1687,1662.42a6.51,6.51,0,0,1-1.48-9.06h0A6.51,6.51,0,0,1,1694.59,1651.88Z"/><rect class="cls-29" x="1794.79" y="1749.58" width="88.7" height="12.98" rx="6.49" transform="translate(3678.28 3512.15) rotate(180)"/><rect class="cls-8" x="1887.98" y="1595.67" width="680.67" height="158.21"/><rect class="cls-30" x="1955.13" y="1595.67" width="40.28" height="158.21"/><rect class="cls-30" x="2461.22" y="1595.67" width="40.28" height="158.21" transform="translate(4962.73 3349.56) rotate(180)"/><path class="cls-31" d="M1888,1661.9s-51.51,24.84-59.78,92l22.07-18.39,7.82,18.39s5.06-57,29.89-79.1Z"/><path class="cls-32" d="M805.56,1670.72H771.28a47.38,47.38,0,0,1-38.12,46.47,46.21,46.21,0,0,1-9.25.91l-1.44,0L710.8,2103l-.25,7.91H804l.94-7.9,33.4-280.66,18-151.61Z"/><path class="cls-33" d="M856.42,1670.72H890.7c0,22,13.86,40.45,38.42,45.82a72,72,0,0,0,15.2,1.56L995.07,2103l1,7.92H900.85l-1.72-7.92-60.76-280.64Z"/><path class="cls-34" d="M834.81,2148.35s-12.61,6.13-8.38,19.23h27.8a16.76,16.76,0,0,0-8.13-12.47C841.68,2152.49,838,2150.32,834.81,2148.35Z"/><path class="cls-34" d="M710.55,2130.31v19.62c25.48-.32,22.69-22.93,22.69-22.93-10.2-.66-16.29-1.52-17.37-1.69a.85.85,0,0,1-.18,0h-.11A5,5,0,0,0,710.55,2130.31Z"/><path class="cls-22" d="M804.88,2129.53c-2.07-1.3-4.3-2.72-6.75-4.25,0,0-2.43.33-6.76.78-7.18.71-19.6,1.65-34.6,1.65-1.26,0-2.5,0-3.7,0-7.71-.06-14.36-.33-19.83-.68,0,0,2.79,22.61-22.69,22.93v17.65H826.43c-4.23-13.1,8.38-19.23,8.38-19.23-6.76-4.11-11.77-7.28-18.6-11.61C813,2134.67,809.33,2132.35,804.88,2129.53Z"/><path class="cls-35" d="M710.55,2167.58v.64a6.36,6.36,0,0,0,6.35,6.37H849.35a5,5,0,0,0,5-5,16.36,16.36,0,0,0-.12-2H710.55Z"/><path class="cls-13" d="M715.69,2110.89v14.39l.18,0c2,.21,19.68,2.13,37.2,2.37,1.2,0,2.44,0,3.7,0,15,0,27.42-.94,34.6-1.65,4.17-.45,6.49-.78,6.49-.78v-14.39H715.69Z"/><path class="cls-34" d="M793.5,2142a.76.76,0,0,1-.55-1.29L804.34,2129a.75.75,0,1,1,1.08,1L794,2141.73A.72.72,0,0,1,793.5,2142Z"/><path class="cls-34" d="M799.18,2145.84a.76.76,0,0,1-.54-1.29L810,2132.88a.76.76,0,0,1,1.09,1.06l-11.4,11.67A.74.74,0,0,1,799.18,2145.84Z"/><path class="cls-34" d="M804.88,2149.1a.77.77,0,0,1-.53-.21.76.76,0,0,1,0-1.08l11.33-11.6a.74.74,0,0,1,1.06-.14.76.76,0,0,1,.14,1.06l0,.07-11.4,11.68A.75.75,0,0,1,804.88,2149.1Z"/><path class="cls-34" d="M1027.09,2148.35s-12.62,6.13-8.39,19.23h27.8a16.75,16.75,0,0,0-8.12-12.47C1034,2152.49,1030.31,2150.32,1027.09,2148.35Z"/><path class="cls-34" d="M902.83,2130.31v19.62c25.48-.32,22.68-22.93,22.68-22.93-10.19-.66-16.29-1.52-17.37-1.69a.85.85,0,0,1-.18,0h-.11A5,5,0,0,0,902.83,2130.31Z"/><path class="cls-22" d="M997.15,2129.53l-6.74-4.25s-2.43.33-6.77.78c-7.18.71-19.6,1.65-34.59,1.65-1.26,0-2.51,0-3.71,0-7.7-.06-14.36-.33-19.83-.68,0,0,2.8,22.61-22.68,22.93v17.65H1018.7c-4.23-13.1,8.39-19.23,8.39-19.23-6.77-4.11-11.78-7.28-18.6-11.61Z"/><path class="cls-35" d="M902.83,2167.58v.64a6.36,6.36,0,0,0,6.35,6.37h132.45a5,5,0,0,0,3.54-1.48,5.06,5.06,0,0,0,1.46-3.54,16.35,16.35,0,0,0-.13-2H902.83Z"/><path class="cls-13" d="M908,2110.89v14.39l.18,0c2,.21,19.68,2.13,37.2,2.37,1.2,0,2.45,0,3.71,0,15,0,27.41-.94,34.59-1.65,4.17-.45,6.49-.78,6.49-.78v-14.39H908Z"/><path class="cls-34" d="M985.77,2142a.77.77,0,0,1-.53-.21.76.76,0,0,1,0-1.08L996.61,2129a.75.75,0,0,1,1.07,0,.76.76,0,0,1,0,1.07l-11.38,11.67A.74.74,0,0,1,985.77,2142Z"/><path class="cls-34" d="M991.45,2145.84a.74.74,0,0,1-.53-.22.76.76,0,0,1,0-1.07l11.4-11.67a.76.76,0,1,1,1.08,1.06L992,2145.61A.78.78,0,0,1,991.45,2145.84Z"/><path class="cls-34" d="M997.15,2149.1a.75.75,0,0,1-.54-1.29l11.33-11.6a.74.74,0,0,1,1.06-.14.76.76,0,0,1,.14,1.06l0,.07-11.39,11.68A.77.77,0,0,1,997.15,2149.1Z"/><polygon class="cls-36" points="856.42 1670.72 850.59 1878.79 838.37 1822.33 856.42 1670.72"/><path class="cls-36" d="M723.91,1670.72l-1.44,47.33,1.44,0a46.21,46.21,0,0,0,9.25-.91,47.38,47.38,0,0,0,38.12-46.47Z"/><path class="cls-36" d="M938.07,1670.72H890.7c0,22,13.86,40.45,38.42,45.82a72,72,0,0,0,15.2,1.56Z"/><path class="cls-37" d="M722.47,1718.81a62.51,62.51,0,0,0,10.84-.88A48.2,48.2,0,0,0,772,1670.72a.76.76,0,1,0-1.51,0A46.68,46.68,0,0,1,733,1716.44a61.29,61.29,0,0,1-10.54.86.76.76,0,0,0-.76.76A.75.75,0,0,0,722.47,1718.81Z"/><path class="cls-37" d="M929.45,1719.55h.11a.76.76,0,0,0,.64-.86l-.32-2.25a.76.76,0,1,0-1.51.21l.33,2.26A.75.75,0,0,0,929.45,1719.55Z"/><path class="cls-37" d="M984.46,2104.26l-.65-4.48a.76.76,0,0,1,.64-.86.75.75,0,0,1,.86.64l.65,4.49a.76.76,0,0,1-.64.86h-.11A.75.75,0,0,1,984.46,2104.26Zm-1.3-9-.65-4.48a.76.76,0,0,1,.65-.86.77.77,0,0,1,.86.64l.65,4.48a.76.76,0,0,1-.65.86h-.11A.76.76,0,0,1,983.16,2095.3Zm-1.29-9-.65-4.48a.75.75,0,0,1,.64-.86.77.77,0,0,1,.86.64l.65,4.48a.76.76,0,0,1-.64.86h-.11A.75.75,0,0,1,981.87,2086.34Zm-1.3-9-.65-4.48a.76.76,0,0,1,.64-.86.77.77,0,0,1,.86.64l.65,4.48a.76.76,0,0,1-.64.86h-.11A.75.75,0,0,1,980.57,2077.38Zm-1.3-9-.65-4.48a.76.76,0,1,1,1.51-.21l.65,4.48a.76.76,0,0,1-.65.86H980A.77.77,0,0,1,979.27,2068.41Zm-1.29-9-.65-4.48a.76.76,0,1,1,1.5-.22l.65,4.49a.76.76,0,0,1-.64.86h-.11A.75.75,0,0,1,978,2059.45Zm-1.3-9L976,2046a.76.76,0,1,1,1.5-.22l.65,4.48a.76.76,0,0,1-.64.86h-.11A.75.75,0,0,1,976.68,2050.49Zm-1.3-9-.65-4.48a.76.76,0,0,1,1.51-.22l.65,4.48a.76.76,0,0,1-.65.86h-.11A.76.76,0,0,1,975.38,2041.53Zm-1.29-9-.65-4.48a.76.76,0,1,1,1.5-.22l.65,4.48a.76.76,0,0,1-.64.86h-.11A.75.75,0,0,1,974.09,2032.57Zm-1.3-9-.65-4.48a.76.76,0,1,1,1.5-.21l.65,4.48a.76.76,0,0,1-.64.86h-.11A.76.76,0,0,1,972.79,2023.6Zm-1.3-9-.65-4.48a.76.76,0,0,1,.65-.86.75.75,0,0,1,.86.64l.65,4.49a.76.76,0,0,1-.65.86h-.11A.76.76,0,0,1,971.49,2014.64Zm-1.29-9-.65-4.48a.76.76,0,0,1,1.5-.22l.65,4.48a.76.76,0,0,1-.64.86H971A.75.75,0,0,1,970.2,2005.68Zm-1.3-9-.65-4.48a.76.76,0,0,1,.64-.86.73.73,0,0,1,.86.64l.65,4.48a.76.76,0,0,1-.64.86h-.11A.75.75,0,0,1,968.9,1996.72Zm-1.3-9-.65-4.48a.76.76,0,0,1,.65-.86.74.74,0,0,1,.86.64l.64,4.48a.75.75,0,0,1-.64.86h-.11A.76.76,0,0,1,967.6,1987.76Zm-1.3-9-.64-4.48a.76.76,0,0,1,.64-.87.75.75,0,0,1,.86.65l.65,4.48a.76.76,0,0,1-.64.86h-.11A.77.77,0,0,1,966.3,1978.8Zm-1.29-9-.65-4.48a.76.76,0,1,1,1.5-.21l.65,4.48a.76.76,0,0,1-.64.86h-.11A.75.75,0,0,1,965,1969.83Zm-1.3-9-.65-4.48a.76.76,0,0,1,.65-.86.75.75,0,0,1,.86.64l.64,4.48a.75.75,0,0,1-.64.86h-.11A.76.76,0,0,1,963.71,1960.87Zm-1.3-9-.64-4.48a.76.76,0,1,1,1.5-.22l.65,4.48a.76.76,0,0,1-.64.86h-.11A.76.76,0,0,1,962.41,1951.91Zm-1.29-9-.65-4.48a.76.76,0,0,1,.64-.86.74.74,0,0,1,.86.64l.65,4.48a.76.76,0,0,1-.64.86h-.11A.75.75,0,0,1,961.12,1943Zm-1.3-9-.65-4.48a.77.77,0,0,1,.65-.87.75.75,0,0,1,.86.65l.64,4.48a.76.76,0,0,1-.64.86h-.11A.77.77,0,0,1,959.82,1934Zm-1.3-9-.64-4.48a.76.76,0,1,1,1.5-.21l.65,4.48a.76.76,0,0,1-.65.86h-.11A.77.77,0,0,1,958.52,1925Zm-1.29-9-.65-4.48a.76.76,0,1,1,1.5-.22l.65,4.49a.75.75,0,0,1-.64.85H958A.75.75,0,0,1,957.23,1916.06Zm-1.3-9-.65-4.48a.76.76,0,0,1,1.51-.22l.64,4.48a.75.75,0,0,1-.64.86h-.11A.76.76,0,0,1,955.93,1907.1Zm-1.3-9-.64-4.48a.76.76,0,1,1,1.5-.22l.65,4.48a.76.76,0,0,1-.65.86h-.1A.76.76,0,0,1,954.63,1898.14Zm-1.29-9-.65-4.48a.76.76,0,0,1,.64-.86.74.74,0,0,1,.86.64l.65,4.48a.76.76,0,0,1-.64.86h-.11A.75.75,0,0,1,953.34,1889.18Zm-1.3-9-.65-4.48a.76.76,0,1,1,1.51-.21l.64,4.48a.76.76,0,0,1-.64.86h-.11A.76.76,0,0,1,952,1880.21Zm-1.3-9-.64-4.48a.76.76,0,1,1,1.5-.22l.65,4.48a.77.77,0,0,1-.65.87h-.11A.76.76,0,0,1,950.74,1871.25Zm-1.29-9-.65-4.48a.76.76,0,0,1,1.5-.22l.65,4.48a.76.76,0,0,1-.64.86h-.11A.75.75,0,0,1,949.45,1862.29Zm-1.3-9-.65-4.48a.76.76,0,0,1,1.51-.22l.64,4.48a.75.75,0,0,1-.64.86h-.11A.75.75,0,0,1,948.15,1853.33Zm-1.3-9-.64-4.48a.76.76,0,1,1,1.5-.22l.65,4.48a.76.76,0,0,1-.65.86h-.11A.76.76,0,0,1,946.85,1844.37Zm-1.29-9-.65-4.49a.76.76,0,0,1,.64-.86.75.75,0,0,1,.86.65l.65,4.48a.76.76,0,0,1-.64.86h-.11A.76.76,0,0,1,945.56,1835.41Zm-1.3-9-.65-4.48a.76.76,0,0,1,.64-.86.75.75,0,0,1,.86.64l.65,4.49a.76.76,0,0,1-.64.86H945A.75.75,0,0,1,944.26,1826.44Zm-1.3-9-.65-4.48a.76.76,0,0,1,1.51-.22l.65,4.48a.76.76,0,0,1-.65.86h-.11A.76.76,0,0,1,943,1817.48Zm-1.29-9L941,1804a.76.76,0,1,1,1.5-.22l.65,4.48a.76.76,0,0,1-.64.86h-.11A.75.75,0,0,1,941.67,1808.52Zm-1.3-9-.65-4.48a.76.76,0,0,1,1.51-.22l.64,4.48a.76.76,0,0,1-.64.86h-.11A.75.75,0,0,1,940.37,1799.56Zm-1.3-9-.64-4.49a.75.75,0,0,1,.64-.86.76.76,0,0,1,.86.65l.65,4.48a.76.76,0,0,1-.65.86h-.11A.77.77,0,0,1,939.07,1790.6Zm-1.29-9-.65-4.48a.76.76,0,1,1,1.5-.22l.65,4.49a.76.76,0,0,1-.64.86h-.11A.75.75,0,0,1,937.78,1781.63Zm-1.3-9-.65-4.48a.76.76,0,0,1,.64-.86.75.75,0,0,1,.86.64l.65,4.48a.75.75,0,0,1-.64.86h-.11A.75.75,0,0,1,936.48,1772.67Zm-1.3-9-.65-4.48a.76.76,0,0,1,.65-.86.74.74,0,0,1,.86.64l.65,4.48a.76.76,0,0,1-.65.86h-.11A.76.76,0,0,1,935.18,1763.71Zm-1.29-9-.65-4.48a.76.76,0,0,1,.64-.86.75.75,0,0,1,.86.64l.65,4.48a.76.76,0,0,1-.64.86h-.11A.75.75,0,0,1,933.89,1754.75Zm-1.3-9-.65-4.48a.77.77,0,0,1,.64-.87.75.75,0,0,1,.86.65l.65,4.48a.76.76,0,0,1-.64.86h-.11A.76.76,0,0,1,932.59,1745.79Zm-1.3-9-.65-4.48a.76.76,0,0,1,.65-.86.75.75,0,0,1,.86.64l.65,4.49a.76.76,0,0,1-.65.86H932A.76.76,0,0,1,931.29,1736.82Zm-1.29-9-.65-4.48a.76.76,0,0,1,.64-.86.75.75,0,0,1,.86.64l.65,4.48a.76.76,0,0,1-.64.86h-.11A.75.75,0,0,1,930,1727.86Z"/><path class="cls-37" d="M986.18,2111.65h.11a.76.76,0,0,0,.64-.86l-.32-2.25a.77.77,0,0,0-.86-.65.76.76,0,0,0-.65.86l.33,2.26A.75.75,0,0,0,986.18,2111.65Z"/><path class="cls-37" d="M898.37,2103a.76.76,0,0,1,.76-.76h4.56a.76.76,0,0,1,0,1.52h-4.56A.76.76,0,0,1,898.37,2103Zm9.12,0a.76.76,0,0,1,.76-.76h4.56a.76.76,0,1,1,0,1.52h-4.56A.76.76,0,0,1,907.49,2103Zm9.11,0a.76.76,0,0,1,.76-.76h4.56a.76.76,0,0,1,0,1.52h-4.56A.76.76,0,0,1,916.6,2103Zm9.12,0a.76.76,0,0,1,.76-.76H931a.76.76,0,0,1,0,1.52h-4.56A.76.76,0,0,1,925.72,2103Zm9.12,0a.76.76,0,0,1,.76-.76h4.56a.76.76,0,0,1,0,1.52H935.6A.76.76,0,0,1,934.84,2103Zm9.11,0a.76.76,0,0,1,.76-.76h4.56a.76.76,0,0,1,0,1.52h-4.56A.76.76,0,0,1,944,2103Zm9.12,0a.76.76,0,0,1,.76-.76h4.56a.76.76,0,0,1,0,1.52h-4.56A.76.76,0,0,1,953.07,2103Zm9.12,0a.76.76,0,0,1,.76-.76h4.56a.76.76,0,0,1,0,1.52H963A.76.76,0,0,1,962.19,2103Zm9.11,0a.76.76,0,0,1,.76-.76h4.56a.76.76,0,0,1,0,1.52h-4.56A.76.76,0,0,1,971.3,2103Zm9.12,0a.76.76,0,0,1,.76-.76h4.56a.76.76,0,0,1,0,1.52h-4.56A.76.76,0,0,1,980.42,2103Zm9.12,0a.76.76,0,0,1,.76-.76h4.56a.76.76,0,0,1,0,1.52H990.3A.76.76,0,0,1,989.54,2103Z"/><path class="cls-37" d="M721.91,2111.65a.76.76,0,0,1-.74-.78l.06-1.85a.77.77,0,0,1,.78-.73.76.76,0,0,1,.74.78l-.06,1.84a.76.76,0,0,1-.76.74Zm.19-6.4a.76.76,0,0,1-.74-.78l.13-4.56a.77.77,0,0,1,.78-.74.76.76,0,0,1,.74.78l-.13,4.56a.76.76,0,0,1-.76.74Zm.26-9.11a.78.78,0,0,1-.74-.79l.13-4.55a.78.78,0,0,1,.78-.74.76.76,0,0,1,.74.78l-.13,4.56a.76.76,0,0,1-.76.74Zm.26-9.12a.76.76,0,0,1-.74-.78l.13-4.56a.75.75,0,0,1,.78-.73.76.76,0,0,1,.74.78l-.13,4.56a.75.75,0,0,1-.76.73Zm.26-9.11a.76.76,0,0,1-.74-.78l.13-4.56a.77.77,0,0,1,.78-.74.78.78,0,0,1,.74.79l-.13,4.55a.76.76,0,0,1-.76.74Zm.26-9.11a.76.76,0,0,1-.74-.78l.13-4.56a.77.77,0,0,1,.78-.74.76.76,0,0,1,.74.78l-.13,4.56a.76.76,0,0,1-.76.74Zm.26-9.12a.76.76,0,0,1-.74-.78l.13-4.55a.76.76,0,1,1,1.52,0l-.13,4.56a.75.75,0,0,1-.76.73Zm.26-9.11a.76.76,0,0,1-.74-.78l.13-4.56a.75.75,0,0,1,.78-.73.76.76,0,0,1,.74.78l-.13,4.55a.77.77,0,0,1-.76.74Zm.26-9.11a.76.76,0,0,1-.74-.78l.13-4.56a.75.75,0,0,1,.78-.74.76.76,0,0,1,.74.78l-.13,4.56a.76.76,0,0,1-.76.74Zm.26-9.12a.76.76,0,0,1-.74-.78l.13-4.55a.79.79,0,0,1,.78-.74.76.76,0,0,1,.74.78l-.13,4.56a.76.76,0,0,1-.76.73Zm.26-9.11a.76.76,0,0,1-.74-.78l.13-4.56a.76.76,0,0,1,1.52,0l-.13,4.55a.76.76,0,0,1-.76.74Zm.25-9.11a.75.75,0,0,1-.73-.78l.13-4.56a.74.74,0,0,1,.78-.74.77.77,0,0,1,.74.78l-.13,4.56a.77.77,0,0,1-.76.74ZM725,2005a.78.78,0,0,1-.74-.79l.13-4.55a.76.76,0,0,1,1.52,0l-.13,4.56a.77.77,0,0,1-.76.74Zm.26-9.12a.76.76,0,0,1-.74-.78l.13-4.55a.79.79,0,0,1,.78-.74.76.76,0,0,1,.74.78l-.13,4.56a.76.76,0,0,1-.76.73Zm.25-9.11a.75.75,0,0,1-.73-.78l.13-4.56a.76.76,0,1,1,1.52,0l-.13,4.55a.77.77,0,0,1-.76.74Zm.26-9.11a.75.75,0,0,1-.73-.78l.13-4.56a.76.76,0,0,1,1.52,0l-.13,4.56a.77.77,0,0,1-.76.74Zm.26-9.12a.75.75,0,0,1-.73-.78l.13-4.55a.76.76,0,0,1,1.52,0l-.13,4.56a.76.76,0,0,1-.76.73Zm.26-9.11a.75.75,0,0,1-.73-.78l.13-4.56a.74.74,0,0,1,.78-.73.76.76,0,0,1,.74.78l-.13,4.55a.76.76,0,0,1-.76.74Zm.26-9.11a.75.75,0,0,1-.73-.78l.13-4.56a.79.79,0,0,1,.78-.74.76.76,0,0,1,.74.78l-.13,4.56a.77.77,0,0,1-.76.74Zm.26-9.11a.77.77,0,0,1-.73-.79l.13-4.55a.76.76,0,0,1,1.52,0l-.13,4.56a.77.77,0,0,1-.76.74Zm.26-9.12a.75.75,0,0,1-.73-.78l.13-4.56a.76.76,0,0,1,1.52,0l-.13,4.55a.76.76,0,0,1-.76.74Zm.26-9.11a.75.75,0,0,1-.73-.78l.13-4.56a.74.74,0,0,1,.78-.74.76.76,0,0,1,.73.78l-.12,4.56a.77.77,0,0,1-.76.74Zm.26-9.11a.76.76,0,0,1-.73-.78l.13-4.56a.76.76,0,0,1,.78-.74.75.75,0,0,1,.73.78l-.13,4.56a.75.75,0,0,1-.75.74Zm.26-9.12a.75.75,0,0,1-.73-.78l.13-4.55a.76.76,0,0,1,1.52,0l-.13,4.56a.76.76,0,0,1-.76.73Zm.26-9.11a.75.75,0,0,1-.73-.78l.13-4.56a.76.76,0,1,1,1.51,0l-.13,4.55a.75.75,0,0,1-.75.74Zm.26-9.11a.75.75,0,0,1-.73-.78l.12-4.56a.76.76,0,0,1,.79-.74.75.75,0,0,1,.73.78l-.13,4.56a.75.75,0,0,1-.75.74Zm.26-9.12a.76.76,0,0,1-.74-.78l.14-4.55a.77.77,0,0,1,.78-.74.75.75,0,0,1,.73.78l-.13,4.56a.75.75,0,0,1-.75.73Zm.26-9.11a.75.75,0,0,1-.73-.78l.12-4.56a.79.79,0,0,1,.79-.73.75.75,0,0,1,.73.78l-.13,4.55a.75.75,0,0,1-.75.74Zm.26-9.11a.76.76,0,0,1-.74-.78l.13-4.56a.78.78,0,0,1,.79-.74.75.75,0,0,1,.73.78l-.13,4.56a.76.76,0,0,1-.75.74Zm.26-9.11a.77.77,0,0,1-.74-.78l.13-4.56a.79.79,0,0,1,.79-.74.75.75,0,0,1,.73.78l-.13,4.56a.76.76,0,0,1-.75.74Zm.26-9.12a.76.76,0,0,1-.74-.78l.13-4.55a.8.8,0,0,1,.79-.74.75.75,0,0,1,.73.78l-.13,4.56a.75.75,0,0,1-.76.73Zm.26-9.11a.76.76,0,0,1-.74-.78l.13-4.56a.78.78,0,0,1,.79-.74.77.77,0,0,1,.73.79l-.13,4.55a.76.76,0,0,1-.75.74Zm.26-9.11a.77.77,0,0,1-.74-.78l.13-4.56a.79.79,0,0,1,.79-.74.75.75,0,0,1,.73.78l-.13,4.56a.76.76,0,0,1-.76.74Zm.26-9.12a.76.76,0,0,1-.74-.78l.13-4.55a.77.77,0,0,1,.79-.74.75.75,0,0,1,.73.78l-.13,4.56a.75.75,0,0,1-.76.73Zm.26-9.11a.76.76,0,0,1-.74-.78l.13-4.56a.77.77,0,0,1,.79-.73.75.75,0,0,1,.73.78l-.13,4.55a.76.76,0,0,1-.76.74Zm.26-9.11a.76.76,0,0,1-.74-.78l.13-4.56a.78.78,0,0,1,.79-.74.75.75,0,0,1,.73.78l-.13,4.56a.76.76,0,0,1-.76.74Zm.26-9.11a.78.78,0,0,1-.74-.79l.13-4.55a.79.79,0,0,1,.78-.74.76.76,0,0,1,.74.78l-.13,4.56a.76.76,0,0,1-.76.74Zm.26-9.12a.76.76,0,0,1-.74-.78l.13-4.56a.76.76,0,0,1,1.52.05l-.13,4.55a.76.76,0,0,1-.76.74Zm.26-9.11a.76.76,0,0,1-.74-.78l.13-4.56a.76.76,0,0,1,1.52,0l-.13,4.56a.76.76,0,0,1-.76.74ZM732,1759a.77.77,0,0,1-.74-.78l.13-4.56a.79.79,0,0,1,.78-.74.76.76,0,0,1,.74.78l-.13,4.56a.76.76,0,0,1-.76.74Zm.26-9.12a.76.76,0,0,1-.74-.78l.13-4.55a.76.76,0,0,1,1.52,0l-.13,4.56a.75.75,0,0,1-.76.73Zm.26-9.11a.76.76,0,0,1-.74-.78l.13-4.56a.76.76,0,1,1,1.52,0l-.13,4.55a.76.76,0,0,1-.76.74Zm.26-9.11a.76.76,0,0,1-.74-.78l.13-4.56a.76.76,0,0,1,1.52,0l-.13,4.56a.76.76,0,0,1-.76.74Zm.26-9.11a.78.78,0,0,1-.74-.79l.13-4.55a.79.79,0,0,1,.78-.74.76.76,0,0,1,.74.78l-.13,4.56a.76.76,0,0,1-.76.74Z"/><path class="cls-37" d="M710,2103a.76.76,0,0,1,.76-.76h2.91a.76.76,0,0,1,0,1.52H710.8A.76.76,0,0,1,710,2103Zm7.47,0a.76.76,0,0,1,.76-.76h4.56a.76.76,0,0,1,0,1.52h-4.56A.76.76,0,0,1,717.51,2103Zm9.12,0a.76.76,0,0,1,.76-.76H732a.76.76,0,0,1,0,1.52h-4.56A.76.76,0,0,1,726.63,2103Zm9.11,0a.76.76,0,0,1,.76-.76h4.56a.76.76,0,1,1,0,1.52H736.5A.76.76,0,0,1,735.74,2103Zm9.12,0a.76.76,0,0,1,.76-.76h4.56a.76.76,0,1,1,0,1.52h-4.56A.76.76,0,0,1,744.86,2103Zm9.12,0a.76.76,0,0,1,.76-.76h4.56a.76.76,0,0,1,0,1.52h-4.56A.76.76,0,0,1,754,2103Zm9.12,0a.75.75,0,0,1,.75-.76h4.56a.76.76,0,0,1,0,1.52h-4.56A.75.75,0,0,1,763.1,2103Zm9.11,0a.76.76,0,0,1,.76-.76h4.56a.76.76,0,0,1,0,1.52H773A.76.76,0,0,1,772.21,2103Zm9.12,0a.76.76,0,0,1,.76-.76h4.56a.76.76,0,0,1,0,1.52h-4.56A.76.76,0,0,1,781.33,2103Zm9.11,0a.76.76,0,0,1,.76-.76h4.56a.76.76,0,0,1,0,1.52H791.2A.76.76,0,0,1,790.44,2103Zm9.12,0a.76.76,0,0,1,.76-.76h4.56a.76.76,0,0,1,0,1.52h-4.56A.76.76,0,0,1,799.56,2103Z"/><polygon class="cls-38" points="723.89 1670.72 941.02 1693.1 938.07 1670.72 723.89 1670.72"/><path class="cls-15" d="M856.42,1408.92s74.09,10.61,110.16,52.44-12.46,41.07-25.85,39.55S856.42,1408.92,856.42,1408.92Z"/><polygon class="cls-13" points="787.27 1363.02 793.82 1415.45 841.34 1408.16 841.69 1406.81 843.37 1400.27 845.15 1393.45 845.17 1393.37 851.59 1368.66 787.27 1363.02"/><path class="cls-13" d="M783.63,1343.78c1.07,29.91,19.86,57.55,49.76,56.48s53-.93,58.53-60.37c2.75-29.79-26.19-53.27-56.09-52.2A54.18,54.18,0,0,0,783.63,1343.78Z"/><path class="cls-16" d="M839.78,1315a39.56,39.56,0,0,0-29.45-1.93,30.41,30.41,0,0,0-3.87,1.52c-5.71,2.78-4.87,18.7-4.87,18.7s-7.58-6-9.79,4.41,7.53,12,7.53,12l-6.4,27.1s-10.16-16.52-17.1-45.31c-6.74-27.93,16.17-72,43.45-63.49,0,0,22.69-19.28,50.07-10.91,29.93,9.14,50.58,28.14,63.13,13.69,0,0-8.49,71.1-66,53.61Z"/><path class="cls-8" d="M840.09,1414.25l3.28-14s-34.48,2.82-46.84-18.11C796.53,1382.15,796.74,1410.62,840.09,1414.25Z"/><path class="cls-39" d="M719.43,1586.89l-3.76-67.37c-3-54-.17-110.6,86.65-110.54l.33-.06c5.76-1,10-1.34,12-1.51l1.29-.09c111.93,0,108.91,41.6,112.2,100.28l3.54,63.14L943,1663.67a11.11,11.11,0,0,1-11,12.45l-205.31.94a11.12,11.12,0,0,1-11.15-11.66Z"/><path class="cls-25" d="M814.66,1407.41c-2,.17-6.25.56-12,1.51A102.88,102.88,0,0,1,814.66,1407.41Z"/><path class="cls-8" d="M903.65,1556.5h0c-2.89-2.81-10.14,1.44-7.33-1.45l18.16-20.19a7.36,7.36,0,0,1,10.36-.14h0a7.35,7.35,0,0,1,.14,10.36l-11,11.28A7.35,7.35,0,0,1,903.65,1556.5Z"/><path class="cls-40" d="M929.91,1590.23l-4.41-.14A9.81,9.81,0,0,1,916,1580l4.41-132.8a9.8,9.8,0,0,1,10.13-9.47l4.26.15a9.75,9.75,0,0,0-10,9.46l-4.42,132.79A9.83,9.83,0,0,0,929.91,1590.23Z"/><path class="cls-41" d="M1017.06,1593.13l-4.27-.15-82.88-2.75a9.83,9.83,0,0,1-9.47-10.13l4.42-132.79a9.75,9.75,0,0,1,10-9.46.39.39,0,0,1,.15,0l82.74,2.76,4.41.14a9.79,9.79,0,0,1,9.47,10.13l-4.41,132.79A9.84,9.84,0,0,1,1017.06,1593.13Z"/><path class="cls-2" d="M966.74,1513.76a9.44,9.44,0,1,0,11-7.56A9.44,9.44,0,0,0,966.74,1513.76Z"/><path class="cls-2" d="M1015,1452.76a3.56,3.56,0,1,0,4.15-2.85A3.56,3.56,0,0,0,1015,1452.76Z"/><rect class="cls-13" x="891.16" y="1548.83" width="51.29" height="42.37" rx="15.99" transform="translate(-191.2 128.56) rotate(-7.27)"/><rect class="cls-13" x="923.31" y="1539.09" width="14.65" height="30.39" rx="5.53" transform="translate(2354.75 434.56) rotate(82.73)"/><rect class="cls-13" x="934.32" y="1546.88" width="14.65" height="30.39" rx="5.53" transform="translate(2372.06 430.4) rotate(82.73)"/><rect class="cls-13" x="931.75" y="1556.43" width="14.65" height="30.39" rx="5.53" transform="matrix(0.13, 0.99, -0.99, 0.13, 2379.32, 441.34)"/><rect class="cls-13" x="923.99" y="1566.62" width="14.65" height="30.39" rx="5.53" transform="translate(2382.62 457.9) rotate(82.73)"/><rect class="cls-8" x="922.06" y="1555.52" width="23.84" height="1.52" transform="translate(-261.25 190.35) rotate(-10.22)"/><rect class="cls-8" x="930.21" y="1568.56" width="23.34" height="1.52" transform="translate(-263.44 191.96) rotate(-10.22)"/><rect class="cls-8" x="925.53" y="1579.22" width="20.06" height="1.52" transform="translate(-265.43 191.01) rotate(-10.22)"/><path class="cls-15" d="M759,1422.66a42.61,42.61,0,0,0-41.68,46.5c1,10.52,1.92,19.77,2.65,23.69.48,2.87,1.13,5.79,1.7,8.68s1.21,5.78,1.94,8.72,1.37,5.83,2.16,8.77l2.5,8.85c.39,1.47.88,3,1.39,4.47l1.5,4.5,1.51,4.48,1.78,4.61,1.82,4.58c.32.76.6,1.51.94,2.29l1.1,2.37,2.21,4.73,1.11,2.35.56,1.18,1,1.77c1.36,2.43,2.71,4.89,4.27,7.16s3.27,4.45,5,6.56,3.64,3.89,5.53,5.75,3.86,3.32,5.85,4.9a85.59,85.59,0,0,0,23.65,12.4c1.88.6,3.84,1.33,5.66,1.77l5.52,1.41c3.58.75,7.18,1.42,10.61,1.83a143.68,143.68,0,0,0,19.95,1.19,207.59,207.59,0,0,0,36.58-3.77c5.83-1.17,11.58-2.43,17.25-4,2.83-.8,5.65-1.59,8.47-2.47l4.24-1.39,4.49-1.55-7.47-41.22c-.35-.08-1.05-.11-1.62-.16l-1.83-.12-3.74-.27c-2.49-.16-5-.36-7.5-.58-5-.45-10-.88-14.85-1.55a208.82,208.82,0,0,1-27.74-5.06,96,96,0,0,1-11.82-3.82c-.86-.37-1.81-.68-2.58-1.09s-1.6-.77-2.39-1.12l-2.1-1.18a21.51,21.51,0,0,1-1.83-1.18c-2.23-1.58-3.38-6.92-3.38-6.92l-.75-2.76-.38-1.37c-.12-.48-.22-1-.33-1.53l-.66-3.07-.7-3-.58-3.29c-.38-2.22-.83-4.29-1.16-6.61-.76-4.54-2.8-26.7-4.63-47.53A42.61,42.61,0,0,0,759,1422.66Z"/><rect class="cls-13" x="1022.51" y="1526.94" width="14.65" height="30.39" rx="5.53" transform="translate(-615.74 2397.01) rotate(-83.72)"/><rect class="cls-13" x="1020.96" y="1511.82" width="14.65" height="34.92" rx="5.53" transform="translate(-604.34 2384.02) rotate(-83.72)"/><rect class="cls-13" x="1023.83" y="1503.05" width="14.65" height="30.39" rx="5.53" transform="translate(-590.83 2377.04) rotate(-83.72)"/><rect class="cls-13" x="1023.98" y="1496.42" width="14.65" height="21.62" rx="5.53" transform="translate(-579.74 2367.39) rotate(-83.72)"/><rect class="cls-8" x="1028.79" y="1524.01" width="1.52" height="24.33" transform="translate(-565.23 2472.38) rotate(-86.58)"/><rect class="cls-8" x="1029.23" y="1509.17" width="1.52" height="26.21" transform="translate(-588.19 2393.88) rotate(-84.23)"/><rect class="cls-8" x="1029.83" y="1501.86" width="1.52" height="18.44" transform="translate(-559.07 2415.76) rotate(-85.35)"/></g></g></svg>